<svg width="20" height="20" viewBox="0 0 20 20" fill="none" xmlns="http://www.w3.org/2000/svg">
<path d="M14.1332 5.1416C15.7998 6.29993 16.9498 8.1416 17.1832 10.2666" stroke="#C5C5C5" stroke-width="1.25" stroke-linecap="round" stroke-linejoin="round"/>
<path d="M2.9082 10.3086C3.12487 8.19193 4.2582 6.35026 5.9082 5.18359" stroke="#C5C5C5" stroke-width="1.25" stroke-linecap="round" stroke-linejoin="round"/>
<path d="M6.82483 17.4502C7.7915 17.9419 8.8915 18.2169 10.0498 18.2169C11.1665 18.2169 12.2165 17.9669 13.1582 17.5085" stroke="#C5C5C5" stroke-width="1.25" stroke-linecap="round" stroke-linejoin="round"/>
<path d="M10.0499 6.41654C11.3294 6.41654 12.3666 5.37933 12.3666 4.09987C12.3666 2.82041 11.3294 1.7832 10.0499 1.7832C8.77048 1.7832 7.73328 2.82041 7.73328 4.09987C7.73328 5.37933 8.77048 6.41654 10.0499 6.41654Z" stroke="#C5C5C5" stroke-width="1.25" stroke-linecap="round" stroke-linejoin="round"/>
<path d="M4.02492 16.6001C5.30438 16.6001 6.34159 15.5629 6.34159 14.2835C6.34159 13.004 5.30438 11.9668 4.02492 11.9668C2.74546 11.9668 1.70825 13.004 1.70825 14.2835C1.70825 15.5629 2.74546 16.6001 4.02492 16.6001Z" stroke="#C5C5C5" stroke-width="1.25" stroke-linecap="round" stroke-linejoin="round"/>
<path d="M15.9749 16.6001C17.2543 16.6001 18.2915 15.5629 18.2915 14.2835C18.2915 13.004 17.2543 11.9668 15.9749 11.9668C14.6954 11.9668 13.6582 13.004 13.6582 14.2835C13.6582 15.5629 14.6954 16.6001 15.9749 16.6001Z" stroke="#C5C5C5" stroke-width="1.25" stroke-linecap="round" stroke-linejoin="round"/>
</svg>
