<svg width="21" height="20" viewBox="0 0 21 20" fill="none" xmlns="http://www.w3.org/2000/svg">
<g clip-path="url(#clip0_2_72636)">
<path d="M0.689209 4.89518C0.689209 4.24595 0.947113 3.62331 1.40619 3.16424C1.86526 2.70517 2.48789 2.44727 3.13712 2.44727H17.8246C18.4738 2.44727 19.0965 2.70517 19.5555 3.16424C20.0146 3.62331 20.2725 4.24595 20.2725 4.89518V6.11913H0.689209V4.89518ZM0.689209 8.56704V14.6868C0.689209 15.3361 0.947113 15.9587 1.40619 16.4178C1.86526 16.8768 2.48789 17.1347 3.13712 17.1347H17.8246C18.4738 17.1347 19.0965 16.8768 19.5555 16.4178C20.0146 15.9587 20.2725 15.3361 20.2725 14.6868V8.56704H0.689209ZM4.36108 11.015H5.58503C5.90965 11.015 6.22096 11.1439 6.4505 11.3734C6.68004 11.603 6.80899 11.9143 6.80899 12.2389V13.4629C6.80899 13.7875 6.68004 14.0988 6.4505 14.3283C6.22096 14.5579 5.90965 14.6868 5.58503 14.6868H4.36108C4.03646 14.6868 3.72515 14.5579 3.49561 14.3283C3.26607 14.0988 3.13712 13.7875 3.13712 13.4629V12.2389C3.13712 11.9143 3.26607 11.603 3.49561 11.3734C3.72515 11.1439 4.03646 11.015 4.36108 11.015Z" fill="url(#paint0_linear_2_72636)"/>
</g>
<defs>
<linearGradient id="paint0_linear_2_72636" x1="10.4809" y1="2.44727" x2="10.4809" y2="17.1347" gradientUnits="userSpaceOnUse">
<stop stop-color="#A128FF"/>
<stop offset="1" stop-color="#6D15B1" stop-opacity="0.81"/>
</linearGradient>
<clipPath id="clip0_2_72636">
<rect width="19.5833" height="19.5833" fill="white" transform="translate(0.689453)"/>
</clipPath>
</defs>
</svg>
