<svg width="12" height="12" viewBox="0 0 12 12" fill="none" xmlns="http://www.w3.org/2000/svg">
<path d="M7.13086 7.71875H4.63086" stroke="#DADADA" stroke-miterlimit="10" stroke-linecap="round" stroke-linejoin="round"/>
<path d="M5.88086 6.49902V8.99902" stroke="#DADADA" stroke-miterlimit="10" stroke-linecap="round" stroke-linejoin="round"/>
<path d="M6.32998 1.25907L6.31498 1.29407L4.86498 4.65907H3.43998C3.09998 4.65907 2.77498 4.72907 2.47998 4.85407L3.35498 2.76407L3.37498 2.71407L3.40998 2.63407C3.41998 2.60407 3.42998 2.57407 3.44498 2.54907C4.09998 1.03407 4.83998 0.689068 6.32998 1.25907Z" stroke="#DADADA" stroke-linecap="round" stroke-linejoin="round"/>
<path d="M9.02499 4.75879C8.79999 4.68879 8.55999 4.65879 8.31999 4.65879H4.86499L6.31499 1.29379L6.32999 1.25879C6.40499 1.28379 6.47499 1.31879 6.54999 1.34879L7.65499 1.81379C8.26999 2.06879 8.69999 2.33379 8.95999 2.65379C9.00999 2.71379 9.04999 2.76879 9.08499 2.83379C9.12999 2.90379 9.16499 2.97379 9.18499 3.04879C9.20499 3.09379 9.21999 3.13879 9.22999 3.17879C9.36499 3.59879 9.28499 4.11379 9.02499 4.75879Z" stroke="#DADADA" stroke-linecap="round" stroke-linejoin="round"/>
<path d="M10.7609 7.09918V8.07418C10.7609 8.17418 10.7559 8.27418 10.7509 8.37418C10.6559 10.1192 9.68086 10.9992 7.83086 10.9992H3.93086C3.81086 10.9992 3.69086 10.9892 3.57586 10.9742C1.98586 10.8692 1.13586 10.0192 1.03086 8.42918C1.01586 8.31418 1.00586 8.19418 1.00586 8.07418V7.09918C1.00586 6.09418 1.61586 5.22918 2.48586 4.85418C2.78586 4.72918 3.10586 4.65918 3.44586 4.65918H8.32586C8.57086 4.65918 8.81086 4.69418 9.03086 4.75918C10.0259 5.06418 10.7609 5.99418 10.7609 7.09918Z" stroke="#DADADA" stroke-linecap="round" stroke-linejoin="round"/>
<path d="M3.355 2.76367L2.48 4.85367C1.61 5.22867 1 6.09367 1 7.09867V5.63367C1 4.21367 2.01 3.02867 3.355 2.76367Z" stroke="#DADADA" stroke-linecap="round" stroke-linejoin="round"/>
<path d="M10.7593 5.63383V7.09883C10.7593 5.99883 10.0293 5.06383 9.0293 4.76383C9.2893 4.11383 9.3643 3.60383 9.2393 3.17883C9.2293 3.13383 9.2143 3.08883 9.1943 3.04883C10.1243 3.52883 10.7593 4.51383 10.7593 5.63383Z" stroke="#DADADA" stroke-linecap="round" stroke-linejoin="round"/>
</svg>
