<svg width="35" height="32" viewBox="0 0 35 32" fill="none" xmlns="http://www.w3.org/2000/svg">
<path d="M24.1 19.1498C24.1 20.5167 25.2081 21.6248 26.575 21.6248C27.942 21.6248 29.05 20.5167 29.05 19.1498C29.05 17.7829 27.942 16.6748 26.575 16.6748C25.2081 16.6748 24.1 17.7829 24.1 19.1498Z" stroke="#C5C5C5" stroke-width="1.5"/>
<path d="M14.2 7.6H24.1C28.7669 7.6 31.1004 7.6 32.5502 9.04982C34 10.4996 34 12.8331 34 17.5V20.8C34 25.4669 34 27.8004 32.5502 29.2502C31.1004 30.7 28.7669 30.7 24.1 30.7H14.2C7.97746 30.7 4.86619 30.7 2.9331 28.7669C1 26.8338 1 23.7225 1 17.5V14.2C1 7.97746 1 4.86619 2.9331 2.9331C4.86619 1 7.97746 1 14.2 1H20.8C22.3345 1 23.1017 1 23.7312 1.16867C25.4394 1.62638 26.7736 2.96064 27.2313 4.66885C27.4 5.29832 27.4 6.06555 27.4 7.6" stroke="#C5C5C5" stroke-width="1.5" stroke-linecap="round"/>
</svg>
