<svg width="17" height="17" viewBox="0 0 17 17" fill="none" xmlns="http://www.w3.org/2000/svg">
<path d="M11.5 10.167C11.5 10.8573 12.0037 11.417 12.625 11.417C13.2463 11.417 13.75 10.8573 13.75 10.167C13.75 9.47664 13.2463 8.91699 12.625 8.91699C12.0037 8.91699 11.5 9.47664 11.5 10.167Z" stroke="#C5C5C5" stroke-width="1.5"/>
<path d="M7 4.33333H11.5C13.6213 4.33333 14.682 4.33333 15.341 5.06557C16 5.7978 16 6.97631 16 9.33333V11C16 13.357 16 14.5355 15.341 15.2678C14.682 16 13.6213 16 11.5 16H7C4.17157 16 2.75736 16 1.87868 15.0237C1 14.0474 1 12.476 1 9.33333V7.66667C1 4.52397 1 2.95262 1.87868 1.97631C2.75736 1 4.17157 1 7 1H10C10.6975 1 11.0462 1 11.3323 1.08519C12.1088 1.31635 12.7153 1.99022 12.9233 2.85295C13 3.17087 13 3.55836 13 4.33333" stroke="#C5C5C5" stroke-width="1.5" stroke-linecap="round"/>
</svg>
