<svg width="500" height="500" viewBox="0 0 500 500" fill="none" xmlns="http://www.w3.org/2000/svg">
<path fill-rule="evenodd" clip-rule="evenodd" d="M205.769 4.30817C175.576 9.75713 140.426 21.8665 136.535 28.1614C135.674 29.5583 133.332 30.7018 131.335 30.7018C128.254 30.7018 111.813 40.6337 99.0507 50.2053C93.9516 54.0303 53.8063 94.0424 49.1145 99.977C2.29045 159.2 -13.7353 260.493 12.7654 329.7C15.5251 336.909 17.7836 344.363 17.7836 346.269C17.7836 348.172 19.948 352.851 22.5929 356.663C25.2377 360.475 29.2037 367.117 31.4047 371.425C33.6083 375.733 37.5403 383.37 40.146 388.396C45.9709 399.639 99.7034 453.797 110.471 459.28C124.669 466.512 144.368 477.773 146.893 480.102C148.258 481.36 151.172 482.389 153.371 482.389C155.569 482.389 163.263 484.647 170.472 487.407C214.317 504.198 285.992 504.198 329.837 487.407C337.045 484.647 344.74 482.389 346.938 482.389C349.136 482.389 352.05 481.36 353.416 480.102C355.893 477.814 375.225 466.744 389.632 459.361C400.365 453.859 449.116 405.075 457.693 391.25C463.993 381.096 469.557 371.18 479.071 353.149C508.177 297.986 505.01 197.249 472.301 137.749C467.959 129.851 461.967 118.927 458.988 113.47C456.009 108.016 451.86 102.896 449.771 102.094C447.683 101.293 445.972 99.2616 445.972 97.5802C445.972 95.8988 443.918 92.6169 441.403 90.2827C438.889 87.9512 429.827 78.8783 421.263 70.1213C412.699 61.3643 404.24 54.2 402.464 54.2C400.689 54.2 398.297 52.6073 397.148 50.6648C394.54 46.2472 376.078 34.5399 357.202 25.3338C307.801 1.24297 259.731 -5.43051 205.769 4.30817ZM333.677 73.5546C350.8 81.5231 385.922 106.468 385.922 110.661C385.922 112.635 387.472 114.251 389.365 114.251C407.14 114.251 443.283 196.233 445.44 241.436C447.254 279.466 442.743 288.474 432.644 266.989C429.607 260.527 426.075 255.24 424.798 255.24C423.519 255.24 422.474 253.739 422.474 251.903C422.474 250.068 420.419 246.658 417.905 244.326C415.391 241.992 409.083 235.564 403.887 230.037C391.987 217.39 371.783 200.346 364.256 196.604C359.097 194.043 358.335 191.072 356.836 167.707C354.708 134.511 351.789 121.044 343.554 106.418C330.273 82.8286 299.07 72.1187 281.488 85.1157C277.295 88.2149 272.642 90.7527 271.146 90.7527C269.653 90.7527 268.431 92.3715 268.431 94.3505C268.431 96.327 266.726 99.3609 264.642 101.089C249.068 114.016 267.18 161.247 287.712 161.247C296.918 161.247 302.372 163.845 302.372 168.229C302.372 170.667 300.725 171.524 297.803 170.605C276.981 164.057 242.314 162.216 217.518 166.344C201.367 169.03 202.051 169.897 205.92 151.66C220.184 84.4421 279.347 48.2732 333.677 73.5546ZM182.271 69.4607C182.271 70.6748 179.921 73.7948 177.049 76.3927C174.177 78.9906 171.827 82.8103 171.827 84.8808C171.827 86.9486 169.644 91.7605 166.976 95.5724C164.308 99.3844 161.454 105.439 160.637 109.029C159.817 112.619 156.713 122.493 153.736 130.974C150.762 139.454 148.191 152.378 148.021 159.694C147.454 184.033 145.773 187.419 130.053 195.865C122.155 200.111 115.301 204.633 114.823 205.915C114.343 207.194 112.335 208.244 110.361 208.244C108.387 208.244 100.638 214.656 93.1396 222.494C65.2238 251.679 62.9731 285.059 87.6514 303.881C118.766 327.614 163.652 297.973 153.53 260.381C151.916 254.391 151.183 248.903 151.901 248.188C154.577 245.512 158.428 250.35 160.13 258.532C161.099 263.185 164.125 270.874 166.859 275.623C169.592 280.372 171.827 285.55 171.827 287.127C171.827 288.704 174.764 293.845 178.354 298.552C181.944 303.26 184.882 308.304 184.882 309.766C184.882 311.226 186.459 313.359 188.388 314.507C194.759 318.304 201.531 331.016 198.696 333.852C190.563 341.985 139.671 346.457 117.502 340.99C34.9268 320.622 34.2662 186.056 116.358 108.679C137.47 88.7815 182.271 62.1241 182.271 69.4607ZM283.77 222.93C293.994 224.974 294.409 231.212 285.37 247.021C281.799 253.271 278.874 259.527 278.874 260.926C278.874 264.636 255.389 294.563 251.22 296.161C249.272 296.91 246.097 295.939 244.168 294.004C238.998 288.824 221.437 263.451 221.424 261.14C221.419 260.049 218.481 253.376 214.897 246.313C207.218 231.178 206.678 224.737 212.949 223.097C220.069 221.238 274.66 221.107 283.77 222.93ZM360.353 263.725C372.094 274.955 385.922 292.419 385.922 296.017C385.922 297.095 388.564 303.341 391.796 309.897C408.135 343.052 393.893 387.501 359.246 411.484C294.642 456.204 208.168 456.345 141.196 411.834C122.784 399.597 123.484 398.84 153.206 398.84C179.057 398.84 216.427 389.72 232.792 379.42C242.16 373.522 249.363 372.318 253.144 376.02C280.271 402.594 342.954 410.463 364.402 389.989C400.18 355.833 353.23 292.826 314.628 323.191C311.025 326.027 306.793 328.345 305.224 328.345C303.657 328.345 302.372 330.695 302.372 333.567C302.372 339.183 298.558 340.567 295.723 335.977C294.767 334.431 296.166 331.113 298.832 328.601C301.498 326.089 305.72 321.186 308.216 317.706C323.111 296.92 328.482 289.119 328.482 288.26C328.482 284.646 344.651 252.629 346.476 252.629C347.727 252.629 353.972 257.621 360.353 263.725Z" fill="black"/>
</svg>
