<svg width="788" height="788" viewBox="0 0 788 788" fill="none" xmlns="http://www.w3.org/2000/svg">
<g clip-path="url(#clip0_1_92)">
<path d="M394 787.59C611.6 787.59 788 611.191 788 393.59C788 175.99 611.6 -0.409546 394 -0.409546C176.4 -0.409546 0 175.99 0 393.59C0 611.191 176.4 787.59 394 787.59Z" fill="#7A57DD"/>
<path d="M393.918 130.896V325.03L557.989 398.341L393.918 130.896Z" fill="white" fill-opacity="0.602"/>
<path d="M393.918 130.896L229.847 398.423L394 325.111V130.896H393.918Z" fill="white"/>
<path d="M393.918 524.241V656.121L558.153 428.977L393.918 524.241Z" fill="white" fill-opacity="0.602"/>
<path d="M393.918 656.121V524.241L229.847 428.977L393.918 656.121Z" fill="white"/>
<path d="M393.918 493.688L557.989 398.423L393.918 325.111V493.688Z" fill="white" fill-opacity="0.2"/>
<path d="M229.847 398.423L394 493.688V325.111L229.847 398.423Z" fill="white" fill-opacity="0.602"/>
</g>
<defs>
<clipPath id="clip0_1_92">
<rect width="788" height="788" fill="white"/>
</clipPath>
</defs>
</svg>
