<?xml version="1.0" encoding="utf-8"?>
<!-- Generator: Adobe Illustrator 24.3.0, SVG Export Plug-In . SVG Version: 6.00 Build 0)  -->
<svg version="1.1" id="Layer_1" xmlns="http://www.w3.org/2000/svg" xmlns:xlink="http://www.w3.org/1999/xlink" x="0px" y="0px"
	 viewBox="0 0 50 50" style="enable-background:new 0 0 50 50;" xml:space="preserve">
<style type="text/css">
	.st0{fill:#EFF4F4;}
	.st1{fill:url(#SVGID_1_);}
	.st2{fill:url(#SVGID_2_);}
	.st3{fill:url(#SVGID_3_);}
	.st4{fill:url(#SVGID_4_);}
	.st5{fill:url(#SVGID_5_);}
	.st6{fill:#5E1B87;}
</style>
<circle class="st0" cx="25" cy="25" r="24"/>
<g>
	<linearGradient id="SVGID_1_" gradientUnits="userSpaceOnUse" x1="20.2833" y1="24.5957" x2="48.8577" y2="28.0914">
		<stop  offset="3.336984e-02" style="stop-color:#EA6063"/>
		<stop  offset="0.3931" style="stop-color:#DF48B4"/>
		<stop  offset="0.6561" style="stop-color:#D93BE0"/>
		<stop  offset="0.7902" style="stop-color:#E75A78"/>
		<stop  offset="0.9942" style="stop-color:#FFFFFF"/>
	</linearGradient>
	<path class="st1" d="M14,40.4l17.2-17.3c0,0,1.2-3.8-2.3-4.1c-3.9,0.1-16.3,0.1-16.3,0.1s-1.4-0.1-0.5-1.6c1.3-1.7,0.4-0.4,7.8-8.1
		c8.8-9,29,3,18.4,16.1C21,43.7,21.1,44.6,16.5,43c-2.2-0.8-2.5-1-2.5-1S12.8,41.5,14,40.4z"/>
	<linearGradient id="SVGID_2_" gradientUnits="userSpaceOnUse" x1="4.2399" y1="18.2446" x2="16.5812" y2="18.2446">
		<stop  offset="0" style="stop-color:#4F4CDB"/>
		<stop  offset="0.981" style="stop-color:#8E29E8;stop-opacity:0.69"/>
	</linearGradient>
	<path class="st2" d="M21,12.8l-8,0c0,0-4.4-0.4-4.2,4.3c-0.2,5.2-0.1,5.8-0.1,5.8s0.4,1.5,1.9,0.3C12.2,22.1,21,12.8,21,12.8z"/>
	<linearGradient id="SVGID_3_" gradientUnits="userSpaceOnUse" x1="14.2674" y1="19.7047" x2="34.4544" y2="10.7476">
		<stop  offset="0" style="stop-color:#FFFFFF"/>
		<stop  offset="0.9823" style="stop-color:#DD44C1"/>
	</linearGradient>
	<path class="st3" d="M24.3,19.1l4.5-4.7c0,0,1.7-1.6-0.7-1.6c-1.7,0-7.1,0-7.1,0l-6.2,6.4L24.3,19.1z"/>
	<linearGradient id="SVGID_4_" gradientUnits="userSpaceOnUse" x1="23.7619" y1="18.5098" x2="30.0775" y2="15.7076">
		<stop  offset="0" style="stop-color:#B4457F"/>
		<stop  offset="0.9823" style="stop-color:#DD44C1"/>
	</linearGradient>
	<polygon class="st4" points="24.3,19.1 25.3,19.1 28,15.3 	"/>
	<linearGradient id="SVGID_5_" gradientUnits="userSpaceOnUse" x1="22.9351" y1="15.2192" x2="24.2978" y2="15.2192">
		<stop  offset="0" style="stop-color:#9533CB"/>
		<stop  offset="0.9836" style="stop-color:#6E2EA3"/>
	</linearGradient>
	<circle class="st5" cx="23.6" cy="15.2" r="0.7"/>
	<path class="st6" d="M24.3,15.2c0-0.4-0.3-0.7-0.7-0.7c-0.2,0-0.5,0.1-0.6,0.3c0.1-0.1,0.3-0.2,0.5-0.2c0.4,0,0.7,0.3,0.7,0.7
		c0,0.1,0,0.3-0.1,0.4C24.2,15.6,24.3,15.4,24.3,15.2z"/>
</g>
</svg>
