<svg width="499" height="500" viewBox="0 0 499 500" fill="none" xmlns="http://www.w3.org/2000/svg">
<path fill-rule="evenodd" clip-rule="evenodd" d="M118.084 116.177C18.935 215.344 -3.07126 238.752 2.84619 238.752C5.29789 238.752 187.06 190.524 187.817 189.672C189.707 187.546 238.112 9.94543 238.112 5.13445C238.112 -3.76099 236.628 -2.39009 118.084 116.177ZM247.244 13.4779C230.99 70.4011 199.65 185.744 200.268 186.363C201.668 187.759 329.192 153.523 332.458 150.873C338.706 145.803 335.243 138.196 295.394 69.4614C250.817 -7.42185 252.614 -5.3347 247.244 13.4779ZM297.679 62.2552C339.207 133.937 346.452 144.532 361.739 155.928C376.167 166.685 495.751 236.049 497.289 234.552C498.632 233.248 265.997 0 263.353 0C262.395 0 277.845 28.0161 297.679 62.2552ZM262.501 176.417C227.201 185.693 198.014 193.52 197.64 193.805C195.732 195.274 160.98 324.8 161.624 328.045C163.965 339.824 169.793 339.241 236.828 320.534C272.128 310.681 301.928 301.713 303.053 300.604C305.43 298.26 338.234 175.442 338.234 168.885C338.234 165.304 330.686 158.608 327.492 159.358C327.046 159.463 297.8 167.139 262.501 176.417ZM351.894 167.355C348.818 168.841 345.109 173.095 343.653 176.807C338.085 191.002 311.843 295.37 313.442 296.966C315.255 298.779 494.755 249.814 498.195 246.569C500.234 244.646 364.581 164.136 359.883 164.477C358.566 164.572 354.972 165.866 351.894 167.355ZM91.78 221.082C-8.95534 247.825 -0.937899 245.255 0.954147 250.186C3.24668 256.163 128.64 333.739 136.008 333.739C139.484 333.739 144.293 331.57 146.693 328.918C150.618 324.58 184.2 210.397 184.2 201.389C184.2 196.336 188.244 195.476 91.78 221.082ZM399.103 284.898C349.979 298.697 309.183 310.588 308.446 311.325C305.704 314.069 258.121 498.368 259.738 499.985C261.89 502.139 497.402 266.814 497.402 262.509C497.402 257.475 493.813 258.294 399.103 284.898ZM116.169 380.268C219.286 484.279 234.536 499.12 228.947 490.032C164.689 385.567 151.448 366.882 127.86 347.4C113.637 335.655 16.6784 272.632 8.59935 269.882C7.04874 269.353 55.4538 319.027 116.169 380.268ZM234.438 330.859C147.586 355.273 150.295 345.703 205.282 433.861C243.675 495.416 248.229 501.859 251.146 498.745C253.092 496.668 299.725 321.437 299.725 316.205C299.725 312.249 304.31 311.22 234.438 330.859Z" fill="black"/>
</svg>
