<svg width="788" height="788" viewBox="0 0 788 788" fill="none" xmlns="http://www.w3.org/2000/svg">
<g clip-path="url(#clip0_1_111)">
<path d="M393.697 787.849C611.609 787.849 788.151 611.494 788.151 394.151C788.151 176.808 611.609 0.302368 393.697 0.302368C175.784 0.302368 -0.757812 176.657 -0.757812 394C-0.757812 611.343 175.784 787.849 393.697 787.849Z" fill="#2C7DF7"/>
<path d="M431.581 620.267C399.607 620.267 376.421 612.553 361.722 597.277C348.084 584.27 340.204 566.422 339.749 547.668C339.597 541.92 340.961 536.324 343.537 531.333C346.114 526.947 349.599 523.317 353.994 520.897C358.994 518.326 364.601 517.116 370.36 517.116C375.967 517.116 381.574 518.477 386.726 520.897C391.121 523.317 394.606 526.947 397.182 531.333C399.91 536.324 401.274 542.072 401.122 547.668C401.425 554.474 399.455 561.28 395.515 566.876C392.181 571.414 387.635 574.892 382.18 576.556C387.484 583.211 394.909 587.9 403.092 589.563C412.336 592.286 422.034 593.647 431.733 593.647C444.462 593.798 457.04 590.017 467.647 582.908C478.71 575.195 486.893 564.002 491.136 551.146C496.44 535.87 499.016 519.838 498.864 503.655C499.319 486.866 496.44 470.078 490.53 454.348C485.984 441.794 477.497 430.905 466.284 423.645C455.827 416.99 443.704 413.662 431.43 413.662C420.671 414.57 410.214 418.048 401.122 423.947L378.694 435.139V423.947L479.467 289.034H339.749V429.09C339.294 439.223 342.022 449.205 347.477 457.675C350.054 461.457 353.69 464.33 357.782 466.296C361.874 468.263 366.42 469.17 370.966 468.868C379.3 468.716 387.484 465.843 394.151 460.7C401.728 455.255 408.244 448.449 413.548 440.736C414.003 439.374 414.912 438.164 416.124 437.408C417.034 436.652 418.246 436.198 419.458 436.198C421.883 436.349 424.156 437.408 425.974 438.921C428.247 441.492 429.611 444.971 429.46 448.449C429.157 450.869 428.702 453.138 428.247 455.407C423.247 467.355 414.912 477.64 404.304 485.051C394.454 491.706 382.634 495.336 370.663 495.185C340.355 495.185 319.443 489.286 307.774 477.338C301.713 470.834 297.167 463.12 294.136 454.65C291.105 446.332 289.893 437.408 290.347 428.485V288.732H219.276V262.717H290.954V203.428L274.587 187.093V173.784H322.019L339.9 183.01V262.717L524.474 262.112L542.811 280.564L429.611 394C436.43 391.278 443.704 389.463 450.978 388.858C465.526 389.463 479.619 393.546 492.348 400.655C507.047 407.612 519.322 418.653 527.96 432.417C535.688 444.063 541.144 457.07 544.023 470.683C546.447 481.421 547.66 492.462 547.811 503.503C547.811 524.527 543.114 545.248 533.87 564.154C525.08 582.455 510.23 597.277 491.894 606.049C473.254 615.578 452.494 620.267 431.581 620.267Z" fill="white"/>
</g>
<defs>
<clipPath id="clip0_1_111">
<rect width="788" height="788" fill="white"/>
</clipPath>
</defs>
</svg>
