<?xml version="1.0" encoding="utf-8"?>
<!-- Generator: Adobe Illustrator 25.2.1, SVG Export Plug-In . SVG Version: 6.00 Build 0)  -->
<svg version="1.1" id="Layer_1" xmlns="http://www.w3.org/2000/svg" xmlns:xlink="http://www.w3.org/1999/xlink" x="0px" y="0px"
	 viewBox="0 0 226.8 226.8" style="enable-background:new 0 0 226.8 226.8;" xml:space="preserve">
<g>
	<path d="M113.3,116.4c29.5,0,59,0,88.6,0c6.3-0.5,12.5,4.1,12.5,10.6c0.3,6.6-5.5,11.9-12,11.4c-16.1,0-32.2,0-48.4,0
		c-2.6,0-2.5-0.3-3.5,2.5c-9.9,26.1-19.8,52.2-29.7,78.2c-3.3,9.3-17.7,10.5-22-0.5c-9.7-26.1-19.7-52.2-29.6-78.2c-0.8-2-0.8-2-3-2
		c-14,0-28.1,0-42.1,0c-6.8,0.6-12.9-5.9-11.7-12.4c1-6.4,6.8-10.1,13-9.5C54.8,116.5,84.1,116.5,113.3,116.4
		C113.3,116.5,113.3,116.5,113.3,116.4z M109.8,185.4c0.1,0,0.3,0,0.4,0c5.8-15.6,12.1-31,17.5-46.8c-11.9-0.3-23.8-0.5-35.6,0.1
		C98,154.4,103.9,169.9,109.8,185.4z"/>
	<path d="M175.9,74.3c12.5,2.1,41.2-7,38.1,14.1c-1.4,5.4-6.6,8.3-11.9,8c-35.9,0-71.7,0-107.6,0c-23.3,0-46.7,0-70,0
		c-3,0-5.8-0.7-8.2-2.7c-7.6-5.8-3.1-19.3,6.5-19.2c7.2-0.1,14.2,0,21.4,0C41.2,60.3,16,13.9,22.9,5.3C32.7-6.5,43,4,45.4,15.5
		C53.7,34.6,59,57,68.9,74.4c27,0,54,0,80.9,0c1.2,0,2.6,0.1,3-1.4c8.2-21.7,16.4-43.4,24.6-65.1c4.3-13.8,26-6.6,20.8,7.1
		C190.9,34.9,183.1,54.4,175.9,74.3z"/>
</g>
</svg>
