<svg width="40" height="40" viewBox="0 0 40 40" fill="none" xmlns="http://www.w3.org/2000/svg">
<g clip-path="url(#clip0_31_84)">
<path d="M39.4007 24.8406C36.7311 35.5538 25.8771 42.0742 15.1607 39.4006C4.4443 36.727 -2.0731 25.8784 0.600703 15.1642C3.2745 4.45004 14.1231 -2.07335 24.8371 0.600645C35.5511 3.27464 42.0745 14.1238 39.4007 24.8406Z" fill="#F6543E" fill-opacity="0.1"/>
<path d="M27.0207 16.2519C26.7584 13.9512 24.7555 13.2133 22.2396 13.0372L22.1848 9.8404L20.2384 9.87481L20.2914 12.9877C19.7803 12.9967 19.2576 13.0152 18.7384 13.0353L18.6829 9.90248L16.7384 9.9364L16.7951 13.1315L12.8718 13.206L12.9085 15.2845C12.9085 15.2845 14.3451 15.232 14.3216 15.259C15.1098 15.2455 15.3748 15.6984 15.456 16.0921L15.6085 24.8492C15.5782 25.0978 15.4393 25.4957 14.8885 25.5054C14.9139 25.5271 13.4735 25.5282 13.4735 25.5282L13.1282 27.8619L17.0505 27.8051L17.1077 31.0387L19.0514 31.005L18.996 27.8058C19.5308 27.8072 20.0463 27.8027 20.5502 27.7935L20.6049 30.9778L22.5509 30.9435L22.4953 27.7158C25.7637 27.4707 28.0394 26.6065 28.2693 23.5317C28.4557 21.0542 27.2734 19.9706 25.4083 19.5567C26.5262 18.9614 27.2139 17.9372 27.0195 16.2534L27.0207 16.2519ZM24.4176 23.2136C24.4593 25.63 20.3188 25.4276 18.9992 25.4515L18.925 21.1677C20.2442 21.145 24.3727 20.6937 24.4182 23.2131L24.4176 23.2136ZM23.4088 17.1853C23.4468 19.3844 19.9916 19.1877 18.8924 19.2068L18.8233 15.3209C19.9229 15.3021 23.3678 14.8925 23.4074 17.1855" fill="#F6543E"/>
</g>
<defs>
<clipPath id="clip0_31_84">
<rect width="40" height="40" fill="white"/>
</clipPath>
</defs>
</svg>
