<svg width="40" height="40" viewBox="0 0 40 40" fill="none" xmlns="http://www.w3.org/2000/svg">
<path d="M39.8867 20.0003C39.8867 30.9879 30.9797 39.8951 19.9923 39.8951C9.00472 39.8951 0.0976562 30.9879 0.0976562 20.0003C0.0976562 9.01292 9.00472 0.105848 19.9923 0.105848C30.9796 0.105848 39.8867 9.01292 39.8867 20.0003Z" fill="#4B70FF" fill-opacity="0.15"/>
<g opacity="0.8">
<path d="M19.9276 10.7692L19.8047 11.1869V23.3066L19.9276 23.4293L25.5534 20.1038L19.9276 10.7692Z" fill="#4B70FF"/>
<path d="M19.9325 10.7692L14.3066 20.1038L19.9325 23.4293V17.5468V10.7692Z" fill="#4B70FF"/>
<path d="M19.9325 25.2597L19.8633 25.3441V29.6614L19.9325 29.8636L25.5617 21.9359L19.9325 25.2597Z" fill="#4B70FF"/>
<path d="M19.9325 29.8636V25.2597L14.3066 21.9359L19.9325 29.8636Z" fill="#4B70FF"/>
<path d="M19.9316 23.4292L25.5574 20.1039L19.9316 17.5468V23.4292Z" fill="#4B70FF"/>
<path d="M14.3066 20.1038L19.9323 23.4293V17.5468L14.3066 20.1038Z" fill="#4B70FF"/>
</g>
</svg>
