<svg width="166" height="43" viewBox="0 0 166 43" fill="none" xmlns="http://www.w3.org/2000/svg">
<path d="M1 19.1994C3.23544 17.8572 8.19405 15.2734 10.145 15.6761C12.5836 16.1794 15.632 23.7294 18.0706 25.7427C20.5093 27.756 22.6605 5.63629 31.4833 7.62282C38.1896 9.13282 35.2252 27.8631 48.5539 33.796C53.4312 35.967 65.0149 -0.933793 69.2825 1.07953C73.5502 3.09285 83.3048 20.7094 83.3048 20.7094C83.3048 20.7094 96.1078 46.3793 102.204 41.346C107.082 37.3193 110.74 29.266 115.617 24.7361C120.494 20.2061 127.403 32.5696 136.346 32.7893C154.297 33.2304 147.929 5.10616 165 3.09284" stroke="#FF060A" stroke-width="2" stroke-linecap="round"/>
</svg>
