<svg width="48" height="48" viewBox="0 0 48 48" fill="none" xmlns="http://www.w3.org/2000/svg">
<path d="M47.864 24.0004C47.864 37.1855 37.1756 47.8741 23.9907 47.8741C10.8057 47.8741 0.117188 37.1855 0.117188 24.0004C0.117188 10.8155 10.8057 0.127014 23.9907 0.127014C37.1755 0.127014 47.864 10.8155 47.864 24.0004Z" fill="white" fill-opacity="0.2"/>
<g opacity="0.8">
<path d="M23.9131 12.9231L23.7656 13.4243V27.9679L23.9131 28.1151L30.6641 24.1246L23.9131 12.9231Z" fill="white"/>
<path d="M23.919 12.9231L17.168 24.1246L23.919 28.1151V21.0561V12.9231Z" fill="white"/>
<path d="M23.919 30.3116L23.8359 30.4129V35.5936L23.919 35.8363L30.6741 26.3231L23.919 30.3116Z" fill="white"/>
<path d="M23.919 35.8364V30.3116L17.168 26.3231L23.919 35.8364Z" fill="white"/>
<path d="M23.918 28.1151L30.6689 24.1246L23.918 21.0561V28.1151Z" fill="white"/>
<path d="M17.168 24.1246L23.9188 28.1151V21.0561L17.168 24.1246Z" fill="white"/>
</g>
</svg>
