<svg width="40" height="40" viewBox="0 0 40 40" fill="none" xmlns="http://www.w3.org/2000/svg">
<path d="M39.8867 20.0004C39.8867 30.9879 30.9797 39.8951 19.9923 39.8951C9.00472 39.8951 0.0976562 30.9879 0.0976562 20.0004C0.0976562 9.01292 9.00472 0.10585 19.9923 0.10585C30.9796 0.10585 39.8867 9.01292 39.8867 20.0004Z" fill="#2C7DF7" fill-opacity="0.15"/>
<g clip-path="url(#clip0_31_129)">
<path d="M21.5196 29.8253C20.1213 29.8253 19.1028 29.485 18.4629 28.8044C17.8237 28.1241 17.5037 27.3903 17.5037 26.6041C17.5037 26.3166 17.5594 26.0747 17.6709 25.8781C17.7798 25.6842 17.9378 25.5235 18.1285 25.4128C18.3219 25.2994 18.5597 25.2428 18.8425 25.2428C19.1252 25.2428 19.3628 25.2994 19.5564 25.4128C19.7497 25.5262 19.9021 25.6816 20.0137 25.8781C20.1253 26.0747 20.1809 26.3166 20.1809 26.6041C20.1809 26.9519 20.0991 27.2353 19.9356 27.4547C19.7718 27.6741 19.5785 27.8175 19.3554 27.8859C19.549 28.1578 19.8539 28.3506 20.2703 28.4641C20.6867 28.5853 21.1032 28.6456 21.5196 28.6456C22.0995 28.6456 22.6238 28.4869 23.0925 28.1694C23.5609 27.8516 23.9069 27.3828 24.1301 26.7628C24.3532 26.1428 24.4647 25.4394 24.4647 24.6528C24.4647 23.7984 24.3418 23.0684 24.0966 22.4637C23.8584 21.8512 23.5053 21.3975 23.0366 21.1025C22.5824 20.8119 22.0563 20.6585 21.5196 20.6603C21.1625 20.6603 20.7166 20.8116 20.1809 21.1141L19.1993 21.6131V21.1141L23.6168 15.125H17.5037V21.3406C17.5037 21.855 17.6153 22.2784 17.8384 22.6112C18.0615 22.9441 18.4036 23.1103 18.8649 23.1103C19.2214 23.1103 19.5638 22.9894 19.8911 22.7472C20.2205 22.5029 20.507 22.2039 20.7387 21.8628C20.7685 21.7944 20.8057 21.7453 20.8502 21.715C20.8903 21.679 20.9418 21.6589 20.9953 21.6584C21.0771 21.6584 21.1736 21.7 21.2854 21.7834C21.3896 21.9041 21.4415 22.0441 21.4415 22.2028C21.4287 22.3097 21.4101 22.4158 21.3856 22.5206C21.133 23.0953 20.7832 23.5337 20.337 23.8362C19.9026 24.1351 19.3894 24.2932 18.8649 24.29C17.5409 24.29 16.626 24.0253 16.1205 23.4962C15.6149 22.9666 15.362 22.2481 15.362 21.3409V15.125H12.2383V13.9678H15.362V11.3366L14.648 10.61V10.0206H16.7228L17.5034 10.4287V13.9678L25.58 13.9453L26.3834 14.7619L21.4305 19.7981C21.7303 19.6766 22.046 19.6002 22.3675 19.5712C22.9029 19.5712 23.5053 19.7453 24.1746 20.0931C24.8514 20.4334 25.372 20.9025 25.7362 21.4994C26.1006 22.0894 26.3348 22.6566 26.439 23.2009C26.5506 23.7456 26.6065 24.2294 26.6065 24.6528C26.6065 25.6209 26.4055 26.5206 26.0041 27.3528C25.6025 28.1844 24.9927 28.8044 24.1746 29.2128C23.3565 29.6212 22.4714 29.8253 21.5196 29.8253Z" fill="#0066FF"/>
</g>
<defs>
<clipPath id="clip0_31_129">
<rect width="14.4444" height="20" fill="white" transform="translate(12.2227 10)"/>
</clipPath>
</defs>
</svg>
