<svg width="40" height="40" viewBox="0 0 40 40" fill="none" xmlns="http://www.w3.org/2000/svg">
<path d="M39.8867 20.0004C39.8867 30.9879 30.9797 39.8951 19.9923 39.8951C9.00472 39.8951 0.0976562 30.9879 0.0976562 20.0004C0.0976562 9.01292 9.00472 0.10585 19.9923 0.10585C30.9796 0.10585 39.8867 9.01292 39.8867 20.0004Z" fill="#FF060A" fill-opacity="0.15"/>
<g clip-path="url(#clip0_31_143)">
<path d="M28.3105 16.9225C27.4668 16.1434 26.2996 14.9537 25.349 14.11L25.2927 14.0706C25.1991 13.9955 25.0936 13.9365 24.9805 13.8962C22.6884 13.4687 12.0205 11.4747 11.8124 11.5C11.7541 11.5082 11.6984 11.5293 11.6493 11.5619L11.5959 11.6041C11.5301 11.6709 11.4801 11.7516 11.4496 11.8403L11.4355 11.8769V12.0766V12.1075C12.6365 15.4516 17.3784 26.4062 18.3121 28.9769C18.3684 29.1512 18.4752 29.4831 18.6749 29.5H18.7199C18.8268 29.5 19.2824 28.8981 19.2824 28.8981C19.2824 28.8981 27.4274 19.0206 28.2515 17.9687C28.3582 17.8392 28.4523 17.6998 28.5327 17.5525C28.5533 17.4372 28.5436 17.3186 28.5046 17.2082C28.4657 17.0978 28.3988 16.9994 28.3105 16.9225ZM21.3721 18.0728L24.8484 15.19L26.8874 17.0687L21.3721 18.0728ZM20.0221 17.8844L14.0371 12.9794L23.7205 14.7653L20.0221 17.8844ZM20.5621 19.1697L26.6877 18.1825L19.6846 26.62L20.5621 19.1697ZM13.2243 13.4687L19.5215 18.8125L18.6102 26.6256L13.2243 13.4687Z" fill="#FF060A"/>
</g>
<defs>
<clipPath id="clip0_31_143">
<rect width="18" height="18" fill="white" transform="translate(11 11.5)"/>
</clipPath>
</defs>
</svg>
