<svg xmlns="http://www.w3.org/2000/svg" width="154" height="36" fill="none"><path d="M54.846 22.156c-1.177 1.265-2.383 1.883-3.707 1.883-2.53 0-4.502-2.089-4.502-4.767 0-2.707 1.912-4.796 4.384-4.796 1.824 0 3.001.971 3.796 1.825l.147.176 1.53-1.618-.147-.147c-1.03-1.089-2.56-2.354-5.297-2.354-3.766 0-6.826 3.119-6.826 6.944 0 3.884 3.001 6.944 6.826 6.944 2.766 0 4.355-1.383 5.414-2.56l.147-.177-1.588-1.47-.177.117zM64.732 12.329c-1.736 0-3.148.677-4.178 2.03V7.151L58.2 8.298v17.566h2.354v-7.562c0-2.236 1.5-3.795 3.648-3.795 2.09 0 3.325 1.382 3.325 3.648v7.738h2.354v-8.209c0-3.266-2-5.355-5.149-5.355zM77.737 12.389c-2.03 0-3.501.53-4.767 1.118l-.176.088.735 1.972.206-.089c1.383-.617 2.53-.912 3.825-.912 2.354 0 3.59 1.118 3.59 3.266v.118c-.97-.265-2.089-.47-3.707-.47-3.59 0-5.708 1.647-5.708 4.413 0 2.795 2.53 4.266 5.031 4.266 2.148 0 3.53-.912 4.413-1.824v1.53h2.325v-8.062c0-1.707-.47-3.001-1.412-3.943-1-.941-2.501-1.471-4.355-1.471zm3.413 7.532v1.03c0 1.854-1.736 3.237-4.06 3.237-1.442 0-3.002-.736-3.002-2.354 0-1.5 1.325-2.413 3.531-2.413 1.53 0 2.737.265 3.531.5zM92.802 12.328c-1.736 0-3.148.677-4.178 2.03v-1.736H86.27v13.3h2.354V18.3c0-2.237 1.5-3.796 3.648-3.796 2.09 0 3.325 1.383 3.325 3.648v7.739h2.354v-8.21c0-3.265-2.03-5.354-5.149-5.354zM110.96 14.506c-1.265-1.442-2.883-2.177-4.796-2.177-1.589 0-3.177.617-4.325 1.677-1.265 1.177-1.942 2.795-1.942 4.62 0 1.794.677 3.442 1.942 4.619 1.148 1.059 2.736 1.677 4.325 1.677 1.913 0 3.502-.765 4.826-2.295v.883c0 2.765-1.619 4.354-4.443 4.354-1.736 0-3.354-.53-4.826-1.589l-.206-.147-1.088 1.883.176.118c1.736 1.206 3.766 1.824 5.973 1.824 2.148 0 3.884-.618 5.061-1.794 1.118-1.148 1.707-2.707 1.707-4.708V12.594h-2.354v1.912h-.03zm.089 4.09c0 2.619-2.295 4.178-4.502 4.178-2.384 0-4.237-1.824-4.237-4.149 0-2.412 1.765-4.148 4.237-4.148 2.207-.03 4.502 1.53 4.502 4.119zM121.9 12.328c-3.649 0-6.385 2.972-6.385 6.944s2.854 6.944 6.65 6.944c2.236 0 3.913-.765 5.472-2.501l.147-.177-1.53-1.353-.147.147c-1.147 1.206-2.383 1.736-3.884 1.736-2.265 0-3.942-1.53-4.266-3.825h10.151l.03-.206c.029-.294.029-.5.029-.677-.029-4.207-2.53-7.032-6.267-7.032zm3.825 5.944h-7.797c.353-2.295 1.942-3.884 3.942-3.884 2.442 0 3.59 1.942 3.855 3.884zM130.35 25.894h2.354V7.975l-2.354 1.177v16.742zM135.79 25.893h2.354V7.15l-2.354 1.177v17.566zM150.68 12.594l-4.002 10.357-4.531-10.357h-2.589l5.943 13.035c-.794 1.824-1.471 2.177-2.383 2.177-.765 0-1.294-.117-1.912-.441l-.206-.118-.824 1.942.176.089c.971.47 1.795.676 2.825.676 2.089 0 3.384-1.088 4.472-3.766l5.532-13.594h-2.501z" fill="#181c1f"/><path d="M37.705.059c-.147 0-3.413.147-7.474 1.118C24.73 2.472 20.61 4.62 18.08 7.532a65.797 65.797 0 0 0-1.56 1.854c-1 .265-3.765 1.03-5.03 1.265a2.87 2.87 0 0 0-1.795 1.177c-.912 1.324-2.501 4.031-2.56 4.149L5.31 19.096l3.325-1.442c1.441-.647 3.471-1.088 4.06-.735.03.029.059.029.088.206 0 .941.236 1.853.677 2.765a3.533 3.533 0 0 0-1.353 2.972v4.06h4.06c1.147.06 2.236-.47 2.972-1.353a6.713 6.713 0 0 0 2.766.677c.147.03.176.059.176.088.353.589-.088 2.619-.736 4.06l-1.441 3.296 3.119-1.824c.117-.06 2.824-1.648 4.148-2.56a2.796 2.796 0 0 0 1.177-1.795c.265-1.265 1-4.031 1.265-5.031.589-.471 1.207-1 1.854-1.56 6.826-6.032 7.444-19.096 7.474-19.655L39 0l-1.295.059zM13.254 14.624c-.765-.236-1.648-.206-2.501-.059.324-.53.647-1.03.912-1.412.059-.118.177-.177.324-.206.588-.118 1.5-.353 2.412-.56-.53.795-.882 1.53-1.147 2.237zm4.002 9.445a1.19 1.19 0 0 1-1.03.47h-.383l2.442-3.824-3.825 2.471v-.412c-.029-.412.147-.794.471-1.03l4.678-3.707c.236-.206.56-.353.854-.412l1.236-.294-.295 1.236c-.088.323-.206.618-.412.853l-3.736 4.649zm8.768 2.972a.56.56 0 0 1-.206.323c-.383.265-.883.589-1.413.912.148-.853.177-1.736-.058-2.5a12.172 12.172 0 0 0 2.236-1.119c-.206.883-.442 1.766-.56 2.384zm3.884-7.886c-4.06 3.59-6.297 4.649-7.915 4.708h-.059c-.5 0-.912-.088-1.324-.236l2.177-2.765c.412-.53.706-1.118.883-1.766l1.177-4.943-4.943 1.177a4.293 4.293 0 0 0-1.766.853l-2.766 2.178a3.787 3.787 0 0 1-.235-1.324v-.06c.03-1.588 1.118-3.854 4.708-7.914C24.17 4.149 33.115 2.825 36.469 2.5c-.324 3.384-1.648 12.328-6.562 16.654z" fill="#10D078"/><path d="M11.622 32.736c-1.5.294-3.03.383-4.56.412-.883 0-1.766-.03-2.678-.118.353-.588.677-1.177.97-1.795.56-1.265.972-2.53 1.295-3.825a32.365 32.365 0 0 1 1.09-3.648 45.9 45.9 0 0 1 1.411-3.62c-.47.472-.882.972-1.265 1.501-.382.53-.765 1.089-1.118 1.648-.677 1.118-1.265 2.354-1.765 3.56-.471 1.177-.971 2.354-1.56 3.413a16.95 16.95 0 0 1-2.089 2.972L0 34.825l2.089.294c1.648.236 3.325.353 5.002.295.853-.03 1.677-.089 2.53-.236a17.67 17.67 0 0 0 2.472-.559 15.582 15.582 0 0 0 4.56-2.207c.677-.5 1.325-1.059 1.854-1.706.53-.648 1.03-1.324 1.354-2.09-1.118 1.178-2.472 2.03-3.855 2.708-1.412.676-2.883 1.118-4.384 1.412zM29.055 14.065c1.06 0 2.119-.412 2.942-1.206a4.138 4.138 0 0 0 0-5.856c-.794-.794-1.824-1.206-2.942-1.206s-2.148.441-2.942 1.206a4.138 4.138 0 0 0 0 5.856 4.14 4.14 0 0 0 2.942 1.206zM27.76 8.651c.353-.353.795-.53 1.266-.53s.941.177 1.265.53a1.776 1.776 0 0 1 0 2.53 1.776 1.776 0 0 1-2.53 0c-.677-.676-.677-1.824 0-2.53z" fill="#10D078"/></svg>