<svg xmlns="http://www.w3.org/2000/svg" width="192" height="192" viewBox="0 0 192 192" fill="none">
<g clip-path="url(#clip0_1616_415)">
<rect width="192" height="192" fill="white"/>
<path d="M169.894 251.019C199.228 234.083 195.549 172.794 161.678 114.127C127.806 55.4597 76.5683 21.6297 47.2346 38.5654C17.901 55.5012 21.5797 116.79 55.4513 175.457C89.3228 234.124 140.561 267.954 169.894 251.019Z" stroke="black" stroke-width="5.91845" stroke-miterlimit="11.34"/>
<path d="M176.719 245.888C152.779 269.828 94.527 250.416 46.6319 202.521C-1.26309 154.626 -20.6904 96.3439 3.24972 72.4333C27.1898 48.5228 85.457 67.8909 133.352 115.786" stroke="black" stroke-width="5.91845" stroke-miterlimit="11.34"/>
<rect x="155" y="145" width="44" height="60" fill="white"/>
<path d="M242 134.192V133.009C218.977 132.02 197.163 122.425 180.877 106.122C164.59 89.8191 155.017 67.9959 154.052 44.9717H152.868C151.874 67.9942 142.277 89.8055 125.975 106.093C109.674 122.381 87.8546 131.959 64.8313 132.935V134.118C87.8499 135.102 109.661 144.689 125.95 160.984C142.238 177.278 151.818 199.092 152.794 222.111H153.978C154.983 199.099 164.583 177.3 180.88 161.022C197.177 144.744 218.987 135.17 242 134.192V134.192Z" fill="black" stroke="black" stroke-width="5.91845" stroke-miterlimit="10"/>
</g>
<defs>
<clipPath id="clip0_1616_415">
<rect width="192" height="192" fill="white"/>
</clipPath>
</defs>
</svg>