<svg width="75" height="76" viewBox="0 0 75 76" fill="none" xmlns="http://www.w3.org/2000/svg">
<circle cx="37.5" cy="38.5" r="30.5" fill="white"/>
<path d="M43 47V58.5L37 54.5L31.5 58.5V47" stroke="#05332A" stroke-width="1.5"/>
<path d="M35.9621 14.8499C36.7618 13.888 38.2382 13.888 39.0379 14.8499L41.0148 17.2278C41.5079 17.8208 42.298 18.0775 43.0454 17.8875L46.0425 17.1258C47.2548 16.8176 48.4493 17.6855 48.5309 18.9337L48.7326 22.0195C48.7829 22.7891 49.2712 23.4612 49.9876 23.7468L52.86 24.8922C54.0219 25.3555 54.4782 26.7597 53.8105 27.8175L52.1599 30.4325C51.7482 31.0846 51.7482 31.9154 52.1599 32.5675L53.8105 35.1825C54.4782 36.2403 54.0219 37.6445 52.86 38.1078L49.9876 39.2532C49.2712 39.5388 48.7829 40.2109 48.7326 40.9805L48.5309 44.0663C48.4493 45.3145 47.2548 46.1824 46.0425 45.8742L43.0454 45.1125C42.298 44.9225 41.5079 45.1792 41.0148 45.7722L39.0379 48.1501C38.2382 49.112 36.7618 49.112 35.9621 48.1501L33.9852 45.7722C33.4921 45.1792 32.702 44.9225 31.9546 45.1125L28.9575 45.8742C27.7452 46.1824 26.5507 45.3145 26.4691 44.0663L26.2674 40.9805C26.2171 40.2109 25.7288 39.5388 25.0124 39.2532L22.14 38.1078C20.9781 37.6445 20.5218 36.2403 21.1895 35.1825L22.8401 32.5675C23.2518 31.9154 23.2518 31.0846 22.8401 30.4325L21.1895 27.8175C20.5218 26.7597 20.9781 25.3555 22.14 24.8922L25.0124 23.7468C25.7288 23.4612 26.2171 22.7891 26.2674 22.0195L26.4691 18.9337C26.5507 17.6855 27.7452 16.8176 28.9575 17.1258L31.9546 17.8875C32.702 18.0775 33.4921 17.8208 33.9852 17.2278L35.9621 14.8499Z" fill="#02FD9B"/>
<path d="M31 32L35.5135 37L45 27" stroke="#1E4A3F" stroke-width="1.5"/>
<path d="M37.5 1.00405L37.5107 0.254128L37.5 1.00405ZM70.7143 23.1934C71.0973 23.3512 71.5357 23.1687 71.6934 22.7857L74.2649 16.5447C74.4227 16.1617 74.2401 15.7233 73.8571 15.5655C73.4742 15.4077 73.0358 15.5903 72.878 15.9733L70.5923 21.5208L65.0447 19.2351C64.6617 19.0773 64.2233 19.2599 64.0655 19.6429C63.9077 20.0258 64.0903 20.4642 64.4733 20.622L70.7143 23.1934ZM2 24.0041C2.68298 24.314 2.68288 24.3142 2.68283 24.3143C2.68286 24.3142 2.68285 24.3143 2.68292 24.3141C2.68306 24.3138 2.68337 24.3131 2.68383 24.3121C2.68476 24.3101 2.68633 24.3067 2.68855 24.3019C2.693 24.2923 2.70002 24.2772 2.70965 24.2567C2.72891 24.2158 2.75856 24.1537 2.79872 24.0716C2.87904 23.9076 3.00137 23.6641 3.16659 23.3526C3.49707 22.7297 3.9988 21.8354 4.6788 20.7613C6.03959 18.6118 8.10967 15.749 10.9438 12.899C16.6095 7.20154 25.2998 1.57922 37.4893 1.75397L37.5107 0.254128C24.7987 0.0718853 15.739 5.94959 9.88013 11.8414C6.9519 14.786 4.81601 17.7402 3.41141 19.959C2.70871 21.069 2.18789 21.9967 1.8415 22.6497C1.66827 22.9762 1.53858 23.2342 1.45149 23.4121C1.40795 23.501 1.37505 23.57 1.35268 23.6175C1.34149 23.6412 1.33294 23.6596 1.327 23.6725C1.32403 23.6789 1.32172 23.6839 1.32005 23.6875C1.31922 23.6894 1.31856 23.6908 1.31805 23.6919C1.3178 23.6925 1.31754 23.693 1.31741 23.6933C1.3172 23.6938 1.31702 23.6942 2 24.0041ZM37.4893 1.75397C49.6004 1.9276 57.7972 7.19064 62.9787 12.413C65.5729 15.0278 67.4104 17.6324 68.5981 19.5813C69.1916 20.5553 69.6219 21.3639 69.9025 21.9259C70.0427 22.2068 70.1455 22.426 70.2125 22.5731C70.246 22.6467 70.2705 22.7023 70.2863 22.7386C70.2942 22.7567 70.2999 22.7701 70.3034 22.7784C70.3052 22.7826 70.3064 22.7855 70.3071 22.7871C70.3075 22.788 70.3077 22.7885 70.3078 22.7887C70.3078 22.7888 70.3078 22.7887 70.3078 22.7887C70.3077 22.7886 70.3076 22.7883 71 22.5C71.6924 22.2117 71.6922 22.2113 71.692 22.2108C71.6919 22.2105 71.6916 22.2099 71.6914 22.2094C71.6909 22.2083 71.6904 22.2069 71.6896 22.2051C71.6882 22.2017 71.6862 22.1969 71.6836 22.191C71.6785 22.179 71.6712 22.162 71.6617 22.1401C71.6427 22.0964 71.6148 22.0332 71.5777 21.9518C71.5037 21.7891 71.3932 21.5537 71.2445 21.2559C70.9472 20.6603 70.4967 19.8144 69.879 18.8008C68.6442 16.7745 66.7372 14.0716 64.0435 11.3566C58.6491 5.91949 50.0959 0.434551 37.5107 0.254128L37.4893 1.75397Z" fill="#01392C"/>
<path d="M37.5 75L37.4893 75.7499L37.5 75ZM3.77185 52.801C3.3858 52.6508 2.95114 52.8421 2.801 53.2281L0.354362 59.5191C0.204224 59.9051 0.395462 60.3398 0.781509 60.4899C1.16756 60.6401 1.60222 60.4488 1.75236 60.0628L3.92715 54.4708L9.51913 56.6456C9.90518 56.7957 10.3398 56.6045 10.49 56.2184C10.6401 55.8324 10.4489 55.3977 10.0628 55.2476L3.77185 52.801ZM71 53.5C70.3021 53.2254 70.3022 53.2251 70.3022 53.225C70.3022 53.225 70.3022 53.2249 70.3022 53.225C70.3021 53.2252 70.3019 53.2258 70.3016 53.2267C70.3009 53.2284 70.2997 53.2314 70.2979 53.2358C70.2944 53.2444 70.2888 53.2582 70.2811 53.277C70.2656 53.3146 70.2416 53.3721 70.2088 53.4481C70.1431 53.6003 70.0423 53.8266 69.9045 54.1165C69.6289 54.6963 69.2056 55.5296 68.62 56.5309C67.448 58.5348 65.63 61.2042 63.05 63.8614C57.8985 69.1669 49.712 74.425 37.5107 74.2501L37.4893 75.7499C50.1895 75.932 58.753 70.4401 64.1261 64.9063C66.8084 62.1438 68.6964 59.3713 69.9148 57.2882C70.5243 56.246 70.9674 55.3745 71.2593 54.7604C71.4052 54.4533 71.5135 54.2104 71.586 54.0425C71.6222 53.9586 71.6495 53.8934 71.6681 53.8483C71.6773 53.8257 71.6845 53.8082 71.6894 53.7958C71.6919 53.7897 71.6939 53.7848 71.6953 53.7812C71.696 53.7794 71.6966 53.778 71.697 53.7769C71.6972 53.7763 71.6975 53.7757 71.6976 53.7755C71.6978 53.7749 71.6979 53.7745 71 53.5ZM37.5107 74.2501C25.3981 74.0764 17.0739 68.811 11.7652 63.5828C9.10779 60.9658 7.20776 58.359 5.97334 56.4085C5.35645 55.4337 4.90676 54.6244 4.61266 54.0618C4.46564 53.7806 4.35757 53.5611 4.28702 53.4137C4.25174 53.34 4.22585 53.2843 4.20915 53.2479C4.20081 53.2297 4.19476 53.2164 4.19099 53.208C4.1891 53.2038 4.18779 53.2008 4.18704 53.1991C4.18667 53.1983 4.18643 53.1978 4.18634 53.1976C4.18629 53.1975 4.18633 53.1976 4.18631 53.1975C4.18639 53.1977 4.18649 53.1979 3.5 53.5C2.81351 53.802 2.81369 53.8024 2.8139 53.8029C2.81402 53.8032 2.81427 53.8037 2.81451 53.8043C2.81499 53.8054 2.81561 53.8068 2.81638 53.8085C2.8179 53.8119 2.82001 53.8166 2.82269 53.8226C2.82805 53.8345 2.83572 53.8515 2.84573 53.8733C2.86575 53.917 2.89512 53.9801 2.93401 54.0613C3.0118 54.2238 3.12774 54.4591 3.28335 54.7567C3.59451 55.3519 4.06462 56.1974 4.70583 57.2106C5.98762 59.236 7.95704 61.9378 10.7126 64.6516C16.2298 70.085 24.9056 75.5695 37.4893 75.7499L37.5107 74.2501Z" fill="#01392C"/>
</svg>
