<svg width="343" height="218" viewBox="0 0 343 218" fill="none" xmlns="http://www.w3.org/2000/svg">
<g clip-path="url(#clip0_203_46)">
<rect width="343" height="218" rx="16" fill="#170055"/>
<circle cx="301" cy="154" r="186" fill="white" fill-opacity="0.1"/>
<circle cx="435" cy="210" r="186" fill="white" fill-opacity="0.2"/>
<path d="M277.84 138.764C277.84 137.149 278.111 135.889 278.652 134.984C279.203 134.069 280.145 133.612 281.48 133.612C282.815 133.612 283.753 134.069 284.294 134.984C284.845 135.889 285.12 137.149 285.12 138.764C285.12 140.397 284.845 141.676 284.294 142.6C283.753 143.515 282.815 143.972 281.48 143.972C280.145 143.972 279.203 143.515 278.652 142.6C278.111 141.676 277.84 140.397 277.84 138.764ZM283.552 138.764C283.552 138.008 283.501 137.369 283.398 136.846C283.305 136.323 283.109 135.899 282.81 135.572C282.511 135.236 282.068 135.068 281.48 135.068C280.892 135.068 280.449 135.236 280.15 135.572C279.851 135.899 279.651 136.323 279.548 136.846C279.455 137.369 279.408 138.008 279.408 138.764C279.408 139.548 279.455 140.206 279.548 140.738C279.641 141.27 279.837 141.699 280.136 142.026C280.444 142.353 280.892 142.516 281.48 142.516C282.068 142.516 282.511 142.353 282.81 142.026C283.118 141.699 283.319 141.27 283.412 140.738C283.505 140.206 283.552 139.548 283.552 138.764ZM286.781 136.314C286.837 135.446 287.168 134.769 287.775 134.284C288.391 133.799 289.175 133.556 290.127 133.556C290.78 133.556 291.345 133.673 291.821 133.906C292.297 134.139 292.656 134.457 292.899 134.858C293.141 135.259 293.263 135.712 293.263 136.216C293.263 136.795 293.109 137.289 292.801 137.7C292.493 138.111 292.124 138.386 291.695 138.526V138.582C292.245 138.75 292.675 139.058 292.983 139.506C293.291 139.945 293.445 140.509 293.445 141.2C293.445 141.751 293.319 142.241 293.067 142.67C292.815 143.099 292.441 143.44 291.947 143.692C291.452 143.935 290.859 144.056 290.169 144.056C289.161 144.056 288.33 143.799 287.677 143.286C287.033 142.763 286.687 142.017 286.641 141.046H288.181C288.218 141.541 288.409 141.947 288.755 142.264C289.1 142.572 289.567 142.726 290.155 142.726C290.724 142.726 291.163 142.572 291.471 142.264C291.779 141.947 291.933 141.541 291.933 141.046C291.933 140.393 291.723 139.931 291.303 139.66C290.892 139.38 290.257 139.24 289.399 139.24H289.035V137.924H289.413C290.169 137.915 290.743 137.789 291.135 137.546C291.536 137.303 291.737 136.921 291.737 136.398C291.737 135.95 291.592 135.595 291.303 135.334C291.013 135.063 290.603 134.928 290.071 134.928C289.548 134.928 289.142 135.063 288.853 135.334C288.563 135.595 288.391 135.922 288.335 136.314H286.781ZM300.511 130.784L296.703 146.45H295.135L298.929 130.784H300.511ZM303.195 141.83C304.091 141.055 304.795 140.421 305.309 139.926C305.831 139.422 306.265 138.899 306.611 138.358C306.956 137.817 307.129 137.275 307.129 136.734C307.129 136.174 306.993 135.735 306.723 135.418C306.461 135.101 306.046 134.942 305.477 134.942C304.926 134.942 304.497 135.119 304.189 135.474C303.89 135.819 303.731 136.286 303.713 136.874H302.173C302.201 135.81 302.518 134.998 303.125 134.438C303.741 133.869 304.52 133.584 305.463 133.584C306.48 133.584 307.273 133.864 307.843 134.424C308.421 134.984 308.711 135.731 308.711 136.664C308.711 137.336 308.538 137.985 308.193 138.61C307.857 139.226 307.451 139.781 306.975 140.276C306.508 140.761 305.911 141.326 305.183 141.97L304.553 142.53H308.991V143.86H302.187V142.698L303.195 141.83ZM310.197 141.872V140.668L314.901 133.92H316.833V140.486H318.135V141.872H316.833V144H315.265V141.872H310.197ZM315.335 135.544L312.031 140.486H315.335V135.544Z" fill="white"/>
<path d="M254.224 133.424L252.12 139H251.28L249.176 133.424H249.952L251.704 138.232L253.456 133.424H254.224ZM258.318 137.76H255.886L255.438 139H254.67L256.686 133.456H257.526L259.534 139H258.766L258.318 137.76ZM258.11 137.168L257.102 134.352L256.094 137.168H258.11ZM261.141 138.408H263.093V139H260.413V133.424H261.141V138.408ZM264.594 133.424V139H263.866V133.424H264.594ZM267.571 133.424C268.179 133.424 268.704 133.539 269.147 133.768C269.595 133.992 269.936 134.315 270.171 134.736C270.411 135.157 270.531 135.653 270.531 136.224C270.531 136.795 270.411 137.291 270.171 137.712C269.936 138.128 269.595 138.448 269.147 138.672C268.704 138.891 268.179 139 267.571 139H265.835V133.424H267.571ZM267.571 138.4C268.291 138.4 268.84 138.211 269.219 137.832C269.597 137.448 269.787 136.912 269.787 136.224C269.787 135.531 269.595 134.989 269.211 134.6C268.832 134.211 268.285 134.016 267.571 134.016H266.563V138.4H267.571ZM253.048 141.424V142.016H251.528V147H250.8V142.016H249.272V141.424H253.048ZM258.24 141.424V147H257.512V144.472H254.672V147H253.944V141.424H254.672V143.872H257.512V141.424H258.24ZM262.419 147L261.091 144.72H260.211V147H259.483V141.424H261.283C261.705 141.424 262.059 141.496 262.347 141.64C262.641 141.784 262.859 141.979 263.003 142.224C263.147 142.469 263.219 142.749 263.219 143.064C263.219 143.448 263.107 143.787 262.883 144.08C262.665 144.373 262.334 144.568 261.891 144.664L263.291 147H262.419ZM260.211 144.136H261.283C261.678 144.136 261.974 144.04 262.171 143.848C262.369 143.651 262.467 143.389 262.467 143.064C262.467 142.733 262.369 142.477 262.171 142.296C261.979 142.115 261.683 142.024 261.283 142.024H260.211V144.136ZM265.062 141.424V144.952C265.062 145.448 265.182 145.816 265.422 146.056C265.668 146.296 266.006 146.416 266.438 146.416C266.865 146.416 267.198 146.296 267.438 146.056C267.684 145.816 267.806 145.448 267.806 144.952V141.424H268.534V144.944C268.534 145.408 268.441 145.8 268.254 146.12C268.068 146.435 267.814 146.669 267.494 146.824C267.18 146.979 266.825 147.056 266.43 147.056C266.036 147.056 265.678 146.979 265.358 146.824C265.044 146.669 264.793 146.435 264.606 146.12C264.425 145.8 264.334 145.408 264.334 144.944V141.424H265.062Z" fill="white"/>
<path d="M286.228 29.27C287.264 29.27 288.169 29.4707 288.944 29.872C289.728 30.264 290.33 30.8333 290.75 31.58C291.179 32.3173 291.394 33.1807 291.394 34.17C291.394 35.1593 291.179 36.018 290.75 36.746C290.33 37.474 289.728 38.034 288.944 38.426C288.169 38.8087 287.264 39 286.228 39H283.05V29.27H286.228ZM286.228 37.698C287.367 37.698 288.239 37.39 288.846 36.774C289.453 36.158 289.756 35.29 289.756 34.17C289.756 33.0407 289.453 32.1587 288.846 31.524C288.239 30.8893 287.367 30.572 286.228 30.572H284.646V37.698H286.228ZM300.046 34.954C300.046 35.2433 300.027 35.5047 299.99 35.738H294.096C294.142 36.354 294.371 36.8487 294.782 37.222C295.192 37.5953 295.696 37.782 296.294 37.782C297.152 37.782 297.759 37.4227 298.114 36.704H299.836C299.602 37.4133 299.178 37.9967 298.562 38.454C297.955 38.902 297.199 39.126 296.294 39.126C295.556 39.126 294.894 38.9627 294.306 38.636C293.727 38.3 293.27 37.8333 292.934 37.236C292.607 36.6293 292.444 35.9293 292.444 35.136C292.444 34.3427 292.602 33.6473 292.92 33.05C293.246 32.4433 293.699 31.9767 294.278 31.65C294.866 31.3233 295.538 31.16 296.294 31.16C297.022 31.16 297.67 31.3187 298.24 31.636C298.809 31.9533 299.252 32.4013 299.57 32.98C299.887 33.5493 300.046 34.2073 300.046 34.954ZM298.38 34.45C298.37 33.862 298.16 33.3907 297.75 33.036C297.339 32.6813 296.83 32.504 296.224 32.504C295.673 32.504 295.202 32.6813 294.81 33.036C294.418 33.3813 294.184 33.8527 294.11 34.45H298.38ZM303.212 32.434C303.483 32.0607 303.852 31.7573 304.318 31.524C304.794 31.2813 305.322 31.16 305.9 31.16C306.582 31.16 307.198 31.3233 307.748 31.65C308.299 31.9767 308.733 32.4433 309.05 33.05C309.368 33.6473 309.526 34.3333 309.526 35.108C309.526 35.8827 309.368 36.578 309.05 37.194C308.733 37.8007 308.294 38.2767 307.734 38.622C307.184 38.958 306.572 39.126 305.9 39.126C305.303 39.126 304.771 39.0093 304.304 38.776C303.847 38.5427 303.483 38.244 303.212 37.88V39H301.616V28.64H303.212V32.434ZM307.902 35.108C307.902 34.576 307.79 34.1187 307.566 33.736C307.352 33.344 307.062 33.05 306.698 32.854C306.344 32.6487 305.961 32.546 305.55 32.546C305.149 32.546 304.766 32.6487 304.402 32.854C304.048 33.0593 303.758 33.358 303.534 33.75C303.32 34.142 303.212 34.604 303.212 35.136C303.212 35.668 303.32 36.1347 303.534 36.536C303.758 36.928 304.048 37.2267 304.402 37.432C304.766 37.6373 305.149 37.74 305.55 37.74C305.961 37.74 306.344 37.6373 306.698 37.432C307.062 37.2173 307.352 36.9093 307.566 36.508C307.79 36.1067 307.902 35.64 307.902 35.108ZM311.917 30.264C311.627 30.264 311.385 30.166 311.189 29.97C310.993 29.774 310.895 29.5313 310.895 29.242C310.895 28.9527 310.993 28.71 311.189 28.514C311.385 28.318 311.627 28.22 311.917 28.22C312.197 28.22 312.435 28.318 312.631 28.514C312.827 28.71 312.925 28.9527 312.925 29.242C312.925 29.5313 312.827 29.774 312.631 29.97C312.435 30.166 312.197 30.264 311.917 30.264ZM312.701 31.286V39H311.105V31.286H312.701ZM316.658 32.588V36.858C316.658 37.1473 316.723 37.3573 316.854 37.488C316.994 37.6093 317.227 37.67 317.554 37.67H318.534V39H317.274C316.555 39 316.005 38.832 315.622 38.496C315.239 38.16 315.048 37.614 315.048 36.858V32.588H314.138V31.286H315.048V29.368H316.658V31.286H318.534V32.588H316.658Z" fill="white"/>
<circle cx="285" cy="180" r="14" fill="#E33A24"/>
<circle cx="305" cy="180" r="14" fill="#F8CB2E" fill-opacity="0.8"/>
<path d="M28.08 138.956V136.76C28.08 136.6 28.088 136.444 28.104 136.292C28.128 136.14 28.164 135.996 28.212 135.86C28.124 135.972 28.02 136.072 27.9 136.16C27.78 136.248 27.652 136.336 27.516 136.424L25.62 137.528L24.912 136.328L26.82 135.224C26.964 135.136 27.104 135.064 27.24 135.008C27.384 134.952 27.532 134.912 27.684 134.888C27.532 134.872 27.384 134.832 27.24 134.768C27.104 134.704 26.964 134.628 26.82 134.54L24.912 133.424L25.608 132.224L27.516 133.352C27.652 133.44 27.78 133.532 27.9 133.628C28.028 133.716 28.136 133.816 28.224 133.928C28.168 133.792 28.128 133.648 28.104 133.496C28.088 133.344 28.08 133.188 28.08 133.028V130.808H29.496V133.004C29.496 133.172 29.484 133.336 29.46 133.496C29.444 133.648 29.408 133.792 29.352 133.928C29.44 133.816 29.544 133.716 29.664 133.628C29.784 133.532 29.916 133.44 30.06 133.352L31.956 132.248L32.664 133.448L30.756 134.54C30.612 134.628 30.468 134.704 30.324 134.768C30.188 134.824 30.044 134.864 29.892 134.888C30.164 134.936 30.452 135.048 30.756 135.224L32.664 136.34L31.968 137.54L30.06 136.424C29.916 136.336 29.784 136.248 29.664 136.16C29.544 136.072 29.436 135.972 29.34 135.86C29.444 136.116 29.496 136.412 29.496 136.748V138.956H28.08ZM38.1694 138.956V136.76C38.1694 136.6 38.1774 136.444 38.1934 136.292C38.2174 136.14 38.2534 135.996 38.3014 135.86C38.2134 135.972 38.1094 136.072 37.9894 136.16C37.8694 136.248 37.7414 136.336 37.6054 136.424L35.7094 137.528L35.0014 136.328L36.9094 135.224C37.0534 135.136 37.1934 135.064 37.3294 135.008C37.4734 134.952 37.6214 134.912 37.7734 134.888C37.6214 134.872 37.4734 134.832 37.3294 134.768C37.1934 134.704 37.0534 134.628 36.9094 134.54L35.0014 133.424L35.6974 132.224L37.6054 133.352C37.7414 133.44 37.8694 133.532 37.9894 133.628C38.1174 133.716 38.2254 133.816 38.3134 133.928C38.2574 133.792 38.2174 133.648 38.1934 133.496C38.1774 133.344 38.1694 133.188 38.1694 133.028V130.808H39.5854V133.004C39.5854 133.172 39.5734 133.336 39.5494 133.496C39.5334 133.648 39.4974 133.792 39.4414 133.928C39.5294 133.816 39.6334 133.716 39.7534 133.628C39.8734 133.532 40.0054 133.44 40.1494 133.352L42.0454 132.248L42.7534 133.448L40.8454 134.54C40.7014 134.628 40.5574 134.704 40.4134 134.768C40.2774 134.824 40.1334 134.864 39.9814 134.888C40.2534 134.936 40.5414 135.048 40.8454 135.224L42.7534 136.34L42.0574 137.54L40.1494 136.424C40.0054 136.336 39.8734 136.248 39.7534 136.16C39.6334 136.072 39.5254 135.972 39.4294 135.86C39.5334 136.116 39.5854 136.412 39.5854 136.748V138.956H38.1694ZM48.2587 138.956V136.76C48.2587 136.6 48.2667 136.444 48.2827 136.292C48.3067 136.14 48.3427 135.996 48.3907 135.86C48.3027 135.972 48.1987 136.072 48.0787 136.16C47.9587 136.248 47.8307 136.336 47.6947 136.424L45.7987 137.528L45.0907 136.328L46.9987 135.224C47.1427 135.136 47.2827 135.064 47.4187 135.008C47.5627 134.952 47.7107 134.912 47.8627 134.888C47.7107 134.872 47.5627 134.832 47.4187 134.768C47.2827 134.704 47.1427 134.628 46.9987 134.54L45.0907 133.424L45.7867 132.224L47.6947 133.352C47.8307 133.44 47.9587 133.532 48.0787 133.628C48.2067 133.716 48.3147 133.816 48.4027 133.928C48.3467 133.792 48.3067 133.648 48.2827 133.496C48.2667 133.344 48.2587 133.188 48.2587 133.028V130.808H49.6747V133.004C49.6747 133.172 49.6627 133.336 49.6387 133.496C49.6227 133.648 49.5867 133.792 49.5307 133.928C49.6187 133.816 49.7227 133.716 49.8427 133.628C49.9627 133.532 50.0947 133.44 50.2387 133.352L52.1347 132.248L52.8427 133.448L50.9347 134.54C50.7907 134.628 50.6467 134.704 50.5027 134.768C50.3667 134.824 50.2227 134.864 50.0707 134.888C50.3427 134.936 50.6307 135.048 50.9347 135.224L52.8427 136.34L52.1467 137.54L50.2387 136.424C50.0947 136.336 49.9627 136.248 49.8427 136.16C49.7227 136.072 49.6147 135.972 49.5187 135.86C49.6227 136.116 49.6747 136.412 49.6747 136.748V138.956H48.2587ZM58.3481 138.956V136.76C58.3481 136.6 58.3561 136.444 58.3721 136.292C58.3961 136.14 58.4321 135.996 58.4801 135.86C58.3921 135.972 58.2881 136.072 58.1681 136.16C58.0481 136.248 57.9201 136.336 57.7841 136.424L55.8881 137.528L55.1801 136.328L57.0881 135.224C57.2321 135.136 57.3721 135.064 57.5081 135.008C57.6521 134.952 57.8001 134.912 57.9521 134.888C57.8001 134.872 57.6521 134.832 57.5081 134.768C57.3721 134.704 57.2321 134.628 57.0881 134.54L55.1801 133.424L55.8761 132.224L57.7841 133.352C57.9201 133.44 58.0481 133.532 58.1681 133.628C58.2961 133.716 58.4041 133.816 58.4921 133.928C58.4361 133.792 58.3961 133.648 58.3721 133.496C58.3561 133.344 58.3481 133.188 58.3481 133.028V130.808H59.7641V133.004C59.7641 133.172 59.7521 133.336 59.7281 133.496C59.7121 133.648 59.6761 133.792 59.6201 133.928C59.7081 133.816 59.8121 133.716 59.9321 133.628C60.0521 133.532 60.1841 133.44 60.3281 133.352L62.2241 132.248L62.9321 133.448L61.0241 134.54C60.8801 134.628 60.7361 134.704 60.5921 134.768C60.4561 134.824 60.3121 134.864 60.1601 134.888C60.4321 134.936 60.7201 135.048 61.0241 135.224L62.9321 136.34L62.2361 137.54L60.3281 136.424C60.1841 136.336 60.0521 136.248 59.9321 136.16C59.8121 136.072 59.7041 135.972 59.6081 135.86C59.7121 136.116 59.7641 136.412 59.7641 136.748V138.956H58.3481ZM73.5581 138.956V136.76C73.5581 136.6 73.5661 136.444 73.5821 136.292C73.6061 136.14 73.6421 135.996 73.6901 135.86C73.6021 135.972 73.4981 136.072 73.3781 136.16C73.2581 136.248 73.1301 136.336 72.9941 136.424L71.0981 137.528L70.3901 136.328L72.2981 135.224C72.4421 135.136 72.5821 135.064 72.7181 135.008C72.8621 134.952 73.0101 134.912 73.1621 134.888C73.0101 134.872 72.8621 134.832 72.7181 134.768C72.5821 134.704 72.4421 134.628 72.2981 134.54L70.3901 133.424L71.0861 132.224L72.9941 133.352C73.1301 133.44 73.2581 133.532 73.3781 133.628C73.5061 133.716 73.6141 133.816 73.7021 133.928C73.6461 133.792 73.6061 133.648 73.5821 133.496C73.5661 133.344 73.5581 133.188 73.5581 133.028V130.808H74.9741V133.004C74.9741 133.172 74.9621 133.336 74.9381 133.496C74.9221 133.648 74.8861 133.792 74.8301 133.928C74.9181 133.816 75.0221 133.716 75.1421 133.628C75.2621 133.532 75.3941 133.44 75.5381 133.352L77.4341 132.248L78.1421 133.448L76.2341 134.54C76.0901 134.628 75.9461 134.704 75.8021 134.768C75.6661 134.824 75.5221 134.864 75.3701 134.888C75.6421 134.936 75.9301 135.048 76.2341 135.224L78.1421 136.34L77.4461 137.54L75.5381 136.424C75.3941 136.336 75.2621 136.248 75.1421 136.16C75.0221 136.072 74.9141 135.972 74.8181 135.86C74.9221 136.116 74.9741 136.412 74.9741 136.748V138.956H73.5581ZM83.6475 138.956V136.76C83.6475 136.6 83.6555 136.444 83.6715 136.292C83.6955 136.14 83.7315 135.996 83.7795 135.86C83.6915 135.972 83.5875 136.072 83.4675 136.16C83.3475 136.248 83.2195 136.336 83.0835 136.424L81.1875 137.528L80.4795 136.328L82.3875 135.224C82.5315 135.136 82.6715 135.064 82.8075 135.008C82.9515 134.952 83.0995 134.912 83.2515 134.888C83.0995 134.872 82.9515 134.832 82.8075 134.768C82.6715 134.704 82.5315 134.628 82.3875 134.54L80.4795 133.424L81.1755 132.224L83.0835 133.352C83.2195 133.44 83.3475 133.532 83.4675 133.628C83.5955 133.716 83.7035 133.816 83.7915 133.928C83.7355 133.792 83.6955 133.648 83.6715 133.496C83.6555 133.344 83.6475 133.188 83.6475 133.028V130.808H85.0635V133.004C85.0635 133.172 85.0515 133.336 85.0275 133.496C85.0115 133.648 84.9755 133.792 84.9195 133.928C85.0075 133.816 85.1115 133.716 85.2315 133.628C85.3515 133.532 85.4835 133.44 85.6275 133.352L87.5235 132.248L88.2315 133.448L86.3235 134.54C86.1795 134.628 86.0355 134.704 85.8915 134.768C85.7555 134.824 85.6115 134.864 85.4595 134.888C85.7315 134.936 86.0195 135.048 86.3235 135.224L88.2315 136.34L87.5355 137.54L85.6275 136.424C85.4835 136.336 85.3515 136.248 85.2315 136.16C85.1115 136.072 85.0035 135.972 84.9075 135.86C85.0115 136.116 85.0635 136.412 85.0635 136.748V138.956H83.6475ZM93.7369 138.956V136.76C93.7369 136.6 93.7449 136.444 93.7609 136.292C93.7849 136.14 93.8209 135.996 93.8689 135.86C93.7809 135.972 93.6769 136.072 93.5569 136.16C93.4369 136.248 93.3089 136.336 93.1729 136.424L91.2769 137.528L90.5689 136.328L92.4769 135.224C92.6209 135.136 92.7609 135.064 92.8969 135.008C93.0409 134.952 93.1889 134.912 93.3409 134.888C93.1889 134.872 93.0409 134.832 92.8969 134.768C92.7609 134.704 92.6209 134.628 92.4769 134.54L90.5689 133.424L91.2649 132.224L93.1729 133.352C93.3089 133.44 93.4369 133.532 93.5569 133.628C93.6849 133.716 93.7929 133.816 93.8809 133.928C93.8249 133.792 93.7849 133.648 93.7609 133.496C93.7449 133.344 93.7369 133.188 93.7369 133.028V130.808H95.1529V133.004C95.1529 133.172 95.1409 133.336 95.1169 133.496C95.1009 133.648 95.0649 133.792 95.0089 133.928C95.0969 133.816 95.2009 133.716 95.3209 133.628C95.4409 133.532 95.5729 133.44 95.7169 133.352L97.6129 132.248L98.3209 133.448L96.4129 134.54C96.2689 134.628 96.1249 134.704 95.9809 134.768C95.8449 134.824 95.7009 134.864 95.5489 134.888C95.8209 134.936 96.1089 135.048 96.4129 135.224L98.3209 136.34L97.6249 137.54L95.7169 136.424C95.5729 136.336 95.4409 136.248 95.3209 136.16C95.2009 136.072 95.0929 135.972 94.9969 135.86C95.1009 136.116 95.1529 136.412 95.1529 136.748V138.956H93.7369ZM103.826 138.956V136.76C103.826 136.6 103.834 136.444 103.85 136.292C103.874 136.14 103.91 135.996 103.958 135.86C103.87 135.972 103.766 136.072 103.646 136.16C103.526 136.248 103.398 136.336 103.262 136.424L101.366 137.528L100.658 136.328L102.566 135.224C102.71 135.136 102.85 135.064 102.986 135.008C103.13 134.952 103.278 134.912 103.43 134.888C103.278 134.872 103.13 134.832 102.986 134.768C102.85 134.704 102.71 134.628 102.566 134.54L100.658 133.424L101.354 132.224L103.262 133.352C103.398 133.44 103.526 133.532 103.646 133.628C103.774 133.716 103.882 133.816 103.97 133.928C103.914 133.792 103.874 133.648 103.85 133.496C103.834 133.344 103.826 133.188 103.826 133.028V130.808H105.242V133.004C105.242 133.172 105.23 133.336 105.206 133.496C105.19 133.648 105.154 133.792 105.098 133.928C105.186 133.816 105.29 133.716 105.41 133.628C105.53 133.532 105.662 133.44 105.806 133.352L107.702 132.248L108.41 133.448L106.502 134.54C106.358 134.628 106.214 134.704 106.07 134.768C105.934 134.824 105.79 134.864 105.638 134.888C105.91 134.936 106.198 135.048 106.502 135.224L108.41 136.34L107.714 137.54L105.806 136.424C105.662 136.336 105.53 136.248 105.41 136.16C105.29 136.072 105.182 135.972 105.086 135.86C105.19 136.116 105.242 136.412 105.242 136.748V138.956H103.826ZM119.036 138.956V136.76C119.036 136.6 119.044 136.444 119.06 136.292C119.084 136.14 119.12 135.996 119.168 135.86C119.08 135.972 118.976 136.072 118.856 136.16C118.736 136.248 118.608 136.336 118.472 136.424L116.576 137.528L115.868 136.328L117.776 135.224C117.92 135.136 118.06 135.064 118.196 135.008C118.34 134.952 118.488 134.912 118.64 134.888C118.488 134.872 118.34 134.832 118.196 134.768C118.06 134.704 117.92 134.628 117.776 134.54L115.868 133.424L116.564 132.224L118.472 133.352C118.608 133.44 118.736 133.532 118.856 133.628C118.984 133.716 119.092 133.816 119.18 133.928C119.124 133.792 119.084 133.648 119.06 133.496C119.044 133.344 119.036 133.188 119.036 133.028V130.808H120.452V133.004C120.452 133.172 120.44 133.336 120.416 133.496C120.4 133.648 120.364 133.792 120.308 133.928C120.396 133.816 120.5 133.716 120.62 133.628C120.74 133.532 120.872 133.44 121.016 133.352L122.912 132.248L123.62 133.448L121.712 134.54C121.568 134.628 121.424 134.704 121.28 134.768C121.144 134.824 121 134.864 120.848 134.888C121.12 134.936 121.408 135.048 121.712 135.224L123.62 136.34L122.924 137.54L121.016 136.424C120.872 136.336 120.74 136.248 120.62 136.16C120.5 136.072 120.392 135.972 120.296 135.86C120.4 136.116 120.452 136.412 120.452 136.748V138.956H119.036ZM129.126 138.956V136.76C129.126 136.6 129.134 136.444 129.15 136.292C129.174 136.14 129.21 135.996 129.258 135.86C129.17 135.972 129.066 136.072 128.946 136.16C128.826 136.248 128.698 136.336 128.562 136.424L126.666 137.528L125.958 136.328L127.866 135.224C128.01 135.136 128.15 135.064 128.286 135.008C128.43 134.952 128.578 134.912 128.73 134.888C128.578 134.872 128.43 134.832 128.286 134.768C128.15 134.704 128.01 134.628 127.866 134.54L125.958 133.424L126.654 132.224L128.562 133.352C128.698 133.44 128.826 133.532 128.946 133.628C129.074 133.716 129.182 133.816 129.27 133.928C129.214 133.792 129.174 133.648 129.15 133.496C129.134 133.344 129.126 133.188 129.126 133.028V130.808H130.542V133.004C130.542 133.172 130.53 133.336 130.506 133.496C130.49 133.648 130.454 133.792 130.398 133.928C130.486 133.816 130.59 133.716 130.71 133.628C130.83 133.532 130.962 133.44 131.106 133.352L133.002 132.248L133.71 133.448L131.802 134.54C131.658 134.628 131.514 134.704 131.37 134.768C131.234 134.824 131.09 134.864 130.938 134.888C131.21 134.936 131.498 135.048 131.802 135.224L133.71 136.34L133.014 137.54L131.106 136.424C130.962 136.336 130.83 136.248 130.71 136.16C130.59 136.072 130.482 135.972 130.386 135.86C130.49 136.116 130.542 136.412 130.542 136.748V138.956H129.126ZM139.215 138.956V136.76C139.215 136.6 139.223 136.444 139.239 136.292C139.263 136.14 139.299 135.996 139.347 135.86C139.259 135.972 139.155 136.072 139.035 136.16C138.915 136.248 138.787 136.336 138.651 136.424L136.755 137.528L136.047 136.328L137.955 135.224C138.099 135.136 138.239 135.064 138.375 135.008C138.519 134.952 138.667 134.912 138.819 134.888C138.667 134.872 138.519 134.832 138.375 134.768C138.239 134.704 138.099 134.628 137.955 134.54L136.047 133.424L136.743 132.224L138.651 133.352C138.787 133.44 138.915 133.532 139.035 133.628C139.163 133.716 139.271 133.816 139.359 133.928C139.303 133.792 139.263 133.648 139.239 133.496C139.223 133.344 139.215 133.188 139.215 133.028V130.808H140.631V133.004C140.631 133.172 140.619 133.336 140.595 133.496C140.579 133.648 140.543 133.792 140.487 133.928C140.575 133.816 140.679 133.716 140.799 133.628C140.919 133.532 141.051 133.44 141.195 133.352L143.091 132.248L143.799 133.448L141.891 134.54C141.747 134.628 141.603 134.704 141.459 134.768C141.323 134.824 141.179 134.864 141.027 134.888C141.299 134.936 141.587 135.048 141.891 135.224L143.799 136.34L143.103 137.54L141.195 136.424C141.051 136.336 140.919 136.248 140.799 136.16C140.679 136.072 140.571 135.972 140.475 135.86C140.579 136.116 140.631 136.412 140.631 136.748V138.956H139.215ZM149.304 138.956V136.76C149.304 136.6 149.312 136.444 149.328 136.292C149.352 136.14 149.388 135.996 149.436 135.86C149.348 135.972 149.244 136.072 149.124 136.16C149.004 136.248 148.876 136.336 148.74 136.424L146.844 137.528L146.136 136.328L148.044 135.224C148.188 135.136 148.328 135.064 148.464 135.008C148.608 134.952 148.756 134.912 148.908 134.888C148.756 134.872 148.608 134.832 148.464 134.768C148.328 134.704 148.188 134.628 148.044 134.54L146.136 133.424L146.832 132.224L148.74 133.352C148.876 133.44 149.004 133.532 149.124 133.628C149.252 133.716 149.36 133.816 149.448 133.928C149.392 133.792 149.352 133.648 149.328 133.496C149.312 133.344 149.304 133.188 149.304 133.028V130.808H150.72V133.004C150.72 133.172 150.708 133.336 150.684 133.496C150.668 133.648 150.632 133.792 150.576 133.928C150.664 133.816 150.768 133.716 150.888 133.628C151.008 133.532 151.14 133.44 151.284 133.352L153.18 132.248L153.888 133.448L151.98 134.54C151.836 134.628 151.692 134.704 151.548 134.768C151.412 134.824 151.268 134.864 151.116 134.888C151.388 134.936 151.676 135.048 151.98 135.224L153.888 136.34L153.192 137.54L151.284 136.424C151.14 136.336 151.008 136.248 150.888 136.16C150.768 136.072 150.66 135.972 150.564 135.86C150.668 136.116 150.72 136.412 150.72 136.748V138.956H149.304ZM173.754 140.324C173.754 141.836 173.59 143.152 173.262 144.272C172.942 145.384 172.494 146.304 171.918 147.032C171.35 147.76 170.674 148.304 169.89 148.664C169.114 149.016 168.274 149.192 167.37 149.192C166.466 149.192 165.626 149.016 164.85 148.664C164.082 148.304 163.414 147.76 162.846 147.032C162.278 146.304 161.834 145.384 161.514 144.272C161.194 143.152 161.034 141.836 161.034 140.324C161.034 138.804 161.194 137.488 161.514 136.376C161.834 135.264 162.278 134.344 162.846 133.616C163.414 132.888 164.082 132.348 164.85 131.996C165.626 131.636 166.466 131.456 167.37 131.456C168.274 131.456 169.114 131.636 169.89 131.996C170.674 132.348 171.35 132.888 171.918 133.616C172.494 134.344 172.942 135.264 173.262 136.376C173.59 137.488 173.754 138.804 173.754 140.324ZM170.694 140.324C170.694 139.068 170.602 138.028 170.418 137.204C170.234 136.38 169.986 135.724 169.674 135.236C169.37 134.748 169.018 134.408 168.618 134.216C168.218 134.016 167.802 133.916 167.37 133.916C166.946 133.916 166.534 134.016 166.134 134.216C165.742 134.408 165.394 134.748 165.09 135.236C164.786 135.724 164.542 136.38 164.358 137.204C164.182 138.028 164.094 139.068 164.094 140.324C164.094 141.58 164.182 142.62 164.358 143.444C164.542 144.268 164.786 144.924 165.09 145.412C165.394 145.9 165.742 146.244 166.134 146.444C166.534 146.636 166.946 146.732 167.37 146.732C167.802 146.732 168.218 146.636 168.618 146.444C169.018 146.244 169.37 145.9 169.674 145.412C169.986 144.924 170.234 144.268 170.418 143.444C170.602 142.62 170.694 141.58 170.694 140.324ZM182.336 131.456C183.136 131.456 183.856 131.572 184.496 131.804C185.144 132.028 185.696 132.344 186.152 132.752C186.608 133.152 186.956 133.624 187.196 134.168C187.444 134.712 187.568 135.3 187.568 135.932C187.568 136.484 187.504 136.972 187.376 137.396C187.256 137.812 187.076 138.176 186.836 138.488C186.604 138.8 186.316 139.064 185.972 139.28C185.636 139.496 185.252 139.676 184.82 139.82C185.86 140.148 186.636 140.648 187.148 141.32C187.66 141.992 187.916 142.836 187.916 143.852C187.916 144.716 187.756 145.48 187.436 146.144C187.116 146.808 186.684 147.368 186.14 147.824C185.596 148.272 184.964 148.612 184.244 148.844C183.532 149.076 182.776 149.192 181.976 149.192C181.104 149.192 180.344 149.092 179.696 148.892C179.048 148.692 178.484 148.396 178.004 148.004C177.524 147.612 177.116 147.132 176.78 146.564C176.444 145.996 176.156 145.34 175.916 144.596L177.224 144.056C177.448 143.96 177.676 143.912 177.908 143.912C178.116 143.912 178.3 143.956 178.46 144.044C178.628 144.132 178.756 144.26 178.844 144.428C178.988 144.708 179.144 144.984 179.312 145.256C179.488 145.528 179.696 145.772 179.936 145.988C180.176 146.196 180.456 146.368 180.776 146.504C181.104 146.632 181.492 146.696 181.94 146.696C182.444 146.696 182.884 146.616 183.26 146.456C183.636 146.288 183.948 146.072 184.196 145.808C184.452 145.544 184.64 145.252 184.76 144.932C184.888 144.604 184.952 144.276 184.952 143.948C184.952 143.532 184.908 143.156 184.82 142.82C184.732 142.476 184.548 142.184 184.268 141.944C183.988 141.704 183.584 141.516 183.056 141.38C182.536 141.244 181.836 141.176 180.956 141.176V139.064C181.684 139.056 182.288 138.988 182.768 138.86C183.248 138.732 183.628 138.556 183.908 138.332C184.196 138.1 184.396 137.824 184.508 137.504C184.62 137.184 184.676 136.832 184.676 136.448C184.676 135.624 184.452 135.004 184.004 134.588C183.556 134.164 182.944 133.952 182.168 133.952C181.464 133.952 180.88 134.14 180.416 134.516C179.952 134.884 179.628 135.36 179.444 135.944C179.348 136.248 179.216 136.468 179.048 136.604C178.88 136.732 178.66 136.796 178.388 136.796C178.26 136.796 178.124 136.784 177.98 136.76L176.42 136.484C176.54 135.652 176.772 134.924 177.116 134.3C177.46 133.668 177.888 133.144 178.4 132.728C178.92 132.304 179.512 131.988 180.176 131.78C180.848 131.564 181.568 131.456 182.336 131.456ZM196.462 131.456C197.262 131.456 197.994 131.576 198.658 131.816C199.322 132.048 199.89 132.38 200.362 132.812C200.834 133.244 201.202 133.764 201.466 134.372C201.73 134.98 201.862 135.656 201.862 136.4C201.862 137.04 201.766 137.632 201.574 138.176C201.39 138.72 201.138 139.24 200.818 139.736C200.506 140.232 200.138 140.712 199.714 141.176C199.29 141.64 198.846 142.112 198.382 142.592L194.47 146.588C194.854 146.476 195.23 146.392 195.598 146.336C195.966 146.272 196.318 146.24 196.654 146.24H201.106C201.426 146.24 201.678 146.332 201.862 146.516C202.054 146.692 202.15 146.928 202.15 147.224V149H190.246V148.016C190.246 147.816 190.286 147.608 190.366 147.392C190.454 147.176 190.59 146.976 190.774 146.792L196.042 141.512C196.482 141.064 196.874 140.636 197.218 140.228C197.57 139.82 197.862 139.416 198.094 139.016C198.334 138.616 198.514 138.212 198.634 137.804C198.762 137.388 198.826 136.952 198.826 136.496C198.826 136.08 198.766 135.716 198.646 135.404C198.526 135.084 198.354 134.816 198.13 134.6C197.906 134.384 197.638 134.224 197.326 134.12C197.022 134.008 196.678 133.952 196.294 133.952C195.582 133.952 194.994 134.132 194.53 134.492C194.074 134.852 193.754 135.336 193.57 135.944C193.482 136.248 193.35 136.468 193.174 136.604C192.998 136.732 192.774 136.796 192.502 136.796C192.382 136.796 192.25 136.784 192.106 136.76L190.546 136.484C190.666 135.652 190.898 134.924 191.242 134.3C191.586 133.668 192.014 133.144 192.526 132.728C193.046 132.304 193.638 131.988 194.302 131.78C194.974 131.564 195.694 131.456 196.462 131.456ZM210 142.076C209.4 142.076 208.812 141.972 208.236 141.764C207.66 141.556 207.144 141.244 206.688 140.828C206.24 140.404 205.88 139.884 205.608 139.268C205.336 138.644 205.2 137.916 205.2 137.084C205.2 136.308 205.344 135.58 205.632 134.9C205.92 134.22 206.324 133.624 206.844 133.112C207.364 132.6 207.988 132.196 208.716 131.9C209.444 131.604 210.248 131.456 211.128 131.456C212.016 131.456 212.812 131.596 213.516 131.876C214.228 132.156 214.832 132.548 215.328 133.052C215.832 133.556 216.216 134.16 216.48 134.864C216.752 135.568 216.888 136.34 216.888 137.18C216.888 137.716 216.84 138.224 216.744 138.704C216.656 139.184 216.524 139.648 216.348 140.096C216.18 140.536 215.976 140.968 215.736 141.392C215.496 141.808 215.228 142.228 214.932 142.652L210.96 148.316C210.824 148.508 210.62 148.672 210.348 148.808C210.084 148.936 209.78 149 209.436 149H206.712L212.1 142.268C212.236 142.1 212.364 141.936 212.484 141.776C212.604 141.616 212.72 141.456 212.832 141.296C212.432 141.552 211.992 141.748 211.512 141.884C211.032 142.012 210.528 142.076 210 142.076ZM214.044 136.88C214.044 136.408 213.972 135.988 213.828 135.62C213.684 135.244 213.48 134.928 213.216 134.672C212.952 134.416 212.636 134.22 212.268 134.084C211.908 133.948 211.512 133.88 211.08 133.88C210.632 133.88 210.228 133.956 209.868 134.108C209.508 134.252 209.2 134.456 208.944 134.72C208.696 134.984 208.504 135.3 208.368 135.668C208.232 136.028 208.164 136.424 208.164 136.856C208.164 137.824 208.412 138.564 208.908 139.076C209.412 139.58 210.124 139.832 211.044 139.832C211.524 139.832 211.948 139.756 212.316 139.604C212.692 139.452 213.008 139.244 213.264 138.98C213.52 138.716 213.712 138.404 213.84 138.044C213.976 137.684 214.044 137.296 214.044 136.88Z" fill="#FDFDFD"/>
</g>
<defs>
<clipPath id="clip0_203_46">
<rect width="343" height="218" rx="16" fill="white"/>
</clipPath>
</defs>
</svg>
