<svg width="167" height="57" viewBox="0 0 167 57" fill="none" xmlns="http://www.w3.org/2000/svg">
<g clip-path="url(#clip0_31_174)">
<path fill-rule="evenodd" clip-rule="evenodd" d="M101.881 18.722C99.2378 18.722 97.1449 19.2639 95.052 20.4561C95.052 14.495 95.052 8.96751 95.2723 7.125L82.3844 9.40104V10.4849L83.7063 10.7016C85.4687 11.0268 86.0195 12.0022 86.3499 14.2783C86.6804 18.8304 86.5702 42.783 86.3499 46.7932C89.7646 47.5518 93.3997 48.0938 97.0347 48.0938C107.169 48.0938 113.227 41.9159 113.227 32.1615C113.337 24.3579 108.38 18.722 101.881 18.722ZM97.4753 45.9261C96.7043 45.9261 95.7129 45.9261 95.1621 45.7093C94.9418 43.1081 94.8317 32.0531 94.9418 22.2986C96.0434 21.9735 96.8144 21.7567 97.8058 21.7567C101.992 21.7567 104.305 26.6339 104.305 32.595C104.305 40.1818 101.441 45.9261 97.4753 45.9261Z" fill="#959ACC"/>
<path fill-rule="evenodd" clip-rule="evenodd" d="M34.3579 7.88349H0.761353V9.61762L2.63395 9.83439C5.16746 10.1595 6.04868 11.6769 6.48929 15.2535C7.04005 21.9733 6.81975 34.2205 6.48929 40.0732C6.15883 43.6499 5.16746 45.2756 2.63395 45.4924L0.761353 45.8175V47.3349H22.3513V45.8175L20.0381 45.4924C17.5046 45.2756 16.6233 43.6499 16.1827 40.0732C15.9624 37.5804 15.8523 33.6786 15.8523 28.8014L20.4787 29.0182C23.3426 29.0182 24.6645 31.2942 25.2152 34.4373H26.9777V20.9978H25.2152C24.6645 24.1409 23.3426 26.417 20.4787 26.417L15.8523 26.6337C15.8523 20.2391 16.0726 14.2781 16.1827 10.7014H22.902C28.0792 10.7014 30.7229 13.8446 32.5955 19.4805L34.4681 18.9386L34.3579 7.88349Z" fill="#959ACC"/>
<path fill-rule="evenodd" clip-rule="evenodd" d="M45.1529 18.3969C54.7361 18.3969 59.4727 24.7915 59.4727 33.2454C59.4727 41.2657 54.1854 48.0938 44.6021 48.0938C35.0188 48.0938 30.2823 41.6992 30.2823 33.2454C30.2823 25.1166 35.6797 18.3969 45.1529 18.3969ZM44.6021 20.2394C40.4163 20.2394 39.3148 25.8753 39.3148 33.137C39.3148 40.2902 41.1874 46.0345 45.0427 46.0345C49.4488 46.0345 50.5503 40.3986 50.5503 33.137C50.5503 26.0921 48.6778 20.2394 44.6021 20.2394Z" fill="#959ACC"/>
<path fill-rule="evenodd" clip-rule="evenodd" d="M115.761 33.3538C115.761 25.6586 120.718 18.2886 130.411 18.2886C138.452 18.2886 142.197 24.1413 142.197 31.8365H124.463C124.242 38.773 127.657 43.867 134.597 43.867C137.681 43.867 139.223 43.1083 141.096 41.8077L141.867 42.7831C139.994 45.3843 135.808 47.9855 130.411 47.9855C121.929 48.0939 115.761 42.0245 115.761 33.3538ZM124.573 29.8856L133.495 29.6688C133.495 25.8754 132.945 20.2395 129.64 20.2395C126.446 20.2395 124.793 25.5502 124.573 29.8856Z" fill="#959ACC"/>
<path fill-rule="evenodd" clip-rule="evenodd" d="M164.999 19.9143C162.686 18.9388 159.712 18.3969 156.187 18.3969C149.137 18.3969 144.731 22.5154 144.731 27.3927C144.731 32.2699 147.925 34.3292 152.552 35.8466C157.288 37.5807 158.61 38.8813 158.61 41.0489C158.61 43.325 156.848 45.3843 153.873 45.3843C150.238 45.3843 147.595 43.325 145.502 37.6891L144.18 38.0142L144.4 46.2513C146.714 47.2268 150.899 47.9854 154.534 47.9854C162.025 47.9854 166.761 44.192 166.761 38.4477C166.761 34.546 164.668 32.2699 159.712 30.4274C154.424 28.3681 152.441 27.0675 152.441 24.5747C152.441 22.0819 154.204 20.4562 156.407 20.4562C159.822 20.4562 162.135 22.5154 163.897 27.6094L165.219 27.2843L164.999 19.9143Z" fill="#959ACC"/>
<path fill-rule="evenodd" clip-rule="evenodd" d="M84.257 19.1557C81.0626 17.3132 75.3347 18.1803 72.2504 25.0084L72.4707 18.397L59.693 20.8898V21.9737L61.0148 22.1904C62.7773 22.4072 63.5483 23.2743 63.6585 25.7671C63.989 30.3191 63.8788 38.1227 63.6585 42.1329C63.4382 44.4089 62.6671 45.4927 61.0148 45.7095L59.693 45.9263V47.4436H77.4276V45.9263L75.1144 45.7095C73.2418 45.4927 72.5809 44.4089 72.4707 42.1329C72.1402 38.5562 72.1403 31.403 72.2504 26.9593C73.2418 25.6587 77.4276 24.4665 81.1728 26.9593L84.257 19.1557Z" fill="#959ACC"/>
</g>
<defs>
<clipPath id="clip0_31_174">
<rect width="166" height="57" fill="white" transform="translate(0.761353)"/>
</clipPath>
</defs>
</svg>
