<svg width="105" height="57" viewBox="0 0 105 57" fill="none" xmlns="http://www.w3.org/2000/svg">
<path d="M19.5803 47.9505C19.5803 53.9052 21.1848 54.5712 28.0588 54.8258V57H0.76123V54.8258C6.44656 54.5712 8.05112 53.9052 8.05112 47.9505V9.06903C8.05112 3.11438 6.44657 2.44844 0.91971 2.19381V0H49.0767L49.4134 12.5752H47.0363C44.9959 6.20925 42.797 4.19172 31.5254 4.19172H22.7894C20.1746 4.19172 19.5803 4.79894 19.5803 7.12987V25.1505H23.8789C32.8725 25.1505 34.8138 23.5639 35.9231 17.6093H38.122V37.7258H35.9231C34.7346 31.0268 31.3471 29.3423 23.8789 29.3423H19.5803V47.9505ZM103.573 0H53.0584L51.8896 12.5948H54.8016C56.6439 6.42473 59.3578 4.19172 65.4393 4.19172H72.5509V47.9505C72.5509 53.9052 70.9464 54.5712 64.429 54.8258V57H92.2218V54.8258C85.7045 54.5712 84.0999 53.9052 84.0999 47.9505V4.19172H91.2115C97.293 4.19172 100.007 6.42473 101.869 12.5948H104.761L103.573 0Z" fill="#959ACC"/>
</svg>
