<svg width="238" height="57" viewBox="0 0 238 57" fill="none" xmlns="http://www.w3.org/2000/svg">
<g clip-path="url(#clip0_31_173)">
<path d="M39.5593 40.473V14.7085C39.5593 13.3682 39.8586 12.3629 40.4947 11.6928C41.0933 11.0226 41.9164 10.6875 42.8891 10.6875C43.8993 10.6875 44.7224 11.0226 45.321 11.6928C45.9571 12.3629 46.2564 13.3682 46.2564 14.7085V40.473C46.2564 41.8133 45.9571 42.8558 45.321 43.526C44.685 44.1962 43.8993 44.5312 42.8891 44.5312C41.9164 44.5312 41.1307 44.1962 40.5321 43.526C39.896 42.8186 39.5593 41.8133 39.5593 40.473Z" fill="#959ACC"/>
<path d="M220.604 44.494C211.251 44.494 203.619 36.8987 203.619 27.5908C203.619 18.2828 211.251 10.6875 220.604 10.6875C229.958 10.6875 237.59 18.2828 237.59 27.5908C237.59 36.9359 229.995 44.494 220.604 44.494ZM220.604 17.5382C215.03 17.5382 210.503 22.0432 210.503 27.5908C210.503 33.1383 215.03 37.6433 220.604 37.6433C226.179 37.6433 230.706 33.1383 230.706 27.5908C230.706 22.0804 226.179 17.5382 220.604 17.5382Z" fill="#959ACC"/>
<path d="M144.393 44.494C135.039 44.494 127.407 36.8987 127.407 27.5908C127.407 18.2828 135.039 10.6875 144.393 10.6875C153.746 10.6875 161.378 18.2828 161.378 27.5908C161.378 36.9359 153.746 44.494 144.393 44.494ZM144.393 17.5382C138.818 17.5382 134.291 22.0432 134.291 27.5908C134.291 33.1383 138.818 37.6433 144.393 37.6433C149.967 37.6433 154.494 33.1383 154.494 27.5908C154.494 22.0804 149.967 17.5382 144.393 17.5382Z" fill="#959ACC"/>
<path d="M198.193 27.5908C198.193 23.8676 196.959 20.405 194.901 17.6126C191.908 13.5544 187.119 10.8737 181.694 10.6875C181.507 10.6875 181.357 10.6875 181.17 10.6875H172.64C171.181 10.6875 170.133 11.0226 169.497 11.6928C168.861 12.3629 168.524 13.4054 168.524 14.8947V40.324C168.524 41.8133 168.861 42.8558 169.497 43.526C170.133 44.1962 171.218 44.5312 172.64 44.5312H181.17C181.357 44.5312 181.507 44.5312 181.694 44.5312C187.119 44.3823 191.871 41.7016 194.901 37.6061C196.959 34.7765 198.193 31.3139 198.193 27.5908ZM182.405 37.5689C181.582 37.6061 180.684 37.6434 179.748 37.6434H175.296V17.5382H179.748C180.684 17.5382 181.582 17.5382 182.405 17.6126C185.36 17.9477 187.905 19.5859 189.513 21.8943C190.636 23.4953 191.309 25.4685 191.309 27.5908C191.309 29.713 190.636 31.649 189.513 33.25C187.905 35.6328 185.36 37.2338 182.405 37.5689Z" fill="#959ACC"/>
<path d="M117.791 10.8363C116.557 10.464 115.21 10.948 114.499 12.0278L104.248 27.5534L93.9962 12.0278C93.2853 10.948 91.9384 10.464 90.7038 10.8363C89.4691 11.2087 88.6086 12.4001 88.6086 13.7032V41.292C88.6086 42.9302 89.9181 44.3078 91.5643 44.3078C93.1731 44.3078 94.52 42.9674 94.52 41.292V23.5324L101.778 34.553C101.778 34.553 101.778 34.553 101.778 34.5902C101.778 34.5902 101.778 34.6275 101.816 34.6275C101.853 34.7019 101.89 34.7764 101.965 34.8136C102.003 34.8509 102.003 34.8509 102.04 34.8881C102.078 34.9253 102.115 34.9998 102.152 35.037C102.19 35.0743 102.227 35.1115 102.265 35.1487C102.302 35.186 102.339 35.186 102.339 35.2232C102.414 35.2604 102.452 35.2977 102.526 35.3721L102.564 35.4094C102.639 35.4466 102.714 35.4838 102.751 35.521C102.788 35.521 102.788 35.5583 102.788 35.5583C102.826 35.5955 102.901 35.5955 102.938 35.6327C103.237 35.7817 103.537 35.8561 103.873 35.8934C103.948 35.8934 103.986 35.8934 104.06 35.8934C104.098 35.8934 104.135 35.8934 104.173 35.8934C104.21 35.8934 104.248 35.8934 104.285 35.8934C104.36 35.8934 104.397 35.8934 104.472 35.8934C104.771 35.8561 105.108 35.7817 105.407 35.6327C105.445 35.5955 105.52 35.5955 105.557 35.5583L105.594 35.521C105.669 35.4838 105.744 35.4466 105.781 35.4094C105.819 35.4094 105.819 35.3721 105.819 35.3721C105.894 35.3349 105.931 35.2977 106.006 35.2232C106.043 35.186 106.081 35.186 106.081 35.1487C106.118 35.1115 106.156 35.0743 106.193 35.037C106.23 34.9998 106.268 34.9626 106.305 34.8881C106.343 34.8509 106.343 34.8509 106.38 34.8136C106.418 34.7392 106.492 34.7019 106.53 34.6275L106.567 34.5902C106.567 34.5902 106.567 34.5903 106.567 34.553L113.825 23.5324V41.292C113.825 42.9302 115.135 44.3078 116.781 44.3078C118.39 44.3078 119.737 42.9674 119.737 41.292V13.7032C119.886 12.4001 119.026 11.2087 117.791 10.8363Z" fill="#959ACC"/>
<path d="M78.5818 43.4887H56.5451C55.3853 43.4887 54.1132 42.7813 53.6268 41.6644C53.1404 40.5474 53.0656 39.0209 54.0758 37.7923L72.0718 16.9797H57.1811C55.5723 16.9797 54.2254 15.5649 54.2254 13.8522C54.2254 12.1395 55.5349 11.0598 57.1811 11.0598H77.2349C78.3947 11.0598 79.5919 11.246 80.6395 12.4002C81.6123 13.4427 81.5374 15.7138 80.4899 17.0541L63.0925 37.2338H78.5818C80.228 37.2338 81.3878 38.6486 81.3878 40.3613C81.3878 42.0739 80.228 43.4887 78.5818 43.4887Z" fill="#959ACC"/>
<path d="M17.6348 44.494C12.7336 44.494 8.3188 42.5579 5.13864 39.0582C2.37002 36.0051 0.76123 31.9469 0.76123 27.9258C0.76123 15.3787 11.2371 10.6875 17.8593 10.6875C24.3693 10.6875 29.1208 13.8522 29.3453 14.0011C30.8045 15.0064 31.216 16.9797 30.2058 18.469C29.2331 19.9582 27.2501 20.3305 25.791 19.3625C25.7162 19.3253 22.3115 17.1286 17.8593 17.1286C13.7064 17.1286 7.98208 19.8465 7.98208 27.9258C7.98208 32.5054 11.4241 37.9412 17.7096 37.9412C21.264 37.9412 23.7333 37.0104 25.1924 36.0796V31.3139H20.3286C18.5702 31.3139 17.1484 29.8619 17.1484 28.112C17.1484 26.3249 18.5702 24.9101 20.3286 24.9101H28.4474C30.2058 24.9101 31.6276 26.3621 31.6276 28.112V37.6806C31.6276 38.5369 31.2908 39.3932 30.6548 39.989C28.5222 42.0739 23.8081 44.494 17.6348 44.494Z" fill="#959ACC"/>
</g>
<defs>
<clipPath id="clip0_31_173">
<rect width="237" height="57" fill="white" transform="translate(0.76123)"/>
</clipPath>
</defs>
</svg>
