<svg width="177" height="58" viewBox="0 0 177 58" fill="none" xmlns="http://www.w3.org/2000/svg">
<path d="M40.7477 30.6394L43.7914 29.0512V5.2876H41.4638L35.7941 12.699H35.1376L35.5554 4.34646H60.1441L60.5022 12.699H59.8457L54.2356 5.2876H51.8484V28.9924L54.9518 30.5806V31.404H40.7477V30.6394ZM62.8894 29.5806V3.22887L60.5022 2.28773V1.81717L69.0963 0.229004H70.0512V12.7578L70.2302 12.5814C72.319 10.8756 74.8853 9.87562 77.6307 9.87562C81.3906 9.87562 83.0617 11.9932 83.0617 15.8753V29.5806L85.0908 30.6394V31.404H73.8111V30.6394L75.8402 29.5806V15.8165C75.8402 13.6402 74.8853 12.8167 73.0949 12.8167C72.0206 12.8167 70.9464 13.1108 70.1108 13.7578V29.5806L72.0803 30.6394V31.404H60.8006V30.6982L62.8894 29.5806ZM91.238 21.4633C91.4767 25.8161 93.4462 29.1689 98.161 29.1689C100.429 29.1689 102.04 28.1101 103.532 27.3454V28.2277C101.503 30.6982 98.4594 32.0511 95.2366 32.0511C87.9555 32.0511 84.2553 28.0513 84.2553 21.1692C84.2553 14.4048 88.3136 10.2285 94.8786 10.2285C101.085 10.2285 104.249 13.2872 104.249 21.2869V21.4633H91.238ZM91.1186 20.4634L97.5045 20.0516C97.5045 14.6401 96.5496 11.052 94.6995 11.052C92.6704 11.1109 91.1186 15.2871 91.1186 20.4634ZM0.76123 41.933C0.76123 30.4629 8.46011 26.4043 17.0542 26.4043C20.6948 26.4043 24.1563 26.9925 26.0661 27.7572L26.2451 35.7568H25.4096L20.3964 27.9924C19.3818 27.5807 18.3075 27.4042 17.2333 27.4631C12.6975 27.4631 10.3102 32.6393 10.4296 41.1683C10.4893 51.3443 12.3394 55.9912 16.5171 55.9912C17.3526 55.9912 18.2478 55.8735 19.0237 55.5794V44.6976L16.159 43.1682V42.2271H29.5276V43.227L26.7823 44.7564V55.5206C23.5595 56.6382 20.1576 57.2264 16.6961 57.2264C6.96808 57.1676 0.76123 52.6972 0.76123 41.933ZM28.2743 36.5803V35.9333L37.2265 34.3451L38.2411 34.4039V51.8149C38.2411 53.9324 39.2556 54.5795 40.9864 54.5795C42.1203 54.5795 43.1946 54.1089 43.9108 53.2266V37.6391L41.4042 36.5803V35.8744L50.3563 34.3451L51.2516 34.4039V54.403L53.6985 55.403V56.05L44.9254 57.1088L44.0301 57.0499V54.403H43.7914C42.001 56.1676 39.6137 57.1088 37.0474 57.1676C32.7504 57.1676 30.7809 54.6383 30.7809 50.8737V37.6391L28.2743 36.5803ZM84.5537 34.3451L85.2699 34.4039V40.8742H85.4489C86.4038 36.1685 88.4927 34.4039 91.1186 34.4039C91.4767 34.4039 91.8945 34.4627 92.2526 34.5804V41.1095C91.6558 40.9918 90.9993 40.933 90.4025 40.933C88.7314 40.8742 87.0603 41.2271 85.5086 41.8742V54.6383L87.5378 55.7559V56.697H75.8999V55.8147L77.9888 54.6971V37.2861L75.5418 36.5803V35.9921L84.5537 34.3451ZM107.054 34.8745V28.0513L104.607 27.2278V26.6984L113.678 25.0514L114.514 25.169V54.403L117.02 55.2853V56.05L108.068 57.2264L107.352 57.1676V54.7559H107.173C105.621 56.3441 103.473 57.2852 101.205 57.2264C96.3109 57.2264 92.7897 53.5795 92.7897 46.0504C92.7897 38.1096 96.9077 34.2274 103.174 34.2274C104.487 34.1686 105.8 34.4039 107.054 34.8745ZM107.054 53.5795V36.1097C106.397 35.5215 105.502 35.2862 104.607 35.345C102.16 35.4039 100.668 39.0508 100.668 45.4622C100.668 51.2267 101.742 54.4618 104.965 54.3442C105.741 54.3442 106.457 54.1089 107.054 53.5795ZM126.808 34.3451L127.584 34.4039V54.6971L129.613 55.8147V56.697H117.975V55.8147L120.064 54.6971V37.5802L117.557 36.5803V35.8744L126.808 34.3451ZM127.644 28.8748C127.584 30.9923 125.793 32.6393 123.645 32.5805C122.213 32.6393 120.9 31.9334 120.183 30.757C119.467 29.5806 119.467 28.1101 120.183 26.8748C120.9 25.6984 122.213 24.9926 123.645 25.0514C125.853 24.9926 127.644 26.6984 127.644 28.8748ZM153.784 54.6971V37.4038L151.337 36.5803V35.7568L160.289 34.1098L161.184 34.1686V36.7567H161.423C163.572 34.9921 166.257 33.9922 169.062 33.9922C172.942 33.9922 174.672 35.8156 174.672 39.8742V54.6971L176.761 55.8735V56.697H165.123V55.8147L167.212 54.6971V40.2272C167.212 37.992 166.257 37.1097 164.407 37.1097C163.273 37.0508 162.199 37.4038 161.363 38.0508V54.6383L163.393 55.7559V56.697H151.755V55.8147L153.784 54.6971ZM141.132 43.8152V40.933C141.132 36.5803 140.177 35.1686 137.431 35.1686C137.133 35.1686 136.834 35.2274 136.476 35.2274L131.583 41.7565H130.926V35.7568C133.552 34.8745 136.297 34.4039 139.102 34.3451C145.07 34.3451 148.532 35.9921 148.532 40.8742V54.9912L150.681 55.5206V56.1088C149.308 56.8146 147.816 57.1088 146.264 57.1088C143.34 57.1088 141.907 56.1676 141.251 54.5795H141.072C139.819 56.2264 138.028 57.1676 135.283 57.1676C131.762 57.1676 129.315 54.9912 129.315 51.2267C129.315 47.5798 131.642 45.5799 136.297 44.6976L141.132 43.8152ZM141.132 53.5795V44.874L139.639 44.9917C137.312 45.1681 136.476 46.6386 136.476 49.9326C136.476 53.4619 137.67 54.403 139.281 54.403C139.998 54.403 140.654 54.1677 141.132 53.5795ZM65.5751 43.8152V40.933C65.5751 36.5803 64.6202 35.1686 61.8748 35.1686C61.5764 35.1686 61.278 35.2274 60.9199 35.2274L56.0261 41.7565H55.3696V35.7568C57.9955 34.8745 60.7409 34.4039 63.5459 34.3451C69.514 34.3451 72.9755 35.9921 72.9755 40.8742V54.9912L75.1241 55.5206V56.1088C73.7514 56.8146 72.2594 57.1088 70.7077 57.1088C67.7833 57.1088 66.3509 56.1676 65.6944 54.5795H65.5154C64.2621 56.2264 62.4716 57.1676 59.7263 57.1676C56.2051 57.1676 53.7582 54.9912 53.7582 51.2267C53.7582 47.5798 56.0261 45.5799 60.7409 44.6976L65.5751 43.8152ZM65.5751 53.5795V44.874L64.083 44.9917C61.7555 45.1681 60.9199 46.6386 60.9199 49.9326C60.9199 53.4619 62.1135 54.403 63.7249 54.403C64.3814 54.403 65.0976 54.1677 65.5751 53.5795Z" fill="#959ACC"/>
</svg>
