<svg width="153" height="52" viewBox="0 0 153 52" fill="none" xmlns="http://www.w3.org/2000/svg">
<g clip-path="url(#clip0_32_205)">
<path fill-rule="evenodd" clip-rule="evenodd" d="M47.6388 0.272775C48.899 -0.0912685 50.1591 -0.0912685 51.4193 0.090753C52.8475 0.363785 54.1916 0.818839 55.3678 1.63794C55.3678 2.82108 55.3678 4.00422 55.3678 5.18736C54.6117 4.55028 53.8556 4.00422 52.9315 3.64017C51.7553 3.09411 50.4952 2.91209 49.319 3.0031C48.731 3.09411 48.1429 3.18512 47.6388 3.54916C47.3028 3.73118 46.9668 4.09523 46.7987 4.45927C46.5467 4.91432 46.5467 5.46039 46.6307 6.00645C46.7147 6.46151 46.9668 6.91656 47.3028 7.18959C47.7229 7.55364 48.3109 7.82667 48.815 8.00869C49.9071 8.46375 50.9993 8.9188 52.1754 9.28284C53.0995 9.64689 54.0236 10.193 54.7797 10.921C55.5358 11.6491 56.0399 12.5592 56.2079 13.5603C56.3759 14.6525 56.4599 15.7446 56.2079 16.7457C55.9558 17.6558 55.4518 18.5659 54.7797 19.203C54.0236 19.9311 53.1835 20.3862 52.2594 20.6592C50.9992 21.0232 49.6551 21.1142 48.3949 20.9322C46.7987 20.7502 45.1185 20.2041 43.7744 19.203C43.7744 18.0199 43.7744 16.7457 43.7744 15.5626C45.3706 17.0188 47.4708 17.9289 49.5711 17.9289C50.4952 17.9289 51.4193 17.8379 52.1754 17.3828C52.5954 17.1098 53.0155 16.7457 53.1835 16.1997C53.3515 15.6536 53.3515 15.0165 53.1835 14.3794C53.0155 13.8334 52.5954 13.3783 52.0914 13.1053C51.2513 12.5592 50.3272 12.2862 49.4031 11.9222C48.3109 11.4671 47.2188 11.1031 46.2107 10.466C45.4546 10.0109 44.6985 9.37385 44.2784 8.55476C43.6064 7.46263 43.4383 6.09746 43.6064 4.82331C43.6904 3.64017 44.2784 2.45703 45.0345 1.72895C45.7906 1.00086 46.7147 0.545807 47.6388 0.272775Z" fill="#959ACC"/>
<path fill-rule="evenodd" clip-rule="evenodd" d="M122.072 1.18288C123.332 0.272774 124.928 -0.000258556 126.44 -0.000258556C128.288 -0.000258556 130.221 0.545806 131.817 1.63794C131.817 2.82108 131.817 4.00422 131.817 5.18736C131.145 4.64129 130.389 4.09523 129.633 3.73118C128.288 3.09411 126.776 2.82108 125.264 3.09411C124.508 3.27613 123.668 3.64017 123.248 4.36826C122.828 5.27837 122.996 6.46151 123.668 7.09858C124.172 7.64465 124.928 7.91768 125.6 8.0997C126.692 8.55475 127.784 8.9188 128.876 9.37385C129.885 9.82891 130.809 10.375 131.481 11.1941C132.153 11.9222 132.573 12.9233 132.741 13.9244C132.909 15.0165 132.825 16.1997 132.405 17.2918C132.069 18.2019 131.481 18.93 130.725 19.5671C129.885 20.2041 128.876 20.5682 127.784 20.8412C126.356 21.1142 124.844 21.0232 123.416 20.6592C122.24 20.3862 121.064 19.9311 120.055 19.112C120.055 17.9289 120.055 16.6547 120.055 15.4716C121.316 16.5637 122.828 17.3828 124.508 17.6558C125.18 17.8379 125.936 17.8379 126.608 17.7468C127.364 17.6558 128.036 17.5648 128.708 17.1098C129.213 16.7457 129.549 16.2907 129.633 15.6536C129.717 14.9255 129.633 14.1064 129.213 13.5603C128.792 13.1053 128.288 12.7413 127.7 12.4682C126.776 12.1042 125.936 11.7401 125.012 11.3761C124.172 11.012 123.248 10.739 122.492 10.1929C121.736 9.73789 121.064 9.10082 120.644 8.28172C120.223 7.46263 119.971 6.55252 119.971 5.64241C119.887 4.82331 120.055 4.00422 120.307 3.18512C120.644 2.54804 121.316 1.72895 122.072 1.18288Z" fill="#959ACC"/>
<path fill-rule="evenodd" clip-rule="evenodd" d="M142.57 0.545806C143.494 0.181763 144.418 -0.000258556 145.343 -0.000258556C147.275 -0.000258556 149.207 0.454795 150.887 1.54692C150.971 1.54692 150.971 1.63794 150.971 1.72895C150.971 2.91209 150.971 4.00422 150.971 5.18736C150.215 4.55028 149.375 4.00422 148.535 3.64017C147.443 3.18512 146.183 2.91209 145.006 3.0031C144.418 3.09411 143.746 3.18512 143.242 3.54916C142.822 3.82219 142.486 4.18624 142.318 4.55028C141.982 5.46039 142.15 6.55252 142.822 7.09858C143.578 7.73566 144.502 8.00869 145.427 8.37273C146.435 8.82779 147.527 9.19183 148.535 9.64688C149.459 10.1019 150.383 10.739 150.971 11.6491C151.643 12.6502 151.895 13.8334 151.895 15.0165C151.895 16.1086 151.643 17.2008 151.139 18.0199C150.551 18.93 149.795 19.5671 148.871 20.0221C147.863 20.4772 146.855 20.7502 145.763 20.7502C144.586 20.8412 143.41 20.6592 142.234 20.3862C141.142 20.1131 140.134 19.6581 139.21 19.021C139.21 17.8379 139.21 16.5637 139.21 15.3806C140.806 16.8367 142.906 17.7468 145.006 17.7468C145.931 17.7468 146.855 17.6558 147.695 17.2008C148.115 16.9277 148.451 16.5637 148.619 16.0176C148.787 15.4716 148.787 14.7435 148.619 14.1974C148.451 13.6514 148.031 13.1963 147.527 12.9233C146.687 12.3772 145.763 12.1042 144.838 11.7401C143.746 11.2851 142.654 10.921 141.646 10.284C140.806 9.82891 140.134 9.10082 139.63 8.19071C139.126 7.2806 138.958 6.09746 138.958 5.00533C138.958 4.00422 139.294 3.0031 139.882 2.184C140.638 1.54692 141.562 0.909849 142.57 0.545806Z" fill="#959ACC"/>
<path fill-rule="evenodd" clip-rule="evenodd" d="M76.7903 -0.000258556C81.0748 4.45927 85.3593 8.9188 89.7278 13.3783C89.7278 9.00981 89.7278 4.7323 89.7278 0.363785C90.7359 0.363785 91.7441 0.363785 92.8362 0.363785C92.8362 7.2806 92.8362 14.1974 92.8362 21.1142C89.9799 18.0199 87.0395 15.0165 84.0992 11.9222C82.671 10.466 81.3268 9.00981 79.8987 7.55364C79.8987 11.9222 79.8987 16.3817 79.8987 20.7502C78.8905 20.7502 77.8824 20.7502 76.7903 20.7502C76.7903 13.8334 76.7903 6.91656 76.7903 -0.000258556Z" fill="#959ACC"/>
<path fill-rule="evenodd" clip-rule="evenodd" d="M0.76123 0.363784C2.44143 0.363784 4.03762 0.363784 5.71782 0.363784C6.89396 0.363784 8.0701 0.272774 9.16223 0.545806C10.2544 0.727827 11.3465 1.18288 12.1866 2.00198C12.8587 2.63905 13.3627 3.54916 13.5308 4.45927C13.7828 5.5514 13.7828 6.64353 13.4467 7.73566C13.1107 8.82779 12.3546 9.8289 11.3465 10.284C11.5145 10.375 11.6825 10.466 11.8506 10.557C12.7747 11.1031 13.5308 12.0132 13.9508 13.0143C14.2868 13.8334 14.3709 14.6525 14.2868 15.5626C14.2028 16.6547 13.8668 17.7468 13.1947 18.6569C12.4386 19.6581 11.3465 20.2951 10.2544 20.5682C9.24624 20.8412 8.32213 20.8412 7.31401 20.8412C5.12975 20.8412 2.94549 20.8412 0.76123 20.8412C0.76123 13.9244 0.76123 7.09858 0.76123 0.363784ZM3.8696 3.36714C3.8696 5.18736 3.8696 7.09858 3.8696 8.9188C5.12975 8.9188 6.3899 8.9188 7.65005 8.9188C8.40614 8.9188 9.33025 8.73677 9.91832 8.0997C10.3384 7.64465 10.5904 7.00757 10.6744 6.37049C10.7584 5.64241 10.5904 4.91432 10.1704 4.36826C9.7503 3.82219 9.16223 3.64017 8.57416 3.45815C7.98609 3.36714 7.31401 3.36714 6.64193 3.36714C5.71782 3.36714 4.79371 3.36714 3.8696 3.36714ZM3.8696 11.7401C3.8696 13.7424 3.8696 15.7446 3.8696 17.6558C5.21376 17.6558 6.55792 17.6558 7.90208 17.6558C8.65817 17.6558 9.41426 17.4738 10.0863 17.0188C10.6744 16.6547 11.0105 16.0176 11.0945 15.2895C11.2625 14.5615 11.1785 13.7424 10.7584 13.0143C10.4224 12.4682 9.91832 12.1042 9.41426 11.9222C8.9102 11.7401 8.40614 11.6491 7.81807 11.6491C6.55792 11.7401 5.21376 11.7401 3.8696 11.7401Z" fill="#959ACC"/>
<path fill-rule="evenodd" clip-rule="evenodd" d="M21.1757 0.363784C22.2678 0.363784 23.2759 0.363784 24.368 0.363784C24.368 3.9132 24.368 7.37161 24.368 10.921C24.368 12.1952 24.284 13.3783 24.6201 14.6525C24.8721 15.6536 25.2922 16.5637 26.0482 17.2008C26.8043 17.8378 27.7284 18.0199 28.7366 18.0199C29.6607 18.0199 30.6688 17.8378 31.4249 17.2008C32.097 16.6547 32.517 15.9266 32.769 15.1075C33.0211 14.1064 33.1051 13.1053 33.1051 12.1042C33.1051 8.19071 33.1051 4.27725 33.1051 0.454795C34.1972 0.454795 35.2053 0.454795 36.2975 0.454795C36.2975 4.55028 36.2975 8.55475 36.2975 12.6502C36.2975 14.2884 36.0454 16.0176 35.2893 17.4738C34.6173 18.748 33.6091 19.8401 32.349 20.3861C30.9208 21.0232 29.3246 21.2052 27.8125 21.1142C26.7203 21.0232 25.7122 20.7502 24.7041 20.2041C24.032 19.8401 23.3599 19.294 22.8559 18.5659C22.2678 17.8378 21.8477 16.8367 21.5957 15.9266C21.2597 14.8345 21.1757 13.6514 21.1757 12.5592C21.1757 8.37273 21.1757 4.36826 21.1757 0.363784Z" fill="#959ACC"/>
<path fill-rule="evenodd" clip-rule="evenodd" d="M64.5248 0.363784C65.6169 0.363784 66.625 0.363784 67.7172 0.363784C67.7172 7.18959 67.7172 13.9244 67.7172 20.7502C66.625 20.7502 65.6169 20.7502 64.5248 20.7502C64.5248 13.9244 64.5248 7.09858 64.5248 0.363784Z" fill="#959ACC"/>
<path fill-rule="evenodd" clip-rule="evenodd" d="M101.321 0.363784C105.102 0.363784 108.882 0.363784 112.747 0.363784C112.747 1.3649 112.747 2.45703 112.747 3.45815C109.974 3.45815 107.202 3.45815 104.514 3.45815C104.514 5.09635 104.514 6.73454 104.514 8.37273C106.95 8.37273 109.47 8.37273 111.906 8.37273C111.906 9.37385 111.906 10.375 111.906 11.3761C109.47 11.3761 106.95 11.3761 104.514 11.3761C104.514 13.4693 104.514 15.5626 104.514 17.6558C107.286 17.6558 110.058 17.6558 112.747 17.6558C112.747 18.657 112.747 19.7491 112.747 20.7502C108.966 20.7502 105.186 20.7502 101.321 20.7502C101.321 15.1985 101.321 9.7379 101.321 4.18624C101.321 2.91209 101.237 1.63794 101.321 0.363784Z" fill="#959ACC"/>
<path fill-rule="evenodd" clip-rule="evenodd" d="M25.6282 31.0344C29.9127 35.4029 34.1973 39.7715 38.4818 44.14C38.4818 39.8625 38.4818 35.585 38.4818 31.3074C39.4899 31.3074 40.498 31.3074 41.5061 31.3074C41.5061 38.1333 41.5061 44.8681 41.5061 51.6939C37.2216 47.2343 32.9371 42.7748 28.7366 38.3153C28.7366 42.6838 28.7366 46.9613 28.7366 51.3298C27.7285 51.3298 26.7204 51.3298 25.7122 51.3298C25.6282 44.595 25.5442 37.7692 25.6282 31.0344Z" fill="#959ACC"/>
<path fill-rule="evenodd" clip-rule="evenodd" d="M52.3434 31.7625C53.5195 31.1254 54.8637 30.9434 56.2079 31.0344C57.9721 31.1254 59.7363 31.5805 61.2484 32.6726C61.2484 33.8557 61.2484 35.0389 61.2484 36.222C60.4924 35.5849 59.7363 35.0389 58.8122 34.6748C57.636 34.1288 56.3759 33.9468 55.1997 34.0378C54.6117 34.1288 54.0236 34.2198 53.5195 34.5838C53.0995 34.8569 52.8475 35.2209 52.6794 35.676C52.4274 36.4951 52.5954 37.4052 53.0995 37.9512C53.5195 38.4063 54.1076 38.6793 54.6957 38.9523C55.7878 39.4074 56.9639 39.8625 58.0561 40.2265C58.9802 40.5905 59.8203 41.0456 60.5764 41.6827C61.3325 42.3198 61.8365 43.2299 62.0885 44.231C62.3406 45.2321 62.3406 46.2332 62.1726 47.3253C62.0045 48.3265 61.5005 49.2366 60.8284 49.8736C60.1563 50.6017 59.2322 51.0568 58.3081 51.4208C57.132 51.7849 55.9558 51.8759 54.6957 51.7849C53.4355 51.6939 52.1754 51.4208 51.0832 50.8748C50.5792 50.6017 50.0751 50.4197 49.6551 50.0557C49.6551 48.8725 49.6551 47.6894 49.6551 46.5062C51.2513 47.9624 53.3515 48.7815 55.4518 48.8725C56.3759 48.8725 57.3 48.7815 58.0561 48.3265C58.5601 48.0534 58.8962 47.5984 59.0642 47.0523C59.2322 46.5062 59.2322 45.8692 58.9802 45.3231C58.8122 44.777 58.3081 44.322 57.8881 44.049C57.048 43.5939 56.2079 43.2299 55.2837 42.9568C54.2756 42.5928 53.2675 42.2287 52.3434 41.6827C51.5033 41.2276 50.7472 40.4995 50.2431 39.6804C49.7391 38.7703 49.4871 37.6782 49.5711 36.6771C49.5711 35.676 49.8231 34.6748 50.3272 33.8557C50.7472 32.7636 51.5033 32.1265 52.3434 31.7625Z" fill="#959ACC"/>
<path fill-rule="evenodd" clip-rule="evenodd" d="M13.3627 31.3074C14.4549 31.3074 15.463 31.3074 16.5551 31.3074C16.5551 38.0422 16.5551 44.686 16.5551 51.4208C15.463 51.4208 14.4549 51.4208 13.3627 51.4208C13.3627 44.686 13.3627 38.0422 13.3627 31.3074Z" fill="#959ACC"/>
<path fill-rule="evenodd" clip-rule="evenodd" d="M70.3215 31.3074C71.4137 31.3074 72.4218 31.3074 73.5139 31.3074C73.5139 38.0422 73.5139 44.686 73.5139 51.4208C72.4218 51.4208 71.4137 51.4208 70.3215 51.4208C70.3215 44.686 70.3215 38.0422 70.3215 31.3074Z" fill="#959ACC"/>
<path fill-rule="evenodd" clip-rule="evenodd" d="M82.755 31.3074C85.1913 31.3074 87.6276 31.3074 90.0639 31.3074C91.9961 31.3074 93.9284 31.8535 95.4405 33.1277C96.7847 34.1288 97.7088 35.5849 98.2969 37.2231C98.7169 38.5883 98.969 40.0445 98.885 41.5007C98.885 43.5939 98.4649 45.6871 97.3728 47.4163C96.5327 48.8725 95.1885 50.0557 93.6763 50.6927C92.5002 51.2388 91.24 51.4208 89.9799 51.4208C87.5436 51.4208 85.1073 51.4208 82.671 51.4208C82.755 44.686 82.755 38.0422 82.755 31.3074ZM85.9474 34.3108C85.9474 38.9524 85.9474 43.6849 85.9474 48.3265C86.9555 48.3265 87.9637 48.3265 88.9718 48.3265C89.5599 48.3265 90.2319 48.3265 90.82 48.2354C91.9961 48.0534 93.1723 47.5984 94.0124 46.6883C94.7685 45.9602 95.2725 44.868 95.5246 43.7759C95.7766 42.6838 95.8606 41.5917 95.7766 40.4995C95.6926 39.4984 95.5246 38.4973 95.1045 37.5872C94.7685 36.6771 94.1804 35.949 93.4243 35.4029C92.5842 34.7659 91.5761 34.4018 90.568 34.3108C89.9799 34.2198 89.3078 34.3108 88.7197 34.2198C87.7956 34.3108 86.8715 34.3108 85.9474 34.3108Z" fill="#959ACC"/>
<path fill-rule="evenodd" clip-rule="evenodd" d="M105.606 31.3074C109.386 31.3074 113.167 31.3074 116.947 31.3074C116.947 32.3086 116.947 33.3097 116.947 34.3108C114.175 34.3108 111.486 34.3108 108.714 34.3108C108.714 35.949 108.714 37.4962 108.714 39.1344C111.15 39.1344 113.587 39.1344 116.023 39.1344C116.023 40.1355 116.023 41.1366 116.023 42.1377C113.587 42.1377 111.15 42.1377 108.714 42.1377C108.714 44.231 108.714 46.3242 108.714 48.3265C111.486 48.3265 114.175 48.3265 116.947 48.3265C116.947 49.3276 116.947 50.3287 116.947 51.3298C113.167 51.3298 109.386 51.3298 105.606 51.3298C105.606 44.686 105.606 38.0422 105.606 31.3074Z" fill="#959ACC"/>
<path fill-rule="evenodd" clip-rule="evenodd" d="M126.356 31.3074C128.708 31.3074 130.977 31.3074 133.329 31.3074C134.505 31.3074 135.681 31.4895 136.689 32.1265C137.53 32.5816 138.202 33.2187 138.706 34.0378C139.294 35.0389 139.546 36.222 139.462 37.4052C139.462 38.5883 139.294 39.8625 138.706 40.8636C138.286 41.6827 137.614 42.2287 136.857 42.5928C136.269 42.8658 135.681 43.0478 135.093 43.1388C137.362 45.8692 139.546 48.5995 141.814 51.4208C140.638 51.4208 139.378 51.4208 138.202 51.4208C136.017 48.6905 133.917 45.9602 131.733 43.3209C130.977 43.3209 130.221 43.3209 129.549 43.3209C129.549 46.0512 129.549 48.7815 129.549 51.4208C128.456 51.4208 127.448 51.4208 126.356 51.4208C126.356 44.686 126.356 38.0422 126.356 31.3074ZM129.549 34.3108C129.549 36.313 129.549 38.4063 129.549 40.4085C130.809 40.4085 131.985 40.4085 133.245 40.4085C134.085 40.4085 134.925 40.1355 135.597 39.4984C136.017 39.0434 136.269 38.4973 136.353 37.8602C136.437 37.1321 136.353 36.222 135.933 35.5849C135.597 34.9479 134.925 34.5838 134.253 34.4018C133.581 34.2198 132.909 34.2198 132.237 34.2198C131.313 34.3108 130.473 34.3108 129.549 34.3108Z" fill="#959ACC"/>
</g>
<defs>
<clipPath id="clip0_32_205">
<rect width="152" height="52" fill="white" transform="translate(0.76123)"/>
</clipPath>
</defs>
</svg>
