<svg width="5" height="10" viewBox="0 0 5 10" fill="none" xmlns="http://www.w3.org/2000/svg">
<g clip-path="url(#clip0_325_14917)">
<path d="M0.641861 4.75553C0.449165 4.95333 0.453298 5.26988 0.651092 5.46258L3.87434 8.60275C4.07213 8.79545 4.38869 8.79132 4.58139 8.59352C4.77408 8.39573 4.76995 8.07917 4.57216 7.88648L1.70705 5.09521L4.49831 2.2301C4.69101 2.03231 4.68687 1.71575 4.48908 1.52306C4.29128 1.33036 3.97473 1.33449 3.78203 1.53229L0.641861 4.75553ZM9.35814 5.34891C9.55084 5.15111 9.5467 4.83456 9.34891 4.64186L6.12566 1.50169C5.92787 1.30899 5.61131 1.31313 5.41861 1.51092C5.22592 1.70872 5.23005 2.02527 5.42784 2.21797L8.29295 5.00923L5.50169 7.87434C5.30899 8.07213 5.31313 8.38869 5.51092 8.58139C5.70872 8.77408 6.02527 8.76995 6.21797 8.57216L9.35814 5.34891ZM1.00653 5.6044L3.00653 5.57829L2.99347 4.57837L0.993473 4.60449L1.00653 5.6044ZM7.00653 5.52607L9.00653 5.49996L8.99347 4.50004L6.99347 4.52615L7.00653 5.52607Z" fill="#929292"/>
</g>
<defs>
<clipPath id="clip0_325_14917">
<rect width="5" height="10" fill="white"/>
</clipPath>
</defs>
</svg>
