<svg width="788" height="788" viewBox="0 0 788 788" fill="none" xmlns="http://www.w3.org/2000/svg">
<g clip-path="url(#clip0_1_60)">
<path d="M394 -0.414795C611.571 -0.414795 788 176.014 788 393.585C788 611.156 611.571 787.585 394 787.585C176.429 787.585 0 611.156 0 393.585C0 176.014 176.429 -0.414795 394 -0.414795Z" fill="#0033AD"/>
<path d="M273.726 392.922C272.565 412.663 287.745 429.584 307.486 430.663C308.233 430.663 308.896 430.663 309.643 430.663C329.55 430.663 345.559 414.654 345.393 394.746C345.393 374.839 329.384 358.83 309.477 358.996C290.482 358.913 274.722 373.844 273.726 392.922Z" fill="white"/>
<path d="M140.015 383.632C133.628 383.217 128.071 388.194 127.822 394.581C127.573 400.968 132.384 406.525 138.771 406.774C145.158 407.189 150.549 402.212 150.964 395.825C151.379 389.438 146.402 384.046 140.015 383.632Z" fill="white"/>
<path d="M271.487 184.724C277.127 181.904 279.45 174.77 276.63 169.13C273.81 163.489 266.676 161.167 261.036 163.987C255.395 166.807 253.073 173.775 255.893 179.498C258.713 185.304 265.681 187.71 271.487 184.724Z" fill="white"/>
<path d="M307.818 248.178C316.61 243.782 320.177 232.999 315.781 224.207C311.384 215.414 300.601 211.848 291.809 216.244C283.016 220.64 279.45 231.423 283.846 240.216C288.242 249.091 299.025 252.575 307.818 248.178Z" fill="white"/>
<path d="M185.471 291.809C192.272 296.205 201.396 294.38 205.876 287.578C210.272 280.777 208.447 271.653 201.645 267.173C194.844 262.777 185.719 264.602 181.24 271.404C176.678 278.205 178.586 287.413 185.471 291.809Z" fill="white"/>
<path d="M207.203 377.245C197.249 376.664 188.871 384.212 188.291 394.166C187.71 404.119 195.258 412.497 205.212 413.078C215.166 413.658 223.543 406.11 224.124 396.156C224.622 386.369 217.073 377.825 207.203 377.245Z" fill="white"/>
<path d="M187.378 497.518C180.162 501.251 177.176 510.043 180.825 517.426C184.558 524.642 193.35 527.628 200.733 523.979C207.949 520.246 210.935 511.454 207.286 504.071C203.636 496.855 194.678 493.869 187.378 497.518Z" fill="white"/>
<path d="M256.971 340.25C266.759 346.637 279.865 343.983 286.086 334.112C292.473 324.324 289.818 311.219 279.948 304.998C270.16 298.611 257.054 301.265 250.833 311.136C244.529 320.758 247.183 333.863 256.971 340.25Z" fill="white"/>
<path d="M477.777 246.768C485.988 252.16 497.186 249.92 502.661 241.626C508.052 233.414 505.813 222.216 497.518 216.741C489.306 211.35 478.108 213.589 472.634 221.884C467.159 230.345 469.399 241.377 477.777 246.768Z" fill="white"/>
<path d="M514.44 183.645C519.831 187.212 526.965 185.636 530.449 180.245C534.015 174.853 532.439 167.72 527.048 164.236C521.656 160.669 514.523 162.245 511.039 167.471C507.555 172.862 509.131 180.079 514.44 183.645Z" fill="white"/>
<path d="M480.431 358.664C460.69 357.503 443.686 372.683 442.69 392.424C441.529 412.165 456.708 429.17 476.45 430.165C477.196 430.165 477.86 430.165 478.441 430.165C498.182 430.165 514.191 414.156 514.191 394.249C514.357 375.42 499.509 359.66 480.431 358.664Z" fill="white"/>
<path d="M319.596 337.679C325.734 349.706 338.093 357.42 351.697 357.42C371.438 357.42 387.447 341.411 387.447 321.504C387.447 315.946 386.203 310.389 383.632 305.329C374.673 287.578 353.107 280.445 335.522 289.403C317.771 298.445 310.638 320.094 319.596 337.679Z" fill="white"/>
<path d="M600.539 291.809C607.755 288.076 610.658 279.201 606.926 271.901C603.276 264.685 594.318 261.782 587.018 265.515C579.802 269.247 576.899 278.04 580.466 285.256C584.364 292.472 593.24 295.459 600.539 291.809Z" fill="white"/>
<path d="M509.711 303.173C499.343 308.398 495.113 321.089 500.338 331.458C505.564 341.826 518.255 346.056 528.623 340.831C538.992 335.605 543.222 322.914 537.996 312.546C532.688 302.177 520.08 298.03 509.711 303.173Z" fill="white"/>
<path d="M392.59 178.254C400.719 178.669 407.603 172.448 408.184 164.319C408.765 156.19 402.378 149.305 394.249 148.725C386.12 148.31 379.235 154.365 378.655 162.494C378.24 170.706 384.461 177.673 392.59 178.254Z" fill="white"/>
<path d="M392.424 270.906C404.037 271.653 413.99 262.694 414.571 250.999C415.318 239.386 406.359 229.432 394.664 228.852C383.051 228.105 373.097 237.064 372.517 248.759C372.019 260.455 380.811 270.326 392.424 270.906Z" fill="white"/>
<path d="M278.288 486.155C288.657 480.929 292.887 468.238 287.661 457.869C282.436 447.501 269.745 443.271 259.376 448.496C249.008 453.722 244.778 466.413 250.003 476.781C255.312 487.15 267.92 491.38 278.288 486.155Z" fill="white"/>
<path d="M406.11 301.763C395.327 318.352 399.889 340.499 416.479 351.282C433.068 362.065 455.215 357.503 465.998 340.914C476.781 324.324 472.219 302.177 455.63 291.394C449.823 287.579 443.022 285.588 436.054 285.588C423.944 285.588 412.746 291.643 406.11 301.763Z" fill="white"/>
<path d="M468.404 451.649C459.445 433.898 437.879 426.764 420.294 435.723C402.543 444.681 395.41 466.247 404.368 483.832C413.326 501.583 434.893 508.716 452.478 499.758C470.062 490.966 477.362 469.648 468.486 451.897C468.569 451.814 468.569 451.814 468.404 451.649Z" fill="white"/>
<path d="M531.029 449.077C521.242 442.69 508.136 445.344 501.915 455.215C495.528 465.003 498.182 478.109 508.053 484.33C517.841 490.717 530.946 488.062 537.167 478.192C543.471 468.57 540.817 455.464 531.029 449.077Z" fill="white"/>
<path d="M599.709 395.327C600.29 385.373 592.742 376.996 582.788 376.415C572.834 375.835 564.457 383.383 563.876 393.336C563.295 403.29 570.844 411.668 580.797 412.248C590.668 412.746 599.129 405.115 599.709 395.327Z" fill="white"/>
<path d="M649.229 382.553C642.842 382.138 637.284 387.115 637.036 393.502C636.787 399.889 641.598 405.447 647.985 405.695C654.372 406.11 659.763 401.133 660.178 394.746C660.51 388.36 655.699 382.968 649.229 382.553Z" fill="white"/>
<path d="M602.53 497.518C595.728 493.122 586.604 494.947 582.125 501.749C577.729 508.55 579.553 517.675 586.355 522.154C593.157 526.55 602.281 524.725 606.76 517.923C611.322 511.122 609.414 501.915 602.53 497.518Z" fill="white"/>
<path d="M273.478 605.682C268.086 602.115 260.952 603.691 257.469 608.916C253.902 614.308 255.478 621.442 260.704 624.925C266.095 628.492 273.229 626.916 276.712 621.69C280.445 616.465 278.869 609.248 273.478 605.682Z" fill="white"/>
<path d="M516.513 604.603C510.873 607.424 508.55 614.557 511.371 620.198C514.191 625.838 521.324 628.16 526.965 625.34C532.605 622.52 534.928 615.552 532.107 609.829C529.287 604.023 522.32 601.617 516.513 604.603Z" fill="white"/>
<path d="M381.89 487.565C392.673 470.975 388.111 448.828 371.521 437.879C354.932 427.096 332.785 431.658 321.836 448.248C310.887 464.837 315.615 486.984 332.204 497.933C338.011 501.749 344.812 503.739 351.78 503.739C364.056 503.905 375.254 497.767 381.89 487.565Z" fill="white"/>
<path d="M310.223 542.559C302.011 537.167 290.813 539.407 285.339 547.701C279.947 555.913 282.187 567.111 290.481 572.586C298.693 577.977 309.891 575.738 315.366 567.443C320.923 559.148 318.601 547.95 310.223 542.559Z" fill="white"/>
<path d="M393.834 611.073C385.705 610.659 378.82 616.88 378.24 625.008C377.659 633.137 384.046 640.022 392.175 640.603C400.304 641.017 407.188 634.962 407.769 626.833C408.184 618.622 401.963 611.654 393.834 611.073Z" fill="white"/>
<path d="M394 518.421C382.387 517.674 372.434 526.633 371.853 538.328C371.107 549.941 380.065 559.895 391.76 560.475C403.373 561.056 413.327 552.263 413.907 540.568C414.571 529.038 405.613 519.002 394 518.421Z" fill="white"/>
<path d="M480.182 541.149C471.39 545.711 467.823 556.494 472.385 565.286C476.947 574.079 487.731 577.645 496.523 573.083C505.315 568.687 508.882 557.904 504.486 549.111C499.924 540.236 489.141 536.586 480.182 541.149Z" fill="white"/>
</g>
<defs>
<clipPath id="clip0_1_60">
<rect width="788" height="788" fill="white"/>
</clipPath>
</defs>
</svg>
