<svg version="1.1" id="Layer_1" xmlns="http://www.w3.org/2000/svg" x="0" y="0" viewBox="0 0 40 40" xml:space="preserve"><style>.st5{fill:#ac562a}</style><linearGradient id="SVGID_1_" gradientUnits="userSpaceOnUse" x1="166.792" y1="-1122.228" x2="204.084" y2="-1122.228" gradientTransform="rotate(90 -468.38 -633.798)"><stop offset=".001" stop-color="#f9b758"/><stop offset="1" stop-color="#b36234"/></linearGradient><path d="M37.1 26.3V13.7c0-2.1-1.1-4.1-3-5.2l-11-6.3c-1.8-1.1-4.2-1.1-6 0l-11 6.3c-1.9 1.1-3 3.1-3 5.2v12.6c0 2.1 1.1 4.1 3 5.2l11 6.3c1.8 1.1 4.2 1.1 6 0l11-6.3c1.7-1.1 3-3 3-5.2z" fill="url(#SVGID_1_)"/><path d="M24.9 19.6c.1 0 .3 0 .3.2l.3 1c0 .1-.1.3-.2.3s-.3-.1-.3-.2l-.3-1c-.1-.1 0-.2.1-.3 0 .1.1 0 .1 0zm-7.5-7.3c-.1-.1-.1-.3.1-.4l.9-.6c.1-.1.3-.1.4.1.1.2.1.3-.1.5l-.9.5c-.1 0-.3 0-.4-.1z" fill="#fff"/><linearGradient id="SVGID_2_" gradientUnits="userSpaceOnUse" x1="18.509" y1="22.738" x2="24.768" y2="22.738" gradientTransform="matrix(1 0 0 -1 0 42)"><stop offset=".001" stop-color="#f9b758"/><stop offset="1" stop-color="#c16b3d"/></linearGradient><path d="M21.7 15.7c-1.1-.2-2.2 0-3.2.5 1.5-.5 3.1-.1 4.2.9 1.6 1.5 1.6 3.8 0 5.3-.2.2-.4.3-.6.5.6-.2 1.1-.5 1.6-.9 1.1-1 1.4-2.5 1-3.8-1.3-.5-2.4-1.3-3-2.5z" fill="url(#SVGID_2_)"/><radialGradient id="SVGID_3_" cx="-929.581" cy="-479.158" r=".776" gradientTransform="matrix(0 12.1394 -12.017 0 -5738.007 11304.47)" gradientUnits="userSpaceOnUse"><stop offset=".334" stop-color="#f7b450"/><stop offset=".648" stop-color="#ffc977"/><stop offset="1" stop-color="#f90"/></radialGradient><path d="M28 24.3h0c-2.3 4.3-7.7 6-12.1 3.7 0 0-.1 0-.1-.1-4.4-2.4-6-7.9-3.6-12.3 1.5-2.8 4.4-4.6 7.5-4.7.4 0 .8.2.9.6.2.4.3.9.3 1.4v.6c0 .9.2 1.8.7 2.6-1.9-.7-4.1.1-5 1.9-1.1 2-.4 4.5 1.6 5.6s4.5.4 5.6-1.6h0c.6-1.1.7-2.4.2-3.5.8.4 1.7.6 2.6.6.5 0 1-.1 1.5-.2.3-.1.5-.1.8.1.2.1.3.3.3.5 0 1.6-.4 3.3-1.2 4.8z" fill="url(#SVGID_3_)" stroke="#ac562a" stroke-width="1.072"/><path d="M25.6 22.5l.3-.1h0c.2.6.1 1.2-.3 1.7v.1c-.1.2-.2.4-.3.7-.1.3-.1.6 0 .9.1.2.3.4.5.5.3 0 .7 0 .9-.3 1.5-1.8 2.3-4.1 2.2-6.4 0-.2-.1-.4-.3-.5-.2-.1-.5-.1-.8-.1-.5.1-1 .2-1.4.2-.9 0-1.8-.2-2.6-.7.4 1.1.4 2.4-.1 3.5-.1.2-.2.4-.3.5.3-.1.6-.3.9-.5.6-.4 1.1-.1 1.3.5zm0 0c.1.5 0 1-.3 1.4-.1.2-.2.5-.3.8l.6-2.2zm-6.2-6.7h0c-.7.2-1.5.2-2.2-.1-.5-.3-.9-.8-1.2-1.3-.3-.5-.3-1.1-.2-1.7.1-.5.4-.9.8-1.1 1.1-.5 2.2-.7 3.4-.7.3 0 .6.2.8.5.2.4.3.8.2 1.2-.1.3-.1.6-.1.9 0 .9.2 1.8.7 2.6-.7-.3-1.5-.4-2.2-.3z" fill="#ac562a" stroke="#ac562a" stroke-width="1.072"/><circle class="st5" cx="13.3" cy="17.9" r=".5"/><circle class="st5" cx="20.1" cy="26.1" r=".5"/><circle class="st5" cx="17.2" cy="26.5" r=".8"/></svg>