<svg width="788" height="788" viewBox="0 0 788 788" fill="none" xmlns="http://www.w3.org/2000/svg">
<g clip-path="url(#clip0_1_2)">
<path d="M394 788C611.6 788 788 611.6 788 394C788 176.4 611.6 0 394 0C176.4 0 0 176.4 0 394C0 611.6 176.4 788 394 788Z" fill="#0AC18E"/>
<path d="M516.9 261.7C497.1 216.8 451.6 207.2 395.9 216.5L378 147.1L335.8 158L353.4 227.2C342.3 230 330.9 232.4 319.6 235.6L302 166.8L259.8 177.7L277.7 247.1C268.6 249.7 192.5 269.2 192.5 269.2L204.1 314.4C204.1 314.4 235.1 305.7 234.8 306.4C252 301.9 260.1 310.5 263.9 318.6L313.1 508.8C313.7 514.3 312.7 523.7 300.9 526.9C301.6 527.3 270.2 534.8 270.2 534.8L274.8 587.5C274.8 587.5 350.2 568.2 360.1 565.7L378.2 635.9L420.4 625L402.3 554.3C413.9 551.6 425.2 548.8 436.2 545.9L454.2 616.2L496.4 605.3L478.3 535.2C543.3 519.4 589.2 478.4 579.8 415.7C573.8 377.9 532.5 346.9 498.2 343.4C519.3 324.7 530 297.4 516.9 261.7ZM496.6 427.2C505 489.3 418.7 496.9 390.2 504.4L365.4 411.5C394 404 482.4 372.5 496.6 427.2ZM444.6 300.7C453.5 355.9 379.7 362.3 355.9 368.4L333.3 284.1C357.2 278.2 426.5 249.6 444.6 300.7Z" fill="white"/>
</g>
<defs>
<clipPath id="clip0_1_2">
<rect width="788" height="788" fill="white"/>
</clipPath>
</defs>
</svg>
