<svg width="788" height="788" viewBox="0 0 788 788" fill="none" xmlns="http://www.w3.org/2000/svg">
<g clip-path="url(#clip0_1_100)">
<path d="M393.357 788.642C610.925 788.642 787.357 612.21 787.357 394.642C787.357 177.074 610.925 0.641968 393.357 0.641968C175.789 0.641968 -0.643066 177.074 -0.643066 394.642C-0.482381 612.21 175.789 788.642 393.357 788.642Z" fill="#3AB83A"/>
<path d="M393.678 131.761V325.792L557.872 398.975L393.678 131.761Z" fill="white" fill-opacity="0.602"/>
<path d="M393.679 131.761L229.485 398.975L393.679 325.792V131.761Z" fill="white"/>
<path d="M393.678 524.638V656.399L558.033 429.468L393.678 524.638Z" fill="white" fill-opacity="0.602"/>
<path d="M393.679 656.399V524.638L229.485 429.468L393.679 656.399Z" fill="white"/>
<path d="M393.678 494.145L557.872 398.975L393.678 325.792V494.145Z" fill="white" fill-opacity="0.2"/>
<path d="M229.485 398.975L393.679 494.145V325.792L229.485 398.975Z" fill="white" fill-opacity="0.602"/>
</g>
<defs>
<clipPath id="clip0_1_100">
<rect width="788" height="788" fill="white"/>
</clipPath>
</defs>
</svg>
