<svg width="40" height="40" viewBox="0 0 40 40" fill="none" xmlns="http://www.w3.org/2000/svg"><rect fill="#010304" width="40" height="40" rx="12"/><g transform="translate(4 4)"><circle cx="16" cy="16" r="14" fill="#fff"/><svg width="32" height="32" viewBox="0 0 32 32" xmlns="http://www.w3.org/2000/svg"><g clip-path="url(#clip0_261:1111)"><circle cx="16" cy="16" r="16" fill="#010304"/><path d="M16 29c7.18 0 13-5.82 13-13S23.18 3 16 3 3 8.82 3 16s5.82 13 13 13z" fill="#010304"/><path fill-rule="evenodd" clip-rule="evenodd" d="M21.87 19.4c0 3.852-3.108 5.05-5.44 5.05-.717 0-1.452-.129-2.164-.254-.67-.117-1.319-.231-1.915-.231-1.004 0-1.586.194-2.04.453v-6.475h.033c1.004 2.363 2.817 6.183 6.313 6.183 1.78 0 3.011-.97 3.011-2.88 0-1.226-1.002-1.99-2.628-2.706v-4.166c2.932 1.052 4.83 2.35 4.83 5.026zm-6.455-5.64c-2.185-.866-3.258-1.531-3.258-2.972 0-1.91 1.457-2.882 3.108-2.882 2.234 0 3.982 1.91 5.795 5.407h.033L20.8 7.777c-.291.065-.68.13-1.036.13-.617 0-1.14-.074-1.712-.154-.69-.096-1.45-.203-2.53-.203-2.427 0-5.535 1.392-5.535 5.05 0 2.235.971 3.789 4.662 5.019.262.094.518.186.765.277V13.76z" fill="#fff"/><path d="M16.975 5.275H15.35v2.6h1.625v-2.6zM16.975 24.125H15.35v2.6h1.625v-2.6z" fill="#fff"/></g><defs><clipPath id="clip0_261:1111"><rect width="32" height="32" rx="16" fill="#fff"/></clipPath></defs></svg></g></svg>