<svg width="788" height="788" viewBox="0 0 788 788" fill="none" xmlns="http://www.w3.org/2000/svg">
<g clip-path="url(#clip0_1_108)">
<path d="M393.698 787.527C611.379 787.527 787.698 611.015 787.698 393.37C787.698 175.724 611.379 -0.787964 393.698 -0.787964C176.017 -0.787964 -0.301758 175.724 -0.301758 393.37C-0.301758 611.015 176.168 787.527 393.698 787.527Z" fill="#FF060A"/>
<path d="M615.304 322.607C593.566 302.434 563.374 271.702 538.919 249.954L537.41 249.008C534.994 247.117 532.277 245.541 529.409 244.438C470.233 233.406 194.886 181.87 189.603 182.501C188.093 182.658 186.584 183.289 185.376 184.077L184.017 185.18C182.357 186.914 180.998 188.962 180.243 191.326L179.941 192.272V197.473V198.261C210.888 284.626 333.315 567.36 357.468 633.867C358.977 638.438 361.695 646.948 366.827 647.421H368.035C370.752 647.421 382.527 631.818 382.527 631.818C382.527 631.818 592.811 376.822 614.096 349.714C616.813 346.405 619.229 342.78 621.342 338.998C621.946 336.003 621.644 333.009 620.587 330.172C619.531 327.335 617.568 324.656 615.304 322.607ZM436.268 352.394L525.937 278.006L578.621 326.547L436.268 352.394ZM401.397 347.508L246.967 220.798L496.953 266.974L401.397 347.508ZM415.285 380.604L573.338 355.073L392.641 573.034L415.285 380.604ZM225.984 233.563L388.565 371.463L365.016 573.191L225.984 233.563Z" fill="white"/>
</g>
<defs>
<clipPath id="clip0_1_108">
<rect width="788" height="788" fill="white"/>
</clipPath>
</defs>
</svg>
