<svg width="34" height="34" viewBox="0 0 34 34" fill="none" xmlns="http://www.w3.org/2000/svg">
<g clip-path="url(#clip0_835_348)">
<path d="M16.8319 32.0083C25.8123 32.0083 32.8319 24.9887 32.8319 16.0083C32.8319 7.02787 25.8123 0.00830078 16.8319 0.00830078C7.85148 0.00830078 0.831909 7.02787 0.831909 16.0083C0.831909 24.9887 7.85148 32.0083 16.8319 32.0083Z" fill="white"/>
<path d="M7.83191 9.0083C6.77498 7.90259 5.95388 7.08149 4.83191 6.0083H7.83191C9.05145 7.27662 10.6124 7.75624 11.8319 9.0083L12.8319 11.0083C13.416 11.6402 13.9894 11.8334 14.8319 12.0083C15.6744 12.1832 17.0446 12.3555 17.8319 12.0083C18.3046 11.7882 18.4658 11.3796 18.8319 11.0083L19.8319 10.0083C20.1083 9.73187 20.5392 9.28473 20.8319 9.0083C21.1246 8.73187 21.4254 8.39855 21.8319 8.0083C22.6612 7.14649 23.9701 6.95141 24.8319 6.0083H27.8319C27.4254 6.41481 27.2547 6.60179 26.8319 7.0083L23.8319 10.0083C23.3604 10.4473 22.3035 10.5693 21.8319 11.0083L20.8319 13.0083C20.3373 13.5145 19.4673 13.6966 18.8319 14.0083C17.8394 14.4816 16.9296 15.0737 15.8319 15.0083C14.7343 14.9429 13.7612 14.5961 12.8319 14.0083C12.3132 13.6537 11.2414 12.4849 10.8319 12.0083C10.3604 11.5367 10.3035 11.4636 9.83191 11.0083C9.36035 10.553 9.18964 10.3498 8.83191 10.0083C8.47418 9.66683 8.18964 9.38229 7.83191 9.0083ZM23.8319 22.0083L22.8319 21.0083C22.4904 20.6343 22.1571 20.3823 21.8319 20.0083L20.8319 19.0083C19.7149 17.8776 18.4178 17.1138 16.8319 17.0083C16.6263 16.9922 16.0376 16.9922 15.8319 17.0083C15.4662 17.0266 15.1916 16.94 14.8319 17.0083C13.6983 17.232 12.6878 17.232 11.8319 18.0083C11.5555 18.2685 11.1246 18.7481 10.8319 19.0083C9.48229 20.3742 8.19779 21.5774 6.83191 23.0083C6.27905 23.5286 5.41729 24.4554 4.83191 25.0083V26.0083H7.83191C8.70998 25.1302 9.98636 23.8864 10.8319 23.0083C11.3035 22.5693 11.3766 22.4311 11.8319 22.0083L12.8319 20.0083C13.4967 19.3634 14.91 19.0969 15.8319 19.0083C16.7539 18.9197 17.0564 19.5019 17.8319 20.0083C18.2046 20.2623 18.5353 20.6685 18.8319 21.0083C19.2059 21.3823 20.4742 21.618 20.8319 22.0083C21.1896 22.3986 21.3604 22.5855 21.8319 23.0083L24.8319 26.0083H27.8319C27.4254 25.6018 27.2384 25.3986 26.8319 25.0083C25.9538 24.2278 24.6937 22.9026 23.8319 22.0083Z" fill="black"/>
</g>
<defs>
<clipPath id="clip0_835_348">
<rect width="33" height="33" fill="white" transform="translate(0.831909 0.00830078)"/>
</clipPath>
</defs>
</svg>
