<svg width="100" height="100" viewBox="0 0 100 100" fill="none" xmlns="http://www.w3.org/2000/svg">
<g clip-path="url(#clip0_1_6)">
<path d="M50 100C77.6142 100 100 77.6142 100 50C100 22.3858 77.6142 0 50 0C22.3858 0 0 22.3858 0 50C0 77.6142 22.3858 100 50 100Z" fill="#9396D6"/>
<mask id="mask0_1_6" style="mask-type:luminance" maskUnits="userSpaceOnUse" x="0" y="0" width="100" height="100">
<path d="M50 100C77.6142 100 100 77.6142 100 50C100 22.3858 77.6142 0 50 0C22.3858 0 0 22.3858 0 50C0 77.6142 22.3858 100 50 100Z" fill="white"/>
</mask>
<g mask="url(#mask0_1_6)">
<path d="M65 75.9L92.9 83.6C96.1 84.7 98.6 87.1 100 90.2V100H0V90.2C1.3 87.1 3.9 84.7 7.1 83.6L35 75.9V61H65V75.9Z" fill="#E6C19C"/>
</g>
<mask id="mask1_1_6" style="mask-type:luminance" maskUnits="userSpaceOnUse" x="0" y="0" width="100" height="100">
<path d="M50 100C77.6142 100 100 77.6142 100 50C100 22.3858 77.6142 0 50 0C22.3858 0 0 22.3858 0 50C0 77.6142 22.3858 100 50 100Z" fill="white"/>
</mask>
<g mask="url(#mask1_1_6)">
<mask id="mask2_1_6" style="mask-type:luminance" maskUnits="userSpaceOnUse" x="0" y="61" width="100" height="39">
<path d="M65 75.9L92.9 83.6C96.1 84.7 98.6 87.1 100 90.2V100H0V90.2C1.3 87.1 3.9 84.7 7.1 83.6L35 75.9V61H65V75.9Z" fill="white"/>
</mask>
<g mask="url(#mask2_1_6)">
<path d="M50 78C48.3 78 46.1 77.6 44.6 76.9C42.9 76 36.6 70.8 34.4 68.6C31.6 65.6 30.2 61.8 29.8 55.3C29.4 48.8 27.7 25.6 27.7 20.3C27.7 12.8 33.4 1.10001 49.8 1.10001H49.9H50C66.5 1.20001 72.1 12.8 72.1 20.3C72.1 25.6 70.4 48.8 70 55.3C69.6 61.8 68.2 65.5 65.4 68.6C63.3 70.9 57 76 55.2 76.9C53.9 77.6 51.7 78 50 78Z" fill="#D4B08C"/>
</g>
<mask id="mask3_1_6" style="mask-type:luminance" maskUnits="userSpaceOnUse" x="0" y="61" width="100" height="39">
<path d="M65 75.9L92.9 83.6C96.1 84.7 98.6 87.1 100 90.2V100H0V90.2C1.3 87.1 3.9 84.7 7.1 83.6L35 75.9V61H65V75.9Z" fill="white"/>
</mask>
<g mask="url(#mask3_1_6)">
<path d="M0 58H100V100H0V58ZM50 88C61 88 70 81.7 70 74C70 66.3 61 60 50 60C39 60 30 66.3 30 74C30 81.7 39 88 50 88Z" fill="#FC7777"/>
</g>
</g>
<path d="M50 74C48.5 74 46.5 73.7 45.2 73.1C43.6 72.4 38 68.5 36.1 66.8C33.6 64.5 32.3 61.7 31.9 56.8C31.5 51.9 30 34.5 30 30.5C30 24.8 35.1 16 50 16C64.9 16 70 24.8 70 30.5C70 34.5 68.5 52 68.1 56.9C67.7 61.8 66.5 64.6 63.9 66.9C62 68.6 56.3 72.5 54.8 73.2C53.5 73.7 51.5 74 50 74Z" fill="#F2CEA5"/>
<path d="M68 41.5C68 41.5 69.6 41.9 72.5 40.9C72.9 39.1 74 33.9 74 31C74 28.1 73.7 25.3 72.1 22.9C70.3 20.3 66.5 18.8 64.5 18.8C62.2 20.2 56.8 23.4 55.1 25.3C54.2 26.3 55.5 27.1 55.5 27.1C55.5 27.1 56.7 26.6 57.2 26.5C59.7 25.8 63.5 26.2 65.6 28.1C68 30.3 68 35.5 68.1 36.9C68 38.2 68 41.5 68 41.5Z" fill="#D98C21"/>
<path d="M27.5 41C30.4 42 32 44.4 32 44.4C32 44.4 32 39.2 32 38.1C32 36.5 32 31.6 34.4 28.4C37.6 24.1 42.8 23.1 45.5 24.9C46.9 25.8 51.6 30.4 56.6 26.6C59.6 24.3 65.1 19.1 65.1 19.1C65.1 19.1 62.2 10.2 49 11.2C43.4 11.7 37.2 10.3 37.2 10.3C37.2 10.3 37.1 12.8 38.1 14.1C29.8 16.4 27.1 22.4 26.3 27C26.1 27.9 26 28.8 26 29.7C26 30.2 26 30.7 26 31.1C26 34 27.1 39.1 27.5 41Z" fill="#E6A422"/>
<path d="M57 60H43C42.6 60 42.4 60.4 42.6 60.8C43.9 63.1 46.3 64.3 49.3 64.5C52.4 64.7 55.8 63.2 57.4 60.8C57.6 60.5 57.4 60 57 60Z" fill="#A3705F"/>
<path d="M59 47C60.1046 47 61 46.1046 61 45C61 43.8954 60.1046 43 59 43C57.8954 43 57 43.8954 57 45C57 46.1046 57.8954 47 59 47Z" fill="#262626"/>
<path d="M41 47C42.1046 47 43 46.1046 43 45C43 43.8954 42.1046 43 41 43C39.8954 43 39 43.8954 39 45C39 46.1046 39.8954 47 41 47Z" fill="#262626"/>
<path d="M35 42C35 42 36.1 39 41.1 39C44.5 39 46.5 40.5 47.5 42" stroke="#CC9872" stroke-width="2"/>
<path d="M65.1 42C65.1 42 64 39 59 39C54.2 39 52 42 52 44C52 45.9 52 53 52 53" stroke="#BB8660" stroke-width="2"/>
<path d="M73 37C73 24.3 62.7 14 50 14C37.3 14 27 24.3 27 37V45H30V37C29.9 26 38.9 16.9 50 17C61.1 16.9 70.1 26 70 37V46H73V37Z" fill="#6B363E"/>
<path d="M71 55.2C70.9 68.3 58 69 58 69" stroke="#6B363E" stroke-width="2"/>
<path d="M52.3 67.9L58.1 66.3C59.2 66 60.3 66.6 60.5 67.7L61 69.6C61.3 70.7 60.7 71.8 59.6 72L53.8 73.6C52.7 73.9 51.6 73.3 51.4 72.2L50.9 70.3C50.6 69.3 51.3 68.2 52.3 67.9Z" fill="#452228"/>
<path d="M32 58C26.9 57.5 23 53.2 23 48C23 42.8 26.9 38.6 32 38V58Z" fill="#6B363E"/>
<mask id="mask4_1_6" style="mask-type:luminance" maskUnits="userSpaceOnUse" x="23" y="38" width="9" height="20">
<path d="M32 58C26.9 57.5 23 53.2 23 48C23 42.8 26.9 38.6 32 38V58Z" fill="white"/>
</mask>
<g mask="url(#mask4_1_6)">
<path d="M30 38H23V58H30V38Z" fill="#452228"/>
</g>
<path d="M68 58C73.1 57.5 77 53.2 77 48C77 42.8 73.1 38.6 68 38V58Z" fill="#6B363E"/>
<mask id="mask5_1_6" style="mask-type:luminance" maskUnits="userSpaceOnUse" x="68" y="38" width="9" height="20">
<path d="M68 58C73.1 57.5 77 53.2 77 48C77 42.8 73.1 38.6 68 38V58Z" fill="white"/>
</mask>
<g mask="url(#mask5_1_6)">
<path d="M78 38H70V58H78V38Z" fill="#452228"/>
</g>
</g>
<defs>
<clipPath id="clip0_1_6">
<rect width="100" height="100" fill="white"/>
</clipPath>
</defs>
</svg>
