<svg width="36" height="26" viewBox="0 0 36 26" fill="none" xmlns="http://www.w3.org/2000/svg">
<rect x="0.5" y="6.5" width="35" height="15" rx="2.5" stroke="#FFCA10"/>
<path d="M5.63846 13.1875V18H4.06066V9.89466H5.57513V11.2139H5.6754C5.86185 10.7847 6.15384 10.4399 6.55136 10.1796C6.95241 9.91928 7.45723 9.78912 8.06584 9.78912C8.61816 9.78912 9.10187 9.90521 9.51699 10.1374C9.93211 10.3661 10.254 10.7073 10.4827 11.1611C10.7113 11.6149 10.8257 12.176 10.8257 12.8445V18H9.24787V13.0344C9.24787 12.4469 9.09484 11.9878 8.78878 11.6571C8.48272 11.3229 8.06232 11.1558 7.52759 11.1558C7.16173 11.1558 6.83632 11.235 6.55136 11.3933C6.26993 11.5516 6.04654 11.7838 5.8812 12.0899C5.71937 12.3924 5.63846 12.7583 5.63846 13.1875ZM16.435 18.1636C15.6365 18.1636 14.9487 17.993 14.3718 17.6517C13.7983 17.307 13.3551 16.8232 13.042 16.2006C12.7324 15.5744 12.5776 14.8409 12.5776 14.0001C12.5776 13.1699 12.7324 12.4381 13.042 11.8049C13.3551 11.1717 13.7913 10.6774 14.3506 10.3221C14.9135 9.96678 15.5714 9.78912 16.3242 9.78912C16.7815 9.78912 17.2248 9.86476 17.654 10.016C18.0832 10.1673 18.4684 10.4048 18.8096 10.7284C19.1509 11.0521 19.42 11.4725 19.617 11.9896C19.814 12.5032 19.9125 13.1276 19.9125 13.8629V14.4223H13.4694V13.2402H18.3664C18.3664 12.8251 18.2819 12.4575 18.1131 12.1373C17.9442 11.8137 17.7068 11.5586 17.4007 11.3722C17.0982 11.1857 16.7428 11.0925 16.3348 11.0925C15.8915 11.0925 15.5045 11.2016 15.1738 11.4197C14.8467 11.6343 14.5934 11.9157 14.414 12.264C14.2381 12.6088 14.1501 12.9834 14.1501 13.388V14.3114C14.1501 14.8532 14.2451 15.3141 14.4351 15.694C14.6286 16.0739 14.8977 16.3642 15.2424 16.5647C15.5872 16.7617 15.99 16.8602 16.4509 16.8602C16.7499 16.8602 17.0225 16.818 17.2688 16.7335C17.515 16.6456 17.7279 16.5154 17.9073 16.343C18.0867 16.1707 18.2239 15.9578 18.3189 15.7045L19.8123 15.9737C19.6926 16.4134 19.478 16.7986 19.1685 17.1293C18.8624 17.4565 18.4772 17.7115 18.0128 17.8945C17.552 18.0739 17.026 18.1636 16.435 18.1636ZM23.4058 18L21.0207 9.89466H22.6512L24.2396 15.847H24.3187L25.9124 9.89466H27.5429L29.126 15.8206H29.2052L30.783 9.89466H32.4135L30.0336 18H28.4242L26.7778 12.1479H26.6564L25.01 18H23.4058Z" fill="#FFCA10"/>
</svg>
