<svg width="373" height="377" viewBox="0 0 373 377" fill="none" xmlns="http://www.w3.org/2000/svg">
<path d="M46.0188 51.9148L6.34155 120.181L133.456 47.5105L268.652 128.255V81.2764L133.456 2L46.0188 51.9148Z" fill="white" fill-opacity="0.03"/>
<path d="M326.981 325.662L366.658 257.396L239.544 330.066L104.348 249.321V296.3L239.544 375.577L326.981 325.662Z" fill="white" fill-opacity="0.03"/>
<path d="M238.595 0.846985H158.539L279.724 72.7862V229.144L319.385 204.919V47.8277L238.595 0.846985Z" fill="white" fill-opacity="0.03"/>
<path d="M134.405 376.153H214.461L93.2756 304.214V147.856L53.6151 172.081V329.172L134.405 376.153Z" fill="white" fill-opacity="0.03"/>
<path d="M173.529 85.5328L135.293 59.0742L0 139.185V240.61L41.1763 310.431V162.704L173.529 85.5328Z" fill="white" fill-opacity="0.03"/>
<path d="M199.471 292.044L237.707 318.502L373 238.391V136.967L331.824 67.1453V214.873L199.471 292.044Z" fill="white" fill-opacity="0.03"/>
</svg>
