<svg width="168" height="37" viewBox="0 0 168 37" fill="none" xmlns="http://www.w3.org/2000/svg">
<g clip-path="url(#clip0_0_357)">
<path d="M33.8947 34.7347H0V0H33.8947V34.7347Z" fill="white"/>
<path d="M13.2632 28.6938H20.6316V21.1428H28V13.5918H20.6316V6.04077H13.2632V13.5918H5.89473V21.1428H13.2632V28.6938Z" fill="#212227"/>
<path d="M162.916 3.77551L159.526 8.98571L156.284 3.77551H150.905L151.421 4.53061C150.611 4.22857 149.358 3.77551 148.474 3.77551H140.811V8.75918C140.516 7.62653 139.926 6.6449 139.042 5.81429C137.642 4.53061 136.021 3.7 133.074 3.7H133C130.126 3.7 128.579 4.53061 127.179 5.81429C126.368 6.56939 125.779 7.55102 125.411 8.68367C125.263 8.30612 125.042 7.62653 124.968 7.32449C124.526 6.34286 123.789 5.51224 122.905 4.90816C122.095 4.37959 121.284 4.07755 120.326 3.92653C120.326 3.92653 119.663 3.7 118.263 3.7C115.242 3.62449 113.842 4.4551 112.516 5.73877C111.189 7.02245 110.526 8.9102 110.453 11.3265V11.5531C109.937 10.949 109.347 10.4204 108.611 10.1184C107.137 9.51429 105.663 9.06122 104.116 8.83469C103.526 8.75918 103.011 8.60816 102.495 8.30612C102.274 8.1551 102.2 7.92857 102.2 7.70204C102.2 7.4 102.347 7.09796 102.642 6.87143C103.011 6.6449 103.453 6.49388 103.895 6.56939C104.484 6.56939 105 6.72041 105.516 7.02245C105.958 7.32449 106.179 7.85306 106.253 8.38163H110.821C110.747 7.02245 110.011 5.73878 108.905 4.90816C107.505 4.07755 105.958 3.7 104.411 3.7C102.495 3.7 101.832 4.00204 100.579 4.4551C99.7684 4.75714 99.0316 5.28571 98.5158 6.04082C98.0737 6.6449 97.8526 7.4 97.8526 8.1551C97.8526 9.28775 98.3684 10.3449 99.179 11.0245C100.505 11.9306 102.053 12.5347 103.674 12.7612C104.558 12.9122 105.368 13.1388 106.105 13.6673C106.4 13.8939 106.621 14.2714 106.621 14.649C106.621 15.102 106.4 15.4796 106.032 15.7061C105.589 16.0082 105 16.2347 104.411 16.1592C103.6 16.2347 102.863 15.8571 102.274 15.2531C101.905 14.8755 101.758 14.3469 101.684 13.8184H97.3369L93.2842 3.77551H88.3474L83.2632 16.8388L78.6211 9.5898L84.5895 3.77551H78.3263L73.0947 9.51429V3.77551H68.2316V13.7429C68.1579 14.1959 67.9368 14.5735 67.5684 14.8755C67.0526 15.3286 66.3158 15.5551 65.6526 15.5551C64.9158 15.6306 64.2526 15.3286 63.7368 14.8755C63.2211 14.3469 63 13.6673 63.0737 12.9878V3.77551H58.2842V7.32449C58.2105 6.79592 58.1368 6.26735 57.9158 5.81429C57.6211 4.68163 57.1053 3.7 56.3684 2.86939C55.6316 2.03878 54.6737 1.35918 53.6421 0.906122C52.3158 0.302041 50.8421 0 49.3684 0H40.5263V18.8776H48.6316C50.1053 18.7265 51.579 18.5755 53.0526 18.1224C54.0842 17.8959 54.9684 17.3673 55.779 16.6878C56.6632 15.9327 57.3263 15.0265 57.7684 13.9694C58.0632 13.2898 58.2105 12.5347 58.3579 11.7796V12.8367C58.3579 13.6673 58.5053 14.498 58.8 15.3286C59.0211 15.9327 59.3895 16.5367 59.8316 17.0653C60.2737 17.5939 60.8632 18.0469 61.4526 18.349C62.1158 18.651 62.9263 18.8776 63.6632 18.9531C64.5474 19.0286 65.3579 19.1041 66.0947 19.1041C66.979 19.1041 67.7158 19.1041 68.6 18.8776H72.9474V15.5551L75.5263 12.7612L78.7684 18.8776H87.5368L88.2737 16.3857H93.7263L94.4632 18.8776H99.4737L99.0316 17.5939C100.063 18.5755 101.832 19.0286 104.484 19.0286C105.737 19.1041 107.063 18.8776 108.242 18.4245C109.2 18.0469 109.937 17.4429 110.526 16.6122C110.895 16.1592 111.116 15.5551 111.263 14.951C111.411 15.2531 111.558 15.5551 111.779 15.8571C112.442 16.9143 113.4 17.8204 114.505 18.349C115.832 18.8775 117.232 19.1041 118.632 19.0286C119.221 19.0286 119.811 18.9531 120.474 18.8776C121.063 18.802 121.579 18.651 122.095 18.4245C122.979 18.0469 123.716 17.4429 124.305 16.6878C124.747 16.1592 125.116 15.5551 125.337 14.8755C125.411 14.7245 125.484 14.3469 125.484 14.0449C125.632 14.5735 125.926 15.1776 126.221 15.6306C126.884 16.7633 127.842 17.5939 129.021 18.1224C130.347 18.651 130.863 18.9531 132.484 18.9531H133.663C134.842 18.9531 136.316 18.651 137.716 17.9714C139.263 17.1408 140.442 15.7061 140.958 13.9694V18.8776H145.747V13.2143H148.4C150.316 13.2143 151.789 12.8367 152.674 12.0061C153.632 11.1 154.147 9.81633 154.074 8.53265C154.074 8.38163 154.074 8.1551 154.074 8.00408L157.316 12.6102V18.802H162.105V12.6102L168 4.07755L167.042 3.77551H162.916ZM51.9474 12.6857C51.7263 13.2898 51.2842 13.7429 50.6947 14.1204C50.2526 14.3469 49.8105 14.2714 49.3684 14.3469H48.6316H46.4211V4.53061H49.3684C50.1053 4.53061 52.3895 5.05918 52.3895 9.43878C52.4632 10.5714 52.3158 11.6286 51.9474 12.6857ZM89.379 13.1388L91 8.07959L91.0737 7.85306L92.7684 13.1388H89.379ZM125.337 13.4408H121.137C121.063 13.9694 120.768 14.498 120.474 14.8755C119.884 15.4041 119.147 15.6306 118.411 15.6306C117.6 15.7061 116.789 15.3286 116.2 14.7245C115.684 14.1204 115.389 12.9878 115.389 11.402C115.316 10.4204 115.537 9.36327 116.053 8.53265C116.642 7.70204 117.526 7.24898 118.558 7.24898C119 7.24898 119.442 7.32449 119.884 7.55102C120.105 7.62653 120.326 7.77755 120.474 7.92857C120.768 8.1551 120.989 8.53265 121.137 8.9102H125.484C125.263 9.74082 125.116 10.6469 125.116 11.4775C125.116 12.0816 125.189 12.7612 125.337 13.4408ZM135.579 14.649C134.989 15.3286 134.105 15.6306 133.147 15.6306C132.263 15.7061 131.379 15.3286 130.789 14.649C130.126 13.7429 129.832 12.6102 129.905 11.4775C129.832 10.3449 130.126 9.21224 130.789 8.23061C131.379 7.55102 132.263 7.17347 133.074 7.24898H133.147C134.032 7.24898 134.916 7.55102 135.505 8.23061C136.168 9.06122 136.463 10.1939 136.389 11.251C136.389 12.8367 136.095 14.0449 135.579 14.649ZM148.768 9.89184C148.179 10.1939 147.516 10.4204 146.853 10.3449H145.674V7.02245H147.074C147.737 6.94694 148.326 7.17347 148.916 7.47551C149.211 7.77755 149.432 8.23061 149.432 8.68367C149.358 9.13673 149.137 9.5898 148.768 9.89184Z" fill="white"/>
<path d="M41.1158 32.696C41.4105 33.2245 41.8526 33.6021 42.4421 33.8286C43.1053 34.1307 43.7684 34.2062 44.5053 34.2062C45.0947 34.2062 45.6842 34.0551 46.2737 33.8286C46.7895 33.6021 47.1579 33.2245 47.4526 32.7715C47.7474 32.3939 47.8947 31.8654 47.8947 31.4878C47.8947 31.0347 47.7474 30.5817 47.5263 30.2041C47.2316 29.7511 46.7895 29.449 46.3474 29.2225C45.6842 28.996 45.0211 28.7694 44.3579 28.6184C43.6947 28.5429 43.1053 28.3164 42.5158 27.9388C42.2947 27.7123 42.1474 27.4103 42.1474 27.1082C42.1474 26.7307 42.3684 26.3531 42.6632 26.1266C43.1053 25.8245 43.6947 25.6735 44.2842 25.6735C44.8737 25.598 45.3895 25.8245 45.8316 26.1266C46.2 26.4286 46.4211 26.9572 46.4947 27.4102L47.6737 27.3347C47.6737 26.8062 47.5263 26.2776 47.2316 25.9756C46.9368 25.5225 46.4947 25.2205 46.0526 24.9939C45.4632 24.7674 44.8737 24.6164 44.2842 24.6919C43.6947 24.6919 43.179 24.7674 42.5895 24.9939C42.1474 25.1449 41.7053 25.5225 41.4105 25.9C41.1895 26.2776 41.0421 26.7307 41.0421 27.1082C41.0421 27.4858 41.1158 27.9388 41.3368 28.2409C41.5579 28.6184 41.9263 28.9205 42.2947 29.147C42.8842 29.3735 43.4737 29.6 44.0632 29.7511C44.579 29.9021 45.1684 30.0531 45.6842 30.2041C45.979 30.2796 46.2737 30.5062 46.4947 30.7327C46.6421 30.9592 46.7158 31.1858 46.7158 31.4878C46.7158 31.7898 46.6421 32.0919 46.4211 32.3184C46.2 32.6205 45.979 32.7715 45.6105 32.9225C45.2421 33.0735 44.8 33.149 44.4316 33.149C43.9895 33.149 43.4737 33.0735 43.0316 32.847C42.6632 32.696 42.3684 32.4694 42.1474 32.0919C41.9263 31.7143 41.779 31.3368 41.779 30.9592H40.6737C40.6 31.6388 40.8211 32.1674 41.1158 32.696ZM51.8737 33.9041L53.2 28.8449L53.4947 29.9776L54.5263 33.8286H55.7053L57.7684 27.3347H56.6632L55.5579 31.1103L55.1895 32.3184L54.8947 31.1103L53.7895 27.4102H52.6105L51.579 31.1858C51.3579 32.0164 51.2842 32.4694 51.2105 32.4694L50.8421 31.1858L49.8105 27.4102H48.6316L50.6211 33.9041H51.8737ZM59.9053 26.1266V24.8429H58.8V26.1266H59.9053ZM59.9053 33.9041V27.4102H58.8V33.9041H59.9053ZM62.1158 33.5266C62.7053 33.9041 63.3684 34.1307 64.1053 34.0551C64.5474 34.0551 65.0632 33.9796 65.5053 33.7531C65.8737 33.6021 66.2421 33.3 66.4632 32.998C66.6842 32.696 66.7579 32.3184 66.7579 31.9409C66.7579 31.5633 66.6842 31.2613 66.4632 30.9592C66.2421 30.6572 66.0211 30.5062 65.7263 30.3551C65.2105 30.1286 64.6211 29.9776 64.1053 29.8266C63.5895 29.6756 63.2211 29.6 63.1474 29.5245C63 29.449 62.8526 29.3735 62.7053 29.2225C62.6316 29.147 62.5579 28.996 62.5579 28.8449C62.5579 28.6184 62.7053 28.3919 62.8526 28.2409C63.1474 28.0143 63.5895 27.9388 63.9579 28.0143C64.3263 28.0143 64.6947 28.0898 64.9895 28.3164C65.2105 28.5429 65.3579 28.8449 65.4316 29.147L66.5368 28.996C66.4632 28.6184 66.3895 28.2409 66.1684 27.9388C65.9474 27.6368 65.6526 27.4103 65.2842 27.3347C64.8421 27.1082 64.3263 27.0327 63.8842 27.0327C63.5895 27.0327 63.2211 27.1082 62.9263 27.1837C62.7053 27.2592 62.4105 27.3347 62.1895 27.4858C61.9684 27.6368 61.7474 27.8633 61.6 28.0898C61.4526 28.3164 61.379 28.6184 61.379 28.9205C61.379 29.6 61.7474 30.1286 62.3368 30.4307C62.8526 30.6572 63.4421 30.8082 64.0316 30.9592C64.4 31.0347 64.8421 31.1858 65.2105 31.3368C65.4316 31.4878 65.5053 31.7143 65.5053 31.9409C65.5053 32.2429 65.3579 32.5449 65.1368 32.696C64.8421 32.9225 64.4 33.0735 63.9579 32.998C63.5158 32.998 63.1474 32.9225 62.7789 32.6205C62.4842 32.3184 62.2632 32.0164 62.2632 31.5633L61.1579 31.8654C61.379 32.6205 61.6737 33.149 62.1158 33.5266ZM68.6 33.5266C69.1895 33.9041 69.8526 34.1307 70.5895 34.0551C71.0316 34.0551 71.5474 33.9796 71.9895 33.7531C72.3579 33.6021 72.7263 33.3 72.9474 32.998C73.1684 32.696 73.2421 32.3184 73.2421 31.9409C73.2421 31.5633 73.1684 31.2613 72.9474 30.9592C72.7263 30.6572 72.5053 30.5062 72.2105 30.3551C71.6947 30.1286 71.1053 29.9776 70.5895 29.8266C70.0737 29.6756 69.7053 29.6 69.6316 29.5245C69.4842 29.449 69.3368 29.3735 69.1895 29.2225C69.1158 29.0715 69.0421 28.996 69.0421 28.8449C69.0421 28.6184 69.1895 28.3919 69.3368 28.2409C69.6316 28.0143 70.0737 27.9388 70.4421 28.0143C70.8105 28.0143 71.179 28.0898 71.4737 28.3164C71.6947 28.5429 71.8421 28.8449 71.9158 29.147L73.0211 28.996C72.9474 28.6184 72.8737 28.2409 72.6526 27.9388C72.4316 27.6368 72.1368 27.4103 71.7684 27.3347C71.3263 27.1837 70.8842 27.1082 70.3684 27.1082C70.0737 27.1082 69.7053 27.1837 69.4105 27.2592C69.1895 27.3347 68.8947 27.4103 68.6737 27.5613C68.4526 27.7123 68.2316 27.9388 68.0842 28.1654C67.9368 28.3919 67.8632 28.6939 67.8632 28.996C67.8632 29.6756 68.2316 30.2041 68.8211 30.5062C69.3368 30.7327 69.9263 30.8837 70.5158 31.0347C70.8842 31.1102 71.3263 31.2613 71.6947 31.4123C71.9158 31.5633 72.0632 31.7898 71.9895 32.0164C71.9895 32.3184 71.8421 32.6205 71.6211 32.7715C71.3263 32.998 70.8842 33.149 70.4421 33.0735C70 33.0735 69.6316 32.998 69.2632 32.696C68.9684 32.3939 68.7474 32.0919 68.7474 31.6388L67.6421 31.7898C67.8632 32.6205 68.1579 33.149 68.6 33.5266ZM81.8632 33.9041C82.379 33.9041 82.8211 33.8286 83.3368 33.7531C83.7053 33.6776 84 33.5266 84.3684 33.3C84.6632 33.0735 84.8842 32.7715 85.0316 32.3939C85.179 32.0164 85.3263 31.5633 85.3263 31.2613C85.3263 30.7327 85.179 30.2796 84.8842 29.9021C84.5895 29.5245 84.1474 29.2225 83.6316 29.0715C84 28.9205 84.3684 28.6184 84.5895 28.2409C84.8105 27.9388 84.8842 27.4858 84.8842 27.1082C84.8842 26.6551 84.7368 26.2776 84.5158 25.9756C84.2947 25.598 83.9263 25.296 83.5579 25.0694C83.0421 24.8429 82.4526 24.7674 81.8632 24.7674H78.4737V33.7531L81.8632 33.9041ZM79.6526 26.0511H81.4947C81.9368 26.0511 82.4526 26.0511 82.8947 26.2021C83.1158 26.2776 83.3368 26.4286 83.4842 26.6551C83.6316 26.8817 83.7053 27.1837 83.7053 27.4858C83.7053 27.7878 83.6316 28.0898 83.4842 28.3164C83.3368 28.5429 83.0421 28.6939 82.8211 28.7694C82.4526 28.8449 82.0842 28.9205 81.6421 28.8449H79.6526C79.6526 28.6939 79.6526 26.0511 79.6526 26.0511ZM79.6526 29.7511H81.7895C82.2316 29.7511 82.6737 29.7511 83.1158 29.9021C83.4105 29.9776 83.6316 30.2041 83.8526 30.4307C84.1474 30.9592 84.2211 31.5633 83.9263 32.0164C83.8526 32.2429 83.6316 32.3939 83.4842 32.5449C83.2632 32.696 83.0421 32.7715 82.8211 32.7715C82.5263 32.7715 82.3053 32.847 82.0105 32.847H79.7263V29.7511H79.6526ZM91.4421 33.9041H92.6211C92.4737 33.6776 92.4 33.3756 92.3263 33.0735C92.2526 32.3939 92.2526 31.7898 92.2526 31.1103V29.6756C92.2526 29.298 92.2526 28.996 92.179 28.6184C92.1053 28.3164 92.0316 28.0898 91.8105 27.8633C91.5895 27.6368 91.3684 27.4858 91 27.3347C90.5579 27.1837 90.1158 27.1082 89.6 27.1082C89.0842 27.1082 88.5684 27.1837 88.1263 27.3347C87.7579 27.4858 87.3895 27.7123 87.1684 28.0143C86.9474 28.3919 86.7263 28.7694 86.6526 29.147L87.7579 29.298C87.8316 28.9205 88.0526 28.5429 88.3474 28.3164C88.7158 28.0898 89.0842 28.0143 89.5263 28.0143C89.9684 28.0143 90.4105 28.0898 90.7789 28.3919C91 28.6939 91.1474 28.996 91.0737 29.3735C91.0737 29.449 91.0737 29.5245 91.0737 29.6756C90.4105 29.9021 89.7474 29.9776 89.0842 30.0531C88.7158 30.0531 88.4211 30.1286 88.0526 30.2041C87.7579 30.2796 87.4632 30.4307 87.2421 30.5817C87.0211 30.7327 86.8 30.9592 86.6526 31.2613C86.5053 31.5633 86.4316 31.8654 86.4316 32.1674C86.4316 32.696 86.6526 33.2245 87.0211 33.4511C87.4632 33.8286 88.0526 34.0551 88.7158 33.9796C89.1579 33.9796 89.5263 33.9041 89.9684 33.7531C90.4105 33.6021 90.7789 33.3 91.1474 32.998C91.2211 33.3756 91.2947 33.6776 91.4421 33.9041ZM91.1474 31.0347C91.1474 31.4123 91.0737 31.7898 91 32.1674C90.8526 32.4694 90.5579 32.7715 90.2632 32.9225C89.8947 33.149 89.5263 33.2245 89.0842 33.2245C88.7158 33.2245 88.3474 33.149 88.1263 32.9225C87.9053 32.7715 87.7579 32.4694 87.7579 32.1674C87.7579 31.9409 87.8316 31.7898 87.9053 31.6388C87.979 31.4878 88.2 31.3368 88.3474 31.2613C88.6421 31.1103 89.0105 31.0347 89.3053 31.0347C89.8947 30.9592 90.5579 30.8082 91.1474 30.5817V31.0347ZM95.2737 33.9041V30.3551C95.2 29.7511 95.4211 29.147 95.7895 28.6939C96.1579 28.3919 96.6 28.2409 97.0421 28.2409C97.3368 28.2409 97.5579 28.3164 97.8526 28.4674C98.0737 28.6184 98.2211 28.7694 98.2947 28.996C98.3684 29.3735 98.4421 29.6756 98.4421 30.0531V33.9796H99.5474V29.9776C99.5474 29.6 99.5474 29.2225 99.4737 28.8449C99.4 28.5429 99.3263 28.2409 99.1053 28.0143C98.8842 27.7878 98.6632 27.5613 98.3684 27.4102C98 27.2592 97.6316 27.1837 97.2632 27.1837C96.4526 27.1837 95.6421 27.5613 95.2 28.3164V27.3347H94.1684V33.8286L95.2737 33.9041ZM102.421 33.9041V31.3368L103.232 30.5817L105.368 33.9796H106.768L103.968 29.9021L106.474 27.4858H105L102.347 30.1286V24.9939H101.242V33.9796L102.421 33.9041ZM108.905 26.1266V24.8429H107.8V26.1266H108.905ZM108.905 33.9041V27.4102H107.8V33.9041H108.905ZM111.853 33.9041V30.3551C111.779 29.7511 112 29.147 112.368 28.6939C112.737 28.3919 113.179 28.2409 113.621 28.2409C113.916 28.2409 114.137 28.3164 114.432 28.4674C114.653 28.6184 114.8 28.7694 114.874 28.996C114.947 29.298 115.021 29.6756 115.021 30.0531V33.9796H116.126V29.9776C116.126 29.6 116.126 29.2225 116.053 28.8449C115.979 28.5429 115.905 28.2409 115.684 28.0143C115.463 27.7878 115.242 27.5613 114.947 27.4102C114.579 27.2592 114.211 27.1837 113.842 27.1837C113.032 27.1837 112.221 27.5613 111.705 28.3164V27.3347H110.674V33.8286L111.853 33.9041ZM118.411 36.0184C119 36.396 119.663 36.6225 120.326 36.547C120.916 36.547 121.505 36.4715 122.021 36.1694C122.463 35.9429 122.832 35.5654 123.053 35.1123C123.274 34.4327 123.421 33.6776 123.347 32.9225V27.3347H122.316V28.1654C121.874 27.5613 121.137 27.1837 120.4 27.1837C119.295 27.1837 118.263 27.8633 117.895 28.8449C117.674 29.3735 117.526 29.9776 117.526 30.5817C117.526 31.4123 117.747 32.2429 118.263 32.9225C118.779 33.6021 119.516 33.9796 120.4 33.9041C121.137 33.9041 121.8 33.6021 122.242 32.998C122.242 33.5266 122.242 33.9796 122.168 34.3572C122.095 34.7347 121.874 35.0368 121.579 35.2633C121.211 35.4898 120.842 35.6409 120.4 35.5654C120.032 35.5654 119.589 35.4898 119.295 35.2633C119.074 35.1123 118.926 34.8103 118.926 34.5082L117.821 34.3572C117.674 35.0368 117.895 35.6409 118.411 36.0184ZM119.147 28.7694C119.442 28.3919 119.958 28.1654 120.4 28.1654C120.916 28.1654 121.358 28.3919 121.726 28.7694C122.095 29.298 122.316 29.9021 122.242 30.5817C122.316 31.2613 122.095 31.8654 121.726 32.3939C121.137 33.149 120.032 33.2245 119.368 32.6205C119.295 32.5449 119.221 32.4694 119.147 32.3939C118.779 31.8654 118.558 31.1858 118.632 30.5062C118.632 29.9021 118.779 29.298 119.147 28.7694ZM135.874 30.4307V32.0919C135.505 32.3939 135.137 32.6205 134.768 32.7715C134.253 32.998 133.737 33.0735 133.221 33.0735C132.632 33.0735 132.042 32.9225 131.526 32.696C131.011 32.3939 130.568 32.0164 130.347 31.4878C130.053 30.8082 129.905 30.2041 129.905 29.449C129.905 28.8449 130.053 28.2409 130.274 27.6368C130.421 27.3347 130.642 26.9572 130.863 26.7307C131.158 26.4286 131.453 26.2021 131.821 26.0511C132.263 25.9 132.779 25.749 133.221 25.8245C133.663 25.8245 134.105 25.9 134.474 26.0511C134.842 26.2021 135.137 26.4286 135.358 26.7307C135.579 27.0327 135.8 27.4103 135.874 27.8633L136.979 27.5613C136.832 27.0327 136.611 26.5041 136.316 26.1266C136.021 25.749 135.579 25.3715 135.063 25.2205C134.474 24.9939 133.884 24.8429 133.295 24.9184C132.484 24.9184 131.6 25.0694 130.863 25.5225C130.126 25.9 129.611 26.5041 129.242 27.1837C128.874 27.9388 128.653 28.7694 128.653 29.6756C128.653 30.5062 128.8 31.3368 129.242 32.0919C129.611 32.847 130.2 33.3756 130.863 33.7531C131.6 34.1307 132.484 34.3572 133.295 34.3572C133.958 34.3572 134.621 34.2062 135.211 33.9796C135.874 33.7531 136.463 33.3756 137.053 32.9225V29.6H133.221V30.6572L135.874 30.4307ZM139.926 33.9041V30.5062C139.926 30.0531 140 29.6 140.147 29.2225C140.221 28.996 140.368 28.7694 140.589 28.6184C140.811 28.4674 141.032 28.3919 141.253 28.3919C141.547 28.3919 141.842 28.4674 142.063 28.6184L142.432 27.5613C142.063 27.3347 141.695 27.1837 141.253 27.1837C141.032 27.1837 140.737 27.2592 140.516 27.4102C140.221 27.6368 140 28.0143 139.779 28.3919V27.3347H138.747V33.8286L139.926 33.9041ZM143.611 33.149C144.2 33.7531 145.011 34.0551 145.821 34.0551C146.411 34.0551 146.926 33.9041 147.442 33.6776C147.884 33.3756 148.326 32.998 148.547 32.5449C148.842 31.9409 148.989 31.2613 148.916 30.5817C148.989 29.6756 148.695 28.8449 148.032 28.1654C147.442 27.5613 146.632 27.1837 145.821 27.2592C145.084 27.2592 144.347 27.4858 143.758 28.0143C143.021 28.7694 142.653 29.6756 142.726 30.7327C142.653 31.5633 142.947 32.5449 143.611 33.149ZM144.421 28.7694C145.084 28.0143 146.263 27.9388 147 28.6184C147.074 28.6939 147.147 28.6939 147.147 28.7694C147.516 29.298 147.737 29.9021 147.737 30.5817C147.811 31.2613 147.589 31.9409 147.147 32.4694C146.779 32.9225 146.337 33.149 145.747 33.149C145.232 33.149 144.716 32.9225 144.347 32.4694C143.684 31.4123 143.684 29.9776 144.421 28.7694ZM155.621 33.9041V27.4102H154.516V30.8837C154.516 31.3368 154.442 31.7898 154.295 32.1674C154.147 32.4694 153.926 32.696 153.632 32.847C153.337 32.998 153.042 33.149 152.674 33.0735C152.379 33.0735 152.084 32.998 151.863 32.847C151.642 32.696 151.495 32.3939 151.421 32.1674C151.347 31.7898 151.347 31.3368 151.347 31.0347V27.4102H150.316V31.4123C150.316 31.7898 150.316 32.1674 150.389 32.4694C150.463 32.7715 150.537 33.0735 150.758 33.3C150.979 33.5266 151.2 33.7531 151.495 33.9041C151.863 34.0552 152.232 34.1307 152.6 34.1307C153.411 34.1307 154.221 33.7531 154.663 32.998V33.9796H155.621V33.9041ZM158.642 36.4715V33.3C158.863 33.5266 159.084 33.7531 159.379 33.9041C159.674 34.0552 160.042 34.1307 160.411 34.1307C160.926 34.1307 161.442 33.9796 161.884 33.6776C162.326 33.3756 162.695 32.9225 162.916 32.4694C163.137 31.8654 163.284 31.3368 163.284 30.6572C163.284 30.0531 163.211 29.5245 162.989 28.9205C162.768 28.3919 162.474 27.9388 162.032 27.7123C161.589 27.4858 161.074 27.2592 160.558 27.2592C160.189 27.2592 159.821 27.3347 159.453 27.4858C159.158 27.7123 158.863 27.9388 158.642 28.2409V27.3347H157.611V36.396H158.642V36.4715ZM159.084 28.7694C159.379 28.3164 159.821 28.0898 160.337 28.0898C160.853 28.0898 161.295 28.3164 161.589 28.6939C161.958 29.2225 162.179 29.9021 162.105 30.5817C162.179 31.2613 161.958 31.9409 161.589 32.4694C161.295 32.847 160.779 33.149 160.337 33.149C159.821 33.149 159.379 32.9225 159.084 32.5449C158.716 32.0164 158.495 31.4123 158.568 30.6572C158.495 30.0531 158.716 29.298 159.084 28.7694Z" fill="white"/>
</g>
<defs>
<clipPath id="clip0_0_357">
<rect width="168" height="37" fill="white"/>
</clipPath>
</defs>
</svg>
