<svg width="182" height="39" viewBox="0 0 182 39" fill="none" xmlns="http://www.w3.org/2000/svg">
<g clip-path="url(#clip0_0_343)">
<path fill-rule="evenodd" clip-rule="evenodd" d="M43.3805 14.7339C43.0935 15.8189 42.5372 16.6152 41.7116 17.1237C40.885 17.632 39.7257 17.8868 38.2304 17.8868H33.4796L35.1473 11.5815H39.8981C41.3923 11.5815 42.4182 11.8357 42.9755 12.3441C43.5318 12.853 43.6675 13.6495 43.3805 14.7339ZM48.3004 14.598C48.9046 12.3165 48.6541 10.5648 47.5494 9.34449C46.4446 8.1242 44.5087 7.5144 41.7439 7.5144H31.1387L24.7559 31.6477H29.9082L32.4816 21.9196H35.8605C36.6182 21.9196 37.2146 22.0441 37.6508 22.2927C38.0879 22.5418 38.3438 22.9825 38.4228 23.6144L39.3419 31.6477H44.8624L43.9668 24.1572C43.7844 22.4849 43.029 21.5019 41.7016 21.2083C43.3939 20.7117 44.8113 19.886 45.9528 18.7334C47.0933 17.5814 47.8765 16.2032 48.3004 14.598Z" fill="#FDFCFF"/>
<path fill-rule="evenodd" clip-rule="evenodd" d="M60.8223 23.0044C60.3918 24.631 59.7286 25.8744 58.833 26.7327C57.9363 27.5917 56.8637 28.0207 55.6154 28.0207C54.3426 28.0207 53.4792 27.5974 53.0241 26.7497C52.5668 25.9026 52.5513 24.6772 52.9763 23.072C53.4002 21.4679 54.0767 20.2139 55.0079 19.3092C55.9379 18.4063 57.0273 17.9538 58.2766 17.9538C59.525 17.9538 60.3705 18.3895 60.8088 19.2591C61.2473 20.1288 61.2528 21.3772 60.8223 23.0044ZM63.0808 14.4626L62.4355 16.9032C62.1562 16.0216 61.6166 15.3216 60.8178 14.8019C60.0179 14.2823 59.0266 14.0219 57.8449 14.0219C56.3952 14.0219 55.0012 14.4007 53.6639 15.1576C52.3265 15.9151 51.1572 16.9826 50.157 18.3607C49.1568 19.7393 48.4236 21.3096 47.9574 23.072C47.4913 24.8351 47.3978 26.3884 47.6782 27.7326C47.9585 29.0775 48.566 30.1112 49.5016 30.8343C50.4363 31.5579 51.6401 31.9187 53.112 31.9187C54.2936 31.9187 55.4196 31.6702 56.4877 31.173C57.5557 30.6765 58.4624 29.9867 59.209 29.1056L58.536 31.6476H63.5202L68.0652 14.4626H63.0808Z" fill="#FDFCFF"/>
<path fill-rule="evenodd" clip-rule="evenodd" d="M85.9879 14.4626H71.502L70.4895 18.2931H78.9196L67.7737 28.0545L66.8224 31.6476H81.7767L82.7902 27.8178H73.7584L85.0734 17.9199L85.9879 14.4626Z" fill="#FDFCFF"/>
<path fill-rule="evenodd" clip-rule="evenodd" d="M98.741 22.9707C98.2926 24.6649 97.6284 25.9314 96.7495 26.7673C95.8706 27.6031 94.8069 28.0207 93.5586 28.0207C90.9484 28.0207 90.0895 26.3383 90.9796 22.9707C91.4224 21.2983 92.0899 20.0387 92.9823 19.1916C93.8756 18.3439 94.9571 17.92 96.2288 17.92C97.4771 17.92 98.3193 18.3439 98.7533 19.1916C99.1871 20.0387 99.1838 21.2983 98.741 22.9707ZM101.657 15.1064C100.51 14.3838 99.0447 14.022 97.2601 14.022C95.4533 14.022 93.78 14.3838 92.2391 15.1064C90.6982 15.8301 89.3863 16.8695 88.3038 18.2249C87.2201 19.581 86.4391 21.1626 85.9607 22.9707C85.4823 24.7788 85.4267 26.3598 85.7938 27.7158C86.1599 29.0719 86.9209 30.1113 88.0802 30.8344C89.2384 31.5581 90.7203 31.9188 92.5273 31.9188C94.3118 31.9188 95.9684 31.5581 97.4983 30.8344C99.0258 30.1113 100.333 29.0719 101.417 27.7158C102.499 26.3598 103.28 24.7788 103.759 22.9707C104.237 21.1626 104.293 19.581 103.927 18.2249C103.56 16.8695 102.803 15.8301 101.657 15.1064Z" fill="#FDFCFF"/>
<path fill-rule="evenodd" clip-rule="evenodd" d="M153.792 23.0045C153.361 24.6311 152.698 25.8745 151.802 26.7329C150.907 27.5918 149.832 28.0208 148.584 28.0208C147.313 28.0208 146.449 27.5975 145.994 26.7498C145.536 25.9027 145.521 24.6773 145.946 23.0721C146.37 21.4681 147.046 20.214 147.977 19.3093C148.907 18.4064 149.997 17.9539 151.246 17.9539C152.494 17.9539 153.34 18.3896 153.778 19.2593C154.217 20.1289 154.222 21.3773 153.792 23.0045ZM156.05 14.4627L155.405 16.9033C155.126 16.0218 154.586 15.3217 153.787 14.8021C152.987 14.2824 151.996 14.022 150.814 14.022C149.365 14.022 147.971 14.4008 146.633 15.1577C145.296 15.9152 144.127 16.9828 143.126 18.3608C142.126 19.7394 141.393 21.3097 140.927 23.0721C140.461 24.8352 140.368 26.3886 140.648 27.7328C140.928 29.0776 141.534 30.1113 142.471 30.8344C143.406 31.5581 144.609 31.9188 146.081 31.9188C147.263 31.9188 148.389 31.6703 149.457 31.1731C150.525 30.6766 151.432 29.9868 152.178 29.1057L151.505 31.6477H156.49L161.035 14.4627H156.05Z" fill="#FDFCFF"/>
<path fill-rule="evenodd" clip-rule="evenodd" d="M119.429 19.0725L120.699 14.3949C120.268 14.1689 119.696 14.0557 118.983 14.0557C117.844 14.0557 116.748 14.3436 115.693 14.9202C114.786 15.4148 114.014 16.1091 113.362 16.9791L114.023 14.4602L112.579 14.4626H109.04L104.46 31.6475H109.513L111.889 22.6656C112.235 21.3552 112.855 20.3327 113.753 19.5983C114.649 18.8639 115.767 18.4964 117.106 18.4964C117.931 18.4964 118.704 18.6886 119.429 19.0725Z" fill="#FDFCFF"/>
<path fill-rule="evenodd" clip-rule="evenodd" d="M133.495 23.0718C133.07 24.677 132.411 25.9023 131.519 26.7494C130.624 27.5971 129.554 28.0204 128.306 28.0204C127.056 28.0204 126.205 27.5915 125.752 26.7325C125.298 25.8741 125.287 24.6313 125.718 23.0041C126.148 21.377 126.818 20.1285 127.728 19.2588C128.638 18.3891 129.719 17.9534 130.968 17.9534C132.194 17.9534 133.028 18.4061 133.469 19.3096C133.91 20.2136 133.919 21.4682 133.495 23.0718ZM137.026 15.1573C136.088 14.4004 134.894 14.0222 133.446 14.0222C132.174 14.0222 130.964 14.3158 129.818 14.9032C128.668 15.4916 127.737 16.2925 127.023 17.3098L127.039 17.1971L127.888 14.46H126.911V14.4624H122.955L121.699 19.2146C121.685 19.2698 121.673 19.3214 121.658 19.3772L116.477 38.9689H121.529L124.138 29.106C124.394 29.9863 124.926 30.6762 125.731 31.1728C126.537 31.6699 127.53 31.9184 128.713 31.9184C130.185 31.9184 131.585 31.5577 132.914 30.834C134.243 30.1114 135.397 29.0772 136.377 27.7324C137.357 26.3887 138.08 24.8347 138.546 23.0718C139.012 21.3093 139.109 19.7391 138.839 18.3605C138.568 16.9823 137.963 15.9148 137.026 15.1573Z" fill="#FDFCFF"/>
<path fill-rule="evenodd" clip-rule="evenodd" d="M181.955 14.4674L181.959 14.4626H178.898C178.801 14.4626 178.714 14.4655 178.625 14.4674H177.036L176.224 15.6139C176.159 15.7002 176.094 15.7872 176.024 15.888L175.936 16.0208L169.481 25.1287L168.142 14.4626H162.855L165.533 30.6703L159.62 38.9691H159.789H162.808H164.888L166.321 36.9125C166.363 36.8513 166.399 36.8011 166.444 36.7363L168.116 34.3344L168.164 34.2656L175.646 23.5193L181.95 14.4745L181.959 14.4674H181.955Z" fill="#FDFCFF"/>
<path fill-rule="evenodd" clip-rule="evenodd" d="M11.7714 10.2791L10.259 15.9183L18.9132 10.2474L13.2536 31.6423L19.0009 31.6477L27.3616 0.046875L11.7714 10.2791Z" fill="#03FC9E"/>
<path fill-rule="evenodd" clip-rule="evenodd" d="M2.45649 22.6535L0.0771484 31.6476H11.8578C11.8578 31.6476 16.6764 13.3552 16.6777 13.35C16.6732 13.3529 2.45649 22.6535 2.45649 22.6535Z" fill="#FDFCFF"/>
</g>
<defs>
<clipPath id="clip0_0_343">
<rect width="182" height="39" fill="white"/>
</clipPath>
</defs>
</svg>
