<svg width="207" height="37" viewBox="0 0 207 37" fill="none" xmlns="http://www.w3.org/2000/svg">
<path d="M18.3442 0.703857C27.5839 0.703857 34.9336 7.97489 34.9336 17.1157C34.9336 26.2572 27.5839 33.5275 18.3442 33.5275C9.10378 33.5275 1.75488 26.2572 1.75488 17.1157C1.75488 7.97489 9.10378 0.703857 18.3442 0.703857ZM10.0674 10.2683V12.9854H26.6211V10.2683H10.0674ZM26.6211 23.963V15.7387H10.0674V23.9622H12.8147V20.8559C12.8147 19.974 13.0288 19.4797 13.3493 19.1266C13.7062 18.7037 14.2415 18.4566 14.8839 18.4566C15.5263 18.4566 16.0609 18.7037 16.4178 19.1266C16.739 19.4797 16.9531 19.974 16.9531 20.8559V23.9622H19.7361V20.8559C19.7361 19.974 19.9503 19.4797 20.2715 19.1266C20.6284 18.7037 21.1637 18.4566 21.8053 18.4566C22.447 18.4566 22.9823 18.7037 23.3392 19.1266C23.6604 19.4797 23.8745 19.974 23.8745 20.8559V23.9622L26.6211 23.963Z" fill="#FDFCFF"/>
<path d="M45.0342 10.9391C45.0342 13.9034 49.3154 14.5036 52.5259 16.3388C54.5237 17.4679 56.1646 19.3039 56.1646 22.4094C56.1646 26.8558 52.4902 29.6451 48.4231 29.6451C44.3561 29.6451 41.4303 27.7032 40.2891 26.4682L41.8943 23.1148H42.0371C43.3925 24.4212 45.4617 25.6562 48.1376 25.6562C49.8864 25.6562 51.7764 24.6322 51.7764 22.6205C51.7764 19.6209 47.4952 19.0207 44.2847 17.1854C42.2869 16.0564 40.646 14.2212 40.646 11.1149C40.646 6.66767 44.3561 3.87915 48.4945 3.87915C52.3831 3.87915 55.0233 5.82107 56.1646 6.87952L54.5594 10.2322H54.4166C53.0255 8.99641 51.2775 7.86657 48.8514 7.86657C46.925 7.86814 45.0342 8.89206 45.0342 10.9391ZM56.807 14.9979H61.0168L63.5135 22.163H63.6563L67.188 12.1749H70.0423L73.7525 22.269H73.8952L77.4626 12.1749H81.4583L75.3577 29.1155H72.5747L68.6504 18.4573H68.5077L64.7262 29.1155H61.8718L56.807 14.9979ZM83.2079 5.1157H87.4533V9.17452H83.2079V5.1157ZM83.2792 12.1741H87.382V29.1147H83.2792V12.1741ZM96.9428 29.6451C94.5167 29.6451 92.162 28.7271 90.5211 27.1752L91.6623 24.1387H91.8051C93.0891 25.2678 94.7301 26.1512 96.6208 26.1512C98.0476 26.1512 98.9755 25.551 98.9755 24.4918C98.9755 23.3972 97.7978 22.9736 96.3353 22.5146C93.9806 21.7739 90.8772 20.644 90.8772 17.1148C90.8772 13.8673 93.446 11.6437 97.1205 11.6437C99.1183 11.6437 101.152 12.3491 102.828 13.6555L101.687 16.7257H101.544C100.331 15.7724 98.7614 15.1376 97.4417 15.1376C95.8364 15.1376 94.9085 15.7378 94.9085 16.7963C94.9085 17.8908 96.0855 18.3145 97.5488 18.7735C99.9035 19.5142 103.007 20.644 103.007 24.1732C103.008 27.4215 100.44 29.6451 96.9428 29.6451ZM111.606 29.6451C109.18 29.6451 106.825 28.7271 105.184 27.1752L106.325 24.1387H106.468C107.752 25.2678 109.393 26.1512 111.285 26.1512C112.711 26.1512 113.639 25.551 113.639 24.4918C113.639 23.3972 112.462 22.9736 110.999 22.5146C108.644 21.7739 105.541 20.644 105.541 17.1148C105.541 13.8673 108.11 11.6437 111.784 11.6437C113.782 11.6437 115.816 12.3491 117.492 13.6555L116.351 16.7257H116.208C114.995 15.7724 113.425 15.1376 112.105 15.1376C110.499 15.1376 109.572 15.7378 109.572 16.7963C109.572 17.8908 110.749 18.3145 112.212 18.7735C114.567 19.5142 117.671 20.644 117.671 24.1732C117.671 27.4215 115.103 29.6451 111.606 29.6451ZM136.543 12.1741V36.5278H132.441V27.8798C131.264 28.9743 129.55 29.6451 127.91 29.6451C123.058 29.6451 119.954 25.9378 119.954 20.8206C119.954 16.0211 123.272 11.6445 128.338 11.6445C129.907 11.6445 131.441 12.2447 132.654 13.1972H132.797V12.1733L136.543 12.1741ZM132.441 16.586C131.584 15.8092 130.229 15.351 128.98 15.351C126.055 15.351 124.164 17.6099 124.164 20.786C124.164 23.6452 125.805 25.9386 128.73 25.9386C130.122 25.9386 131.442 25.4098 132.441 24.3513L132.441 16.586ZM144.106 22.3035C144.106 23.7864 144.356 24.4212 144.784 24.9508C145.319 25.5863 146.176 26.0084 147.139 26.0084C148.102 26.0084 148.959 25.5855 149.494 24.9508C149.922 24.4212 150.171 23.7864 150.171 22.3035V12.1741H154.274V21.8798C154.274 24.633 153.525 26.3623 152.241 27.5981C150.956 28.8684 149.137 29.6451 146.961 29.6451C144.963 29.6451 143.215 28.9037 141.967 27.6679C140.717 26.4329 140.004 24.6675 140.004 21.8798V12.1741H144.106V22.3035ZM157.093 20.8214C157.093 15.4216 160.804 11.6453 166.012 11.6453C171.22 11.6453 174.93 15.4216 174.93 20.4691C174.93 25.8688 171.22 29.6459 166.012 29.6459C160.804 29.6459 157.093 25.868 157.093 20.8214ZM166.012 15.351C163.265 15.351 161.302 17.6452 161.302 20.6448C161.302 23.6444 163.265 25.9386 166.012 25.9386C168.758 25.9386 170.721 23.6452 170.721 20.6448C170.721 17.6444 168.759 15.351 166.012 15.351ZM188.844 25.7974V28.9382C187.738 29.3964 186.525 29.6444 185.169 29.6444C183.35 29.6444 181.994 29.114 181.066 28.196C180.067 27.2089 179.568 25.7613 179.568 23.1854V15.7025H175.644V12.1733H179.568V6.52723H183.671V12.1741H188.844V15.7033H183.671V23.715C183.671 24.5977 183.85 25.092 184.134 25.409C184.634 25.9731 185.455 26.1159 186.346 26.1159C187.274 26.1159 188.38 25.9033 188.701 25.7974H188.844ZM198.905 29.6451C193.911 29.6451 190.164 26.1512 190.164 20.8206C190.164 15.9505 193.161 11.6445 198.477 11.6445C203.008 11.6445 206.04 15.209 206.04 20.1152V21.4561H194.445C194.552 24.1034 196.408 26.0806 199.119 26.0806C200.867 26.0806 202.473 25.3737 203.935 24.174H204.078L205.612 26.9971C204.007 28.6918 201.617 29.6451 198.905 29.6451ZM201.938 18.28C201.902 16.6919 200.653 15.1031 198.549 15.1031C196.48 15.1031 195.089 16.4801 194.66 18.28H201.938Z" fill="#FDFCFF"/>
</svg>
