<svg width="46" height="45" viewBox="0 0 46 45" fill="none" xmlns="http://www.w3.org/2000/svg">
<path d="M18.5 2.59808C21.2846 0.990381 24.7154 0.990381 27.5 2.59808L37.9856 8.65192C40.7702 10.2596 42.4856 13.2308 42.4856 16.4462V28.5538C42.4856 31.7692 40.7702 34.7404 37.9856 36.3481L27.5 42.4019C24.7154 44.0096 21.2846 44.0096 18.5 42.4019L8.01443 36.3481C5.22982 34.7404 3.51443 31.7692 3.51443 28.5538V16.4462C3.51443 13.2308 5.22982 10.2596 8.01443 8.65192L18.5 2.59808Z" fill="#2D59D3"/>
<path fill-rule="evenodd" clip-rule="evenodd" d="M21.0952 13.4208L23 12.3256L24.9048 13.4208L30.0952 16.4208L32 17.516V27.897L30.0952 28.9922L24.9524 31.9922L23.0476 33.0875L21.1429 31.9922L15.9048 28.9922L14 27.897V17.516L15.9048 16.4208L21.0952 13.4208ZM17.8095 19.7063V25.7063L23 28.7063L28.1905 25.7063V19.7063L23 16.7063L17.8095 19.7063Z" fill="white"/>
</svg>
