<svg width="46" height="46" viewBox="0 0 46 46" fill="none" xmlns="http://www.w3.org/2000/svg">
<path d="M18.5 2.84808C21.2846 1.24038 24.7154 1.24038 27.5 2.84808L37.9856 8.90192C40.7702 10.5096 42.4856 13.4808 42.4856 16.6962V28.8038C42.4856 32.0192 40.7702 34.9904 37.9856 36.5981L27.5 42.6519C24.7154 44.2596 21.2846 44.2596 18.5 42.6519L8.01443 36.5981C5.22982 34.9904 3.51443 32.0192 3.51443 28.8038V16.6962C3.51443 13.4808 5.22982 10.5096 8.01443 8.90192L18.5 2.84808Z" fill="#27A17A"/>
<path fill-rule="evenodd" clip-rule="evenodd" d="M24.9838 24.3326C24.873 24.3409 24.3005 24.3751 23.0236 24.3751C22.0079 24.3751 21.2868 24.3446 21.0338 24.3326C17.1086 24.16 14.1789 23.4767 14.1789 22.6586C14.1789 21.8405 17.1086 21.1582 21.0338 20.9828V23.6521C21.2905 23.6706 22.0254 23.714 23.0411 23.714C24.2599 23.714 24.8702 23.6632 24.9801 23.6531V20.9846C28.8969 21.1591 31.8202 21.8424 31.8202 22.6586C31.8202 23.4749 28.8978 24.1581 24.9801 24.3317L24.9838 24.3326ZM24.9838 20.7087V18.32H30.45V14.6774H15.5676V18.32H21.0328V20.7078C16.5906 20.9118 13.25 21.7918 13.25 22.8462C13.25 23.9007 16.5906 24.7797 21.0328 24.9847V32.6391H24.9829V24.9819C29.4149 24.7778 32.75 23.8988 32.75 22.8453C32.75 21.7918 29.4177 20.9127 24.9829 20.7078L24.9838 20.7087Z" fill="white"/>
</svg>
