<svg width="20" height="16" viewBox="0 0 20 16" fill="none" xmlns="http://www.w3.org/2000/svg">
<path d="M16.6665 15.1042H3.33317C2.72606 15.1018 2.14444 14.8354 1.71514 14.3632C1.28585 13.891 1.0437 13.2512 1.0415 12.5834V3.41671C1.0437 2.74888 1.28585 2.1091 1.71514 1.63688C2.14444 1.16465 2.72606 0.898289 3.33317 0.895874H16.6665C17.2736 0.898289 17.8552 1.16465 18.2845 1.63688C18.7138 2.1091 18.956 2.74888 18.9582 3.41671V12.5834C18.956 13.2512 18.7138 13.891 18.2845 14.3632C17.8552 14.8354 17.2736 15.1018 16.6665 15.1042ZM3.33317 2.27087C3.0569 2.27087 2.79195 2.3916 2.5966 2.60648C2.40125 2.82137 2.2915 3.11281 2.2915 3.41671V12.5834C2.2915 12.8873 2.40125 13.1787 2.5966 13.3936C2.79195 13.6085 3.0569 13.7292 3.33317 13.7292H16.6665C16.9428 13.7292 17.2077 13.6085 17.4031 13.3936C17.5984 13.1787 17.7082 12.8873 17.7082 12.5834V3.41671C17.7082 3.11281 17.5984 2.82137 17.4031 2.60648C17.2077 2.3916 16.9428 2.27087 16.6665 2.27087H3.33317Z" fill="#838586"/>
<path d="M9.99986 9.23753C9.51627 9.23753 9.04149 9.0951 8.62486 8.82503L1.34986 4.06753C1.21394 3.97435 1.11516 3.82798 1.07341 3.65789C1.03166 3.4878 1.05005 3.30664 1.12486 3.15086C1.20806 2.99943 1.34177 2.88975 1.49745 2.84522C1.65313 2.8007 1.81847 2.82485 1.95819 2.91253L9.24153 7.66086C9.46241 7.80906 9.71613 7.88746 9.97486 7.88746C10.2336 7.88746 10.4873 7.80906 10.7082 7.66086L17.9915 2.91253C18.1312 2.82485 18.2966 2.8007 18.4523 2.84522C18.6079 2.88975 18.7417 2.99943 18.8249 3.15086C18.8997 3.30664 18.9181 3.4878 18.8763 3.65789C18.8346 3.82798 18.7358 3.97435 18.5999 4.06753L11.3749 8.82503C10.9582 9.0951 10.4835 9.23753 9.99986 9.23753Z" fill="#838586"/>
</svg>
