<svg width="333" height="278" viewBox="0 0 333 278" fill="none" xmlns="http://www.w3.org/2000/svg">
<path opacity="0.1" d="M77.5699 113.076V129H7.07754V115.411L40.4128 79.6695C43.7628 75.942 46.4051 72.6627 48.3396 69.8317C50.2742 66.9535 51.6661 64.382 52.5154 62.1172C53.4119 59.8052 53.8601 57.6112 53.8601 55.5351C53.8601 52.421 53.3411 49.7551 52.3031 47.5375C51.265 45.2727 49.7315 43.5269 47.7026 42.3001C45.7209 41.0733 43.2674 40.4599 40.342 40.4599C37.2279 40.4599 34.5384 41.2149 32.2736 42.7247C30.056 44.2346 28.3574 46.3343 27.1778 49.0238C26.0454 51.7132 25.4792 54.7566 25.4792 58.1538H5.02506C5.02506 52.0199 6.48775 46.4051 9.41313 41.3092C12.3385 36.1662 16.4671 32.0848 21.7988 29.0651C27.1306 25.9981 33.4532 24.4647 40.7667 24.4647C47.9857 24.4647 54.0724 25.6443 59.0267 28.0034C64.0282 30.3154 67.8029 33.6655 70.3508 38.0536C72.9459 42.3945 74.2434 47.5847 74.2434 53.6242C74.2434 57.0214 73.7008 60.3478 72.6156 63.6035C71.5304 66.812 69.9733 70.0205 67.9444 73.229C65.9627 76.3903 63.5563 79.5987 60.7253 82.8544C57.8943 86.1101 54.7566 89.4837 51.3122 92.9753L33.406 113.076H77.5699ZM159.669 68.4162V86.2516C159.669 93.9897 158.844 100.666 157.192 106.281C155.541 111.849 153.158 116.426 150.044 120.012C146.977 123.55 143.32 126.169 139.074 127.868C134.827 129.566 130.109 130.416 124.919 130.416C120.766 130.416 116.897 129.896 113.311 128.858C109.726 127.773 106.493 126.098 103.615 123.833C100.784 121.569 98.3307 118.714 96.2546 115.27C94.2257 111.778 92.6686 107.626 91.5834 102.813C90.4982 98.0004 89.9556 92.4799 89.9556 86.2516V68.4162C89.9556 60.6781 90.7813 54.0488 92.4327 48.5283C94.1313 42.9607 96.5141 38.4074 99.581 34.8687C102.695 31.3299 106.375 28.7348 110.622 27.0834C114.869 25.3848 119.587 24.5354 124.777 24.5354C128.929 24.5354 132.775 25.0781 136.313 26.1633C139.899 27.2013 143.132 28.8292 146.01 31.0468C148.888 33.2644 151.341 36.119 153.37 39.6106C155.399 43.055 156.956 47.1836 158.042 51.9963C159.127 56.7619 159.669 62.2352 159.669 68.4162ZM139.215 88.9411V65.656C139.215 61.9285 139.003 58.6728 138.578 55.889C138.201 53.1051 137.611 50.746 136.809 48.8114C136.007 46.8297 135.016 45.2255 133.836 43.9987C132.657 42.7719 131.312 41.8754 129.802 41.3092C128.292 40.743 126.617 40.4599 124.777 40.4599C122.465 40.4599 120.413 40.9082 118.62 41.8047C116.874 42.7011 115.388 44.1402 114.161 46.122C112.934 48.0565 111.99 50.6516 111.33 53.9073C110.716 57.1157 110.41 61.032 110.41 65.656V88.9411C110.41 92.6686 110.598 95.9479 110.976 98.7789C111.401 101.61 112.014 104.04 112.816 106.069C113.665 108.05 114.656 109.678 115.789 110.952C116.968 112.179 118.313 113.076 119.823 113.642C121.38 114.208 123.078 114.491 124.919 114.491C127.183 114.491 129.189 114.043 130.935 113.146C132.728 112.203 134.237 110.74 135.464 108.758C136.738 106.729 137.682 104.087 138.295 100.831C138.909 97.5757 139.215 93.6123 139.215 88.9411ZM244.034 113.076V129H173.541V115.411L206.877 79.6695C210.227 75.942 212.869 72.6627 214.803 69.8317C216.738 66.9535 218.13 64.382 218.979 62.1172C219.876 59.8052 220.324 57.6112 220.324 55.5351C220.324 52.421 219.805 49.7551 218.767 47.5375C217.729 45.2727 216.195 43.5269 214.166 42.3001C212.185 41.0733 209.731 40.4599 206.806 40.4599C203.692 40.4599 201.002 41.2149 198.737 42.7247C196.52 44.2346 194.821 46.3343 193.642 49.0238C192.509 51.7132 191.943 54.7566 191.943 58.1538H171.489C171.489 52.0199 172.952 46.4051 175.877 41.3092C178.802 36.1662 182.931 32.0848 188.263 29.0651C193.594 25.9981 199.917 24.4647 207.23 24.4647C214.45 24.4647 220.536 25.6443 225.491 28.0034C230.492 30.3154 234.267 33.6655 236.815 38.0536C239.41 42.3945 240.707 47.5847 240.707 53.6242C240.707 57.0214 240.165 60.3478 239.079 63.6035C237.994 66.812 236.437 70.0205 234.408 73.229C232.427 76.3903 230.02 79.5987 227.189 82.8544C224.358 86.1101 221.22 89.4837 217.776 92.9753L199.87 113.076H244.034ZM277.652 68.6285H288.551C292.043 68.6285 294.921 68.0388 297.186 66.8592C299.451 65.6324 301.126 63.9338 302.211 61.7633C303.344 59.5457 303.91 56.9742 303.91 54.0488C303.91 51.4065 303.391 49.0709 302.353 47.042C301.362 44.966 299.828 43.3617 297.752 42.2293C295.676 41.0497 293.058 40.4599 289.896 40.4599C287.395 40.4599 285.083 40.9554 282.96 41.9462C280.837 42.9371 279.138 44.329 277.864 46.122C276.59 47.9149 275.953 50.0854 275.953 52.6333H255.499C255.499 46.9713 257.009 42.0406 260.029 37.8412C263.096 33.6419 267.201 30.3626 272.344 28.0034C277.487 25.6443 283.149 24.4647 289.33 24.4647C296.313 24.4647 302.423 25.5971 307.661 27.8619C312.898 30.0795 316.98 33.3588 319.905 37.6997C322.83 42.0406 324.293 47.4195 324.293 53.8365C324.293 57.0922 323.538 60.2535 322.028 63.3204C320.518 66.3401 318.348 69.0768 315.517 71.5303C312.733 73.9367 309.336 75.8712 305.325 77.3339C301.315 78.7494 296.809 79.4572 291.807 79.4572H277.652V68.6285ZM277.652 84.1284V73.5828H291.807C297.422 73.5828 302.353 74.2198 306.599 75.4938C310.846 76.7677 314.408 78.6079 317.286 81.0143C320.165 83.3734 322.335 86.1809 323.798 89.4365C325.26 92.645 325.992 96.2074 325.992 100.124C325.992 104.936 325.072 109.23 323.231 113.005C321.391 116.732 318.796 119.894 315.446 122.489C312.143 125.084 308.274 127.065 303.839 128.434C299.404 129.755 294.567 130.416 289.33 130.416C284.989 130.416 280.719 129.826 276.52 128.646C272.367 127.419 268.593 125.603 265.196 123.196C261.846 120.743 259.156 117.676 257.127 113.996C255.145 110.268 254.155 105.856 254.155 100.761H274.609C274.609 103.403 275.269 105.762 276.59 107.838C277.912 109.914 279.728 111.542 282.04 112.722C284.399 113.901 287.018 114.491 289.896 114.491C293.152 114.491 295.936 113.901 298.248 112.722C300.607 111.495 302.4 109.796 303.627 107.626C304.901 105.408 305.538 102.837 305.538 99.9113C305.538 96.1366 304.853 93.1169 303.485 90.852C302.117 88.54 300.159 86.8414 297.611 85.7562C295.063 84.671 292.043 84.1284 288.551 84.1284H277.652Z" fill="white"/>
<path opacity="0.1" d="M77.5699 231.076V247H7.07754V233.411L40.4128 197.67C43.7628 193.942 46.4051 190.663 48.3396 187.832C50.2742 184.954 51.6661 182.382 52.5154 180.117C53.4119 177.805 53.8601 175.611 53.8601 173.535C53.8601 170.421 53.3411 167.755 52.3031 165.537C51.265 163.273 49.7315 161.527 47.7026 160.3C45.7209 159.073 43.2674 158.46 40.342 158.46C37.2279 158.46 34.5384 159.215 32.2736 160.725C30.056 162.235 28.3574 164.334 27.1778 167.024C26.0454 169.713 25.4792 172.757 25.4792 176.154H5.02506C5.02506 170.02 6.48775 164.405 9.41313 159.309C12.3385 154.166 16.4671 150.085 21.7988 147.065C27.1306 143.998 33.4532 142.465 40.7667 142.465C47.9857 142.465 54.0724 143.644 59.0267 146.003C64.0282 148.315 67.8029 151.665 70.3508 156.054C72.9459 160.394 74.2434 165.585 74.2434 171.624C74.2434 175.021 73.7008 178.348 72.6156 181.603C71.5304 184.812 69.9733 188.02 67.9444 191.229C65.9627 194.39 63.5563 197.599 60.7253 200.854C57.8943 204.11 54.7566 207.484 51.3122 210.975L33.406 231.076H77.5699ZM159.669 186.416V204.252C159.669 211.99 158.844 218.666 157.192 224.281C155.541 229.849 153.158 234.426 150.044 238.012C146.977 241.55 143.32 244.169 139.074 245.868C134.827 247.566 130.109 248.416 124.919 248.416C120.766 248.416 116.897 247.896 113.311 246.858C109.726 245.773 106.493 244.098 103.615 241.833C100.784 239.569 98.3307 236.714 96.2546 233.27C94.2257 229.778 92.6686 225.626 91.5834 220.813C90.4982 216 89.9556 210.48 89.9556 204.252V186.416C89.9556 178.678 90.7813 172.049 92.4327 166.528C94.1313 160.961 96.5141 156.407 99.581 152.869C102.695 149.33 106.375 146.735 110.622 145.083C114.869 143.385 119.587 142.535 124.777 142.535C128.929 142.535 132.775 143.078 136.313 144.163C139.899 145.201 143.132 146.829 146.01 149.047C148.888 151.264 151.341 154.119 153.37 157.611C155.399 161.055 156.956 165.184 158.042 169.996C159.127 174.762 159.669 180.235 159.669 186.416ZM139.215 206.941V183.656C139.215 179.928 139.003 176.673 138.578 173.889C138.201 171.105 137.611 168.746 136.809 166.811C136.007 164.83 135.016 163.225 133.836 161.999C132.657 160.772 131.312 159.875 129.802 159.309C128.292 158.743 126.617 158.46 124.777 158.46C122.465 158.46 120.413 158.908 118.62 159.805C116.874 160.701 115.388 162.14 114.161 164.122C112.934 166.056 111.99 168.652 111.33 171.907C110.716 175.116 110.41 179.032 110.41 183.656V206.941C110.41 210.669 110.598 213.948 110.976 216.779C111.401 219.61 112.014 222.04 112.816 224.069C113.665 226.05 114.656 227.678 115.789 228.952C116.968 230.179 118.313 231.076 119.823 231.642C121.38 232.208 123.078 232.491 124.919 232.491C127.183 232.491 129.189 232.043 130.935 231.146C132.728 230.203 134.237 228.74 135.464 226.758C136.738 224.729 137.682 222.087 138.295 218.831C138.909 215.576 139.215 211.612 139.215 206.941ZM244.034 231.076V247H173.541V233.411L206.877 197.67C210.227 193.942 212.869 190.663 214.803 187.832C216.738 184.954 218.13 182.382 218.979 180.117C219.876 177.805 220.324 175.611 220.324 173.535C220.324 170.421 219.805 167.755 218.767 165.537C217.729 163.273 216.195 161.527 214.166 160.3C212.185 159.073 209.731 158.46 206.806 158.46C203.692 158.46 201.002 159.215 198.737 160.725C196.52 162.235 194.821 164.334 193.642 167.024C192.509 169.713 191.943 172.757 191.943 176.154H171.489C171.489 170.02 172.952 164.405 175.877 159.309C178.802 154.166 182.931 150.085 188.263 147.065C193.594 143.998 199.917 142.465 207.23 142.465C214.45 142.465 220.536 143.644 225.491 146.003C230.492 148.315 234.267 151.665 236.815 156.054C239.41 160.394 240.707 165.585 240.707 171.624C240.707 175.021 240.165 178.348 239.079 181.603C237.994 184.812 236.437 188.02 234.408 191.229C232.427 194.39 230.02 197.599 227.189 200.854C224.358 204.11 221.22 207.484 217.776 210.975L199.87 231.076H244.034ZM327.266 231.076V247H256.773V233.411L290.109 197.67C293.459 193.942 296.101 190.663 298.035 187.832C299.97 184.954 301.362 182.382 302.211 180.117C303.108 177.805 303.556 175.611 303.556 173.535C303.556 170.421 303.037 167.755 301.999 165.537C300.961 163.273 299.427 161.527 297.398 160.3C295.417 159.073 292.963 158.46 290.038 158.46C286.924 158.46 284.234 159.215 281.969 160.725C279.752 162.235 278.053 164.334 276.874 167.024C275.741 169.713 275.175 172.757 275.175 176.154H254.721C254.721 170.02 256.184 164.405 259.109 159.309C262.034 154.166 266.163 150.085 271.495 147.065C276.826 143.998 283.149 142.465 290.462 142.465C297.682 142.465 303.768 143.644 308.722 146.003C313.724 148.315 317.499 151.665 320.047 156.054C322.642 160.394 323.939 165.585 323.939 171.624C323.939 175.021 323.397 178.348 322.311 181.603C321.226 184.812 319.669 188.02 317.64 191.229C315.658 194.39 313.252 197.599 310.421 200.854C307.59 204.11 304.452 207.484 301.008 210.975L283.102 231.076H327.266Z" fill="white"/>
<rect x="139" y="168" width="48" height="89" fill="#00FF94"/>
<rect x="192" y="224" width="48" height="33" fill="#00FF94"/>
<rect x="86" y="196" width="48" height="61" fill="#00FF94"/>
<rect x="69" y="262" width="189" height="7" fill="#00FF94"/>
<path d="M187.75 108.854C187.75 115.341 183.587 120.104 179 120.104C174.413 120.104 170.25 115.341 170.25 108.854C170.25 102.366 174.413 97.6035 179 97.6035C183.587 97.6035 187.75 102.366 187.75 108.854Z" stroke="#003C2E" stroke-width="2.5"/>
<path d="M153.75 108.854C153.75 115.341 149.587 120.104 145 120.104C140.413 120.104 136.25 115.341 136.25 108.854C136.25 102.366 140.413 97.6035 145 97.6035C149.587 97.6035 153.75 102.366 153.75 108.854Z" stroke="#003C2E" stroke-width="2.5"/>
<path d="M145 93.3535H180V122.854C180 132.518 172.165 140.354 162.5 140.354C152.835 140.354 145 132.518 145 122.854V93.3535Z" fill="#003C2E"/>
<path d="M154.379 122.817C154.296 122.817 154.228 122.79 154.173 122.735C154.118 122.68 154.095 122.611 154.104 122.529L154.351 120.865H152.99C152.898 120.865 152.825 120.837 152.77 120.782C152.715 120.727 152.688 120.654 152.688 120.562V120.095C152.688 120.003 152.715 119.93 152.77 119.875C152.825 119.82 152.898 119.792 152.99 119.792H154.516L154.874 117.372H153.348C153.256 117.372 153.183 117.345 153.128 117.29C153.073 117.235 153.045 117.161 153.045 117.07V116.602C153.045 116.511 153.073 116.437 153.128 116.382C153.183 116.327 153.256 116.3 153.348 116.3H155.039L155.286 114.636C155.305 114.563 155.337 114.499 155.383 114.444C155.428 114.379 155.497 114.347 155.589 114.347H156.098C156.18 114.347 156.249 114.375 156.304 114.43C156.359 114.485 156.382 114.554 156.373 114.636L156.125 116.3H158.16L158.408 114.636C158.426 114.563 158.458 114.499 158.504 114.444C158.55 114.379 158.618 114.347 158.71 114.347H159.219C159.301 114.347 159.37 114.375 159.425 114.43C159.48 114.485 159.503 114.554 159.494 114.636L159.246 116.3H160.58C160.672 116.3 160.745 116.327 160.8 116.382C160.864 116.437 160.896 116.511 160.896 116.602V117.07C160.896 117.161 160.864 117.235 160.8 117.29C160.745 117.345 160.672 117.372 160.58 117.372H159.095L158.738 119.792H160.223C160.314 119.792 160.388 119.82 160.443 119.875C160.507 119.93 160.539 120.003 160.539 120.095V120.562C160.539 120.654 160.507 120.727 160.443 120.782C160.388 120.837 160.314 120.865 160.223 120.865H158.573L158.325 122.529C158.298 122.721 158.192 122.817 158.009 122.817H157.5C157.418 122.817 157.349 122.79 157.294 122.735C157.239 122.68 157.216 122.611 157.225 122.529L157.473 120.865H155.451L155.204 122.529C155.176 122.721 155.071 122.817 154.888 122.817H154.379ZM155.616 119.792H157.638L157.995 117.372H155.974L155.616 119.792Z" fill="#00FF94"/>
<path d="M169.618 122.804H171.543V123.354H163.293V122.804H165.493V109.576L163.265 110.429L163.1 109.906L168.628 107.349H169.618V122.804Z" fill="#00FF94"/>
<rect x="160" y="137.354" width="6" height="22" fill="#003C2E"/>
<rect x="180" y="159.354" width="6" height="34" transform="rotate(90 180 159.354)" fill="#003C2E"/>
<path d="M113 172.354L116.558 175.912" stroke="#0BC882" stroke-width="0.71166" stroke-linecap="round"/>
<path d="M113 181.857L116.558 178.298" stroke="#0BC882" stroke-width="0.71166" stroke-linecap="round"/>
<path d="M122 172.354L118.442 175.912" stroke="#0BC882" stroke-width="0.71166" stroke-linecap="round"/>
<path d="M122 181.857L118.442 178.298" stroke="#0BC882" stroke-width="0.71166" stroke-linecap="round"/>
<circle cx="61" cy="193.354" r="4.5" stroke="#BBBCBE"/>
<circle cx="324" cy="258.354" r="4.5" stroke="#08BC79"/>
<line x1="18" y1="218.354" x2="27" y2="218.354" stroke="#00FF94" stroke-width="2"/>
<line x1="41" y1="239.854" x2="73" y2="239.854" stroke="#0FB477"/>
<line x1="297" y1="245.854" x2="318" y2="245.854" stroke="#0FB477"/>
<line x1="12" y1="247.854" x2="70" y2="247.854" stroke="#C6C8C8"/>
<line x1="285" y1="255.854" x2="308" y2="255.854" stroke="#C6C8C8"/>
<path d="M225.96 129.201L227.072 123.844L230.552 127.935C231.031 128.498 231.677 128.895 232.395 129.069L237.911 130.403L233.867 133.934C233.338 134.396 232.96 135.006 232.783 135.686L231.346 141.183L227.956 136.59C227.387 135.82 226.528 135.316 225.578 135.196L220.609 134.569L224.743 131.205C225.367 130.697 225.797 129.989 225.96 129.201Z" stroke="#EDEDED"/>
<rect x="219.453" y="94.9896" width="7.45861" height="7.45861" rx="1.5" transform="rotate(45 219.453 94.9896)" stroke="#07C57C"/>
<path d="M141.354 57L146.354 62" stroke="#0BC882" stroke-linecap="round"/>
<path d="M141.354 70.3535L146.354 65.3535" stroke="#0BC882" stroke-linecap="round"/>
<path d="M154 57L149 62" stroke="#0BC882" stroke-linecap="round"/>
<path d="M154 70.3535L149 65.3535" stroke="#0BC882" stroke-linecap="round"/>
</svg>
